<?xml version="1.0" standalone="no"?>
<!DOCTYPE svg PUBLIC "-//W3C//DTD SVG 1.1//EN" "http://www.w3.org/Graphics/SVG/1.1/DTD/svg11.dtd" >
<svg xmlns="http://www.w3.org/2000/svg" xmlns:xlink="http://www.w3.org/1999/xlink" version="1.1">
<metadata>
Created by FontForge 20150318 at Sun Oct 11 10:04:31 2015
 By uniteet7
Copyright ParaGraph 1993.
</metadata>
<defs>
<font id="OlgaCTT" horiz-adv-x="424" >
  <font-face 
    font-family="OlgaCTT"
    font-weight="400"
    font-stretch="normal"
    units-per-em="1000"
    panose-1="0 0 0 0 0 0 0 0 0 0"
    ascent="800"
    descent="-200"
    x-height="273"
    cap-height="678"
    bbox="-119 -372 1166 983"
    underline-thickness="20"
    underline-position="-123"
    unicode-range="U+000F-2122"
  />
<missing-glyph horiz-adv-x="800" 
d="M50 0v800h700v-800h-700zM700 50v700h-600v-700h600z" />
    <glyph glyph-name=".notdef" horiz-adv-x="800" 
d="M50 0v800h700v-800h-700zM700 50v700h-600v-700h600z" />
    <glyph glyph-name=".null" horiz-adv-x="0" 
 />
    <glyph glyph-name="nonmarkingreturn" horiz-adv-x="369" 
 />
    <glyph glyph-name="SI" horiz-adv-x="254" 
d="M265 462q0 -26 -37.5 -100t-73.5 -146q-41 -88 -45 -132q0 -42 -13 -60t-48 -18q-24 0 -32 19.5t-8 58.5q0 21 56 124q48 88 110.5 184.5t75.5 96.5q15 0 15 -27z" />
    <glyph glyph-name="space" unicode=" " horiz-adv-x="369" 
 />
    <glyph glyph-name="exclam" unicode="!" horiz-adv-x="326" 
d="M426 777q0 -22 -14 -47q-4 -8 -14 -21q-30 -49 -60 -97q-29 -54 -47 -124q-12 -65 -24 -129q-9 -25 -26 -47q-21 -28 -38 -28q-16 0 -30 14t-14 26q0 10 27 81l68 176q41 135 53 165q34 82 75 82q23 0 35 -19q9 -15 9 -32zM162 95q0 -42 -25 -60q-19 -14 -51 -14
q-17 0 -28.5 21t-11.5 42q0 20 21.5 43.5t46.5 23.5q15 0 31.5 -18.5t16.5 -37.5z" />
    <glyph glyph-name="quotedbl" unicode="&#x22;" horiz-adv-x="337" 
d="M521 787q0 -20 -91.5 -142t-106.5 -122q-14 1 -18 23q-1 2 40 68q29 46 46 81q37 73 37 109q0 18 12 29q16 15 47 15q18 0 26 -17.5t8 -43.5zM380 789q0 -19 -90.5 -142.5t-104.5 -123.5q-8 0 -13.5 7.5t-7.5 17.5q17 30 40 68q31 51 46 81q12 24 23 48q15 33 15 61
q0 23 18.5 34t40.5 11q18 0 25.5 -18.5t7.5 -43.5z" />
    <glyph glyph-name="numbersign" unicode="#" horiz-adv-x="785" 
d="M848 431q-43 -6 -88.5 -12t-96.5 -20q0 -15 -5.5 -40.5t-7.5 -35.5q18 2 36 5h20q24 0 39 -16t15 -39q0 -18 -12.5 -23.5t-39.5 -5.5l-76 2q-16 -40 -26 -74.5t-10 -66.5v-21q0 -28 -5 -42q-8 -23 -28 -23t-33 9l-26 18q-18 9 -58 31q-18 10 -53 28q0 -15 -5.5 -63
t-5.5 -67q0 -26 -8 -35t-23 -9q-19 2 -28 2q-14 0 -19.5 16.5t-5.5 46.5q0 29 7.5 60.5t24.5 75.5q-11 -2 -55 -15q-28 -8 -48 -8q-17 0 -30.5 10t-15.5 28q-3 17 6.5 34.5t24.5 22.5l139 31l19 70q-57 -14 -123 -24.5t-104 -10.5q-21 0 -27.5 13t-6.5 34q0 14 17 24.5
t29 11.5q55 5 116 13q124 17 130 17q29 82 44.5 154.5t15.5 122.5q0 16 -1 23q-2 19 13.5 30.5t34.5 11.5q25 0 33 -17q5 -11 5 -38q0 -29 -36 -146q-12 -39 -36 -112q28 4 55 10q66 14 71 15q10 48 20 97q18 65 44 65q14 0 22.5 -5t8.5 -21q0 -43 -14 -105q63 18 91 25
q49 13 79 13q24 0 34 -6t10 -25q0 -39 -47 -44zM574 364l-132 -37q-2 -8 -6.5 -29t-9.5 -34q29 10 81 26q24 8 58 18q2 3 4.5 22.5t4.5 33.5zM542 214l-122 -42q11 -11 36.5 -25.5t58.5 -30.5q6 25 12.5 48.5t14.5 49.5z" />
    <glyph glyph-name="dollar" unicode="$" horiz-adv-x="458" 
d="M505 750q0 -25 -9.5 -52.5t-28.5 -64.5q27 -9 27 -59v-11q-2 -8 -2 -12q-3 -26 -50 -63q-16 -13 -53 -36.5t-46 -28.5t-16 -5q-22 0 -32 3t-10 16q-2 13 36.5 50t38.5 45q2 7 -9 7q-29 0 -96 -73q-74 -81 -74 -142q0 -25 20.5 -40.5t91 -27t95.5 -24.5q45 -22 45 -71
q0 -42 -53 -76q-59 -38 -152 -38q-62 0 -100.5 16.5t-38.5 46.5q0 20 28 40t57 20q12 0 31 -22t58 -22h18q27 0 31 1q14 4 14 29q0 10 -27.5 19.5t-70.5 19.5q-77 19 -101.5 39.5t-24.5 52.5q0 84 59 176q50 78 121 136q65 53 97 53q11 34 14.5 49t7.5 35.5t22.5 30.5
t35.5 10q21 0 33.5 -6t12.5 -21zM261 -11q0 -10 -25 -76q-14 -38 -23 -64q-4 -34 -6 -55t-17 -21q-27 0 -38.5 22t-11.5 62q0 62 10.5 92.5t42.5 59.5q11 10 21 14t24 4t18.5 -7t4.5 -19v-12z" />
    <glyph glyph-name="percent" unicode="%" horiz-adv-x="827" 
d="M816 212q0 -43 -86 -115q-97 -82 -193 -82q-65 0 -89.5 10.5t-24.5 39.5q-36 -19 -71 -56q-61 -65 -82 -65q-27 0 -41 22q-10 15 -10 32q0 28 70 131q44 64 89 129q34 50 64 98q38 60 63 108l-56 -38q-69 -47 -124 -72q-86 -39 -156 -39q-24 0 -51.5 36t-27.5 72
q0 70 82.5 151.5t151.5 81.5q53 0 79 -23q23 -20 23 -51q0 -24 -8 -48.5t-21 -42.5q71 37 107 55q66 33 84 33q15 0 25.5 -14t10.5 -28q0 -36 -43 -105q-9 -15 -90 -130q-44 -65 -59.5 -93t-20.5 -47q39 42 121 79q88 40 154 40q68 0 99 -19t31 -50zM704 185q-3 23 -23 23
q-5 0 -23 -2.5t-74.5 -35t-56.5 -50.5q0 -20 9 -25t29 -5q41 0 90 35.5t49 59.5zM345 540q3 17 -5 22t-24 5q-41 0 -91 -48t-50 -78q0 -14 17 -19.5t39 -5.5q42 0 78 46q32 40 36 78z" />
    <glyph glyph-name="ampersand" unicode="&#x26;" horiz-adv-x="681" 
d="M701 69q0 -24 -24.5 -35t-59.5 -11q-53 0 -108 39q-14 10 -64 56q-25 -30 -76 -60q-73 -43 -142 -43q-29 0 -56 19q-37 26 -37 75q0 47 27 96l78 110q-47 65 -86 119q-77 108 -77 137q0 26 22.5 38.5t50.5 12.5q53 0 158 -32q142 -43 142 -103q0 -31 -20 -62
q-3 -4 -93 -102q25 -29 38 -43q24 -26 54 -49q7 7 39 66q24 45 52 45q30 0 40 -18q6 -11 6 -38q0 -24 -26 -63q-6 -9 -33 -44q34 -29 65 -47q41 -23 74 -23q56 0 56 -40zM351 458q0 25 -51 43q-14 5 -109 30q31 -55 43 -77q23 -40 54 -80q7 8 29 27q34 30 34 57zM378 174
q-21 16 -43 37q-13 12 -41 40q-29 -35 -41 -51q-22 -29 -22 -59q0 -20 3.5 -26t17.5 -6q29 0 60 13q41 17 66 52z" />
    <glyph glyph-name="quotesingle" unicode="'" horiz-adv-x="272" 
d="M407 792q-2 -22 -91 -145.5t-104 -123.5q-8 1 -13.5 7.5t-7.5 17.5q17 30 40 68q31 51 46 81q12 24 23 48q15 33 15 61q0 23 18.5 34t40.5 11q15 0 24.5 -15.5t9.5 -33.5q0 -7 -1 -10z" />
    <glyph glyph-name="parenleft" unicode="(" horiz-adv-x="464" 
d="M454 641q-28 -47 -116 -168q-46 -63 -65 -95q-34 -56 -52.5 -113t-18.5 -107q0 -42 56.5 -88.5t115.5 -94.5q0 -29 -22 -43t-52 -14q-59 0 -117.5 70.5t-58.5 148.5q0 62 25 136q22 67 67 151q33 61 80 134q39 61 93 139q8 12 22 17.5t30 5.5q13 0 19 -8t6 -21
q0 -30 -12 -50z" />
    <glyph glyph-name="parenright" unicode=")" horiz-adv-x="464" 
d="M89 2q28 47 116 168q44 60 65 95q71 117 71 220q0 41 -54 86q-59 48 -118 97q0 29 22 43t52 14q59 0 117.5 -70.5t58.5 -148.5q0 -61 -24 -133t-68 -155q-34 -63 -80 -134q-32 -50 -93 -139q-9 -12 -22 -17.5t-30 -5.5q-13 0 -19 9t-6 21q0 30 12 50z" />
    <glyph glyph-name="asterisk" unicode="*" horiz-adv-x="599" 
d="M810 710q0 -25 -32 -25q-7 1 -13.5 1h-10.5q-13 0 -24 -0.5t-21 -0.5q-31 0 -123 -31q-53 -19 -106 -37q30 -12 61 -55.5t31 -82.5q0 -26 -15 -51q-18 -29 -44 -29q-23 0 -34.5 3t-17.5 18q-4 9 5.5 23t9.5 23q0 61 -57 93q-30 -53 -41 -75q-24 -46 -29 -68.5t-12 -30.5
q-11 -13 -40 -13q-15 0 -27.5 9.5t-12.5 23.5q0 34 42 99q14 21 42 59q-8 -7 -57.5 -23.5t-68.5 -16.5q-13 0 -26.5 17.5t-13.5 34.5q0 43 75 55t87 15q-30 23 -43.5 63.5t-13.5 87.5q0 25 16 40t33 15q26 0 36.5 -10.5t7.5 -31.5q-1 -6 -1 -13.5v-11.5q0 -32 7 -58.5
t23 -42.5q18 16 66 107q16 31 37 31q22 0 31 -8.5t9 -22.5q0 -16 -18 -51l-22 -42l106 34q66 20 115 27q5 1 15 1q27 0 48 -13t21 -36z" />
    <glyph glyph-name="plus" unicode="+" horiz-adv-x="752" 
d="M679 246q-75 -15 -148 -25t-165 -21q-3 -12 -3 -24q0 -14 4 -33t4 -23q0 -22 -18.5 -35.5t-40.5 -13.5t-34 28t-12 64q0 10 2 24q-26 -4 -65 -6t-55 -2q-19 0 -31.5 12.5t-9.5 29.5q7 34 72 46q43 8 129 8q38 69 73 128q19 32 40 67q6 11 18 19.5t25 8.5q6 0 9 -1
q13 -6 19.5 -16.5t6.5 -22.5q0 -14 -50 -97q-29 -48 -42 -82q54 0 128.5 4t151.5 9q20 0 22 -17q0 -13 -5 -19t-25 -10z" />
    <glyph glyph-name="comma" unicode="," horiz-adv-x="381" 
d="M260 61q-13 -32 -39 -67q-30 -41 -89 -99q-22 -23 -43.5 -46t-27.5 -23q-25 0 -25 25q0 9 23 36q18 21 27 35q19 30 32.5 70t13.5 79q0 33 26.5 53.5t62.5 20.5q20 0 32.5 -16.5t12.5 -40.5q0 -13 -6 -27z" />
    <glyph glyph-name="hyphen" unicode="-" horiz-adv-x="681" 
d="M594 169q0 -20 -14.5 -32t-29.5 -12l-106 2q-32 0 -136 -6l-66 -4q-24 0 -35 4q-18 7 -18 26q0 23 11.5 34.5t41.5 11.5l137 2q32 0 97 4.5t74 4.5q44 0 44 -35z" />
    <glyph glyph-name="period" unicode="." horiz-adv-x="363" 
d="M245 61q0 -24 -17.5 -38.5t-44.5 -14.5t-45 12.5t-18 35.5q0 29 16.5 52t43.5 23q65 0 65 -70z" />
    <glyph glyph-name="slash" unicode="/" horiz-adv-x="413" 
d="M569 840q0 -12 -46 -97q-51 -92 -101 -183q-67 -124 -100 -197l-171 -350q-6 -12 -6 -30q0 -9 1 -20.5t1 -13.5q0 -8 -1.5 -17t-12.5 -21.5t-20.5 -18t-20.5 -5.5q-17 2 -29 2q-17 0 -23 14t-6 38q0 11 63 126q33 61 119 212q66 116 68.5 123t43.5 96q26 57 86 183.5
t86 177.5q4 9 12 13t34 4q13 0 18 -9.5t5 -26.5z" />
    <glyph glyph-name="zero" unicode="0" horiz-adv-x="506" 
d="M488 407q0 -150 -117 -266q-108 -107 -219 -107t-111 147q0 35 68 125t147 159q90 79 140 79q56 0 77 -29q16 -22 16 -65q0 -11 -0.5 -22t-0.5 -21zM425 407q0 30 -2 40q-5 28 -23 28q-52 0 -116 -68q-51 -55 -95 -134q-39 -70 -39 -94q0 -30 7 -43.5t29 -13.5
q94 0 172 114q67 98 67 171z" />
    <glyph glyph-name="one" unicode="1" horiz-adv-x="361" 
d="M404 544q0 -28 -62 -138q-46 -79 -68 -118q-43 -75 -62 -113q-26 -53 -26 -74q0 -9 18 -14t18 -26q0 -18 -38 -41.5t-56 -23.5q-16 0 -28.5 11.5t-12.5 32.5q0 46 38 119q13 26 80 133q30 48 52 89q26 48 34 77l-27.5 -27.5t-31.5 -35.5q-32 -38 -53 -54q-33 -25 -62 -25
q-15 0 -37 10q-27 13 -27 28q-1 10 0.5 18t11 24t37.5 24q80 23 96 36q49 46 78 73q56 51 80 51q21 0 34.5 -9.5t13.5 -26.5z" />
    <glyph glyph-name="two" unicode="2" horiz-adv-x="456" 
d="M454 485q0 -59 -57 -149q-43 -67 -113 -147l-80 -86q22 -22 76 -29q30 -4 79 -4q34 0 44.5 -5.5t14.5 -19.5q5 -15 -17.5 -25.5t-61.5 -10.5q-74 0 -112 9t-69 40q-15 -10 -25 -14t-26 -4q-34 0 -54.5 12.5t-20.5 35.5q0 32 28 59t49 27q28 0 46 -4t25 -21q39 38 94 117
q62 90 73 139q2 7 -7.5 10t-26 6t-19.5 6q-10 8 -10 37q0 38 22 66q30 37 87 37q29 0 45 -26.5t16 -55.5zM144 105q-3 8 -9.5 10.5t-18.5 2.5q-18 0 -18 -16q0 -12 15 -12q6 0 15 5q3 1 16 10z" />
    <glyph glyph-name="three" unicode="3" horiz-adv-x="456" 
d="M414 437q0 -54 -20 -89q-16 -28 -52 -56q20 -16 25 -21q30 -31 30 -86q0 -82 -57 -125q-49 -37 -128 -37q-54 0 -101.5 24.5t-47.5 59.5q0 20 13.5 36.5t32.5 16.5q24 0 44.5 -8t20.5 -24t9.5 -27t34.5 -11t55 17q40 23 40 60q0 33 -6.5 42t-30.5 22q-23 -23 -58 -23
q-17 0 -27.5 16t-10.5 36q0 21 36 40q20 10 41 21q28 16 45.5 35t17.5 41q0 17 -9 29t-27 12q-19 0 -34 -9t-23 -7q-21 4 -27.5 13.5t-6.5 29.5q0 28 30.5 48t81.5 20q40 0 74.5 -30.5t34.5 -65.5z" />
    <glyph glyph-name="four" unicode="4" horiz-adv-x="498" 
d="M485 458q0 -17 -66 -92q-39 -44 -47 -61q35 -1 75 -2t40 -36q0 -28 -10.5 -38.5t-24.5 -10.5q-13 -1 -45 13q-18 8 -35 8q-20 0 -30 -2q-15 -83 -29 -165q-21 -85 -76 -85q-18 0 -26.5 14.5t-8.5 30.5q0 1 34 102q20 60 27 89q-38 -24 -70.5 -35.5t-70.5 -11.5
q-50 0 -67 30q-9 16 -9 44q0 76 60.5 185t95.5 109q37 0 37 -53q0 -10 -50.5 -93t-53.5 -98.5t-3 -21.5q0 -22 19 -22q33 0 77 17q31 12 62 25q17 48 48 101q20 34 53 80q19 28 53 28q6 -1 10 -1q31 -3 31 -48z" />
    <glyph glyph-name="five" unicode="5" horiz-adv-x="393" 
d="M668 491q0 -37 -72 -37q-25 0 -69 -6t-157 -28q-22 -4 -40 -17q-23 -17 -25 -38q-6 -60 -11.5 -125t-5.5 -114q0 -41 -31 -62.5t-78 -21.5q-76 0 -110 43q-23 29 -23 66q0 21 13.5 43t32.5 22q28 0 38 -46t32 -46q53 0 57.5 119t5.5 125q5 53 25.5 85t60.5 36
q77 9 119 13q128 13 171 13q67 0 67 -24z" />
    <glyph glyph-name="six" unicode="6" horiz-adv-x="467" 
d="M420 485q0 -17 -24 -39q-2 -2 -31 -26q-79 -69 -122 -119q-62 -72 -62 -112q0 -8 2 -16t6 -18q45 59 71 77q32 22 68 22q40 0 62 -21q26 -25 26 -65q0 -67 -66.5 -106t-166.5 -39q-48 0 -73 32.5t-25 82.5q0 42 40 109q32 55 92 127q42 51 98 109q37 40 67 40
q15 0 26.5 -10.5t11.5 -27.5zM323 147q2 6 -5 10t-17 4q-6 0 -11 -3q-19 -12 -29 -19q-17 -12 -22 -19h19q27 0 44 5t21 22z" />
    <glyph glyph-name="seven" unicode="7" horiz-adv-x="506" 
d="M529 248q0 -11 -9 -18t-22 -9q-86 -10 -99 -12q-52 -7 -94 -16q-10 -14 -22 -50.5t-12 -58.5q0 -44 -11.5 -55.5t-57.5 -11.5q-25 0 -36 13.5t-8 34.5q0 20 12 51q9 22 19 44q-33 -16 -49 -23q-30 -13 -52 -13q-29 0 -29 46q0 30 19 44q14 10 42 15q68 6 136 13
q46 57 88 121q51 78 51 103q0 18 -12 30t-28 12q-82 0 -151 -54.5t-97 -54.5q-18 0 -31 12q-17 16 -17 47q0 32 115.5 74.5t211.5 42.5q37 0 70 -21.5t33 -49.5q0 -32 -29 -84q-21 -37 -116 -168q5 -1 64 8q34 5 79 5q22 0 32 -2.5t10 -14.5z" />
    <glyph glyph-name="eight" unicode="8" horiz-adv-x="469" 
d="M527 494q0 -52 -86 -105q-102 -52 -130 -68q0 -54 36 -127t36 -96q0 -33 -46 -56.5t-105 -23.5q-67 0 -124 34q-67 40 -67 102q0 66 64 121q37 31 118 72q-7 32 -7 69q0 38 29.5 83.5t90.5 60.5q37 9 113 9q34 0 56 -21t22 -54zM435 479q1 7 -12 12t-26 5
q-31 0 -56.5 -14.5t-25.5 -38.5t2 -33q39 14 65 25q49 22 53 44zM275 118q0 28 -21 106q-13 43 -15 51q-37 -17 -69.5 -53.5t-32.5 -68.5q0 -34 14.5 -51.5t50.5 -17.5q29 0 47 6q26 9 26 28z" />
    <glyph glyph-name="nine" unicode="9" horiz-adv-x="455" 
d="M433 470q0 -34 -32.5 -105t-64.5 -140q-22 -49 -32 -75q-18 -48 -18 -74q0 -31 -23 -45q-17 -10 -47 -10q-18 0 -26.5 15t-8.5 40q0 21 24 67q37 71 53 113q-50 -29 -115 -29q-49 0 -74 34q-18 25 -18 60q0 67 65 133q49 49 127 91q62 33 80 33q53 0 81.5 -28.5
t28.5 -79.5zM342 440q0 22 -4 33.5t-17 11.5q-34 0 -107 -50q-82 -56 -82 -103q0 -16 14 -25t34 -9h11q21 2 83 54q68 57 68 88z" />
    <glyph glyph-name="colon" unicode=":" horiz-adv-x="455" 
d="M320 309q0 -28 -18.5 -43.5t-48.5 -15.5q-23 0 -39 19t-12 44q3 20 20.5 32.5t39.5 12.5q8 0 20 -2.5t25 -14.5t13 -32zM264 97q0 -28 -19.5 -43.5t-48.5 -15.5q-23 0 -38.5 19.5t-12.5 43.5q3 20 20.5 32.5t39.5 12.5q8 0 20.5 -2.5t25.5 -14.5t13 -32z" />
    <glyph glyph-name="semicolon" unicode=";" horiz-adv-x="413" 
d="M254 97q0 -32 -33 -75q-22 -29 -77 -84q-34 -35 -77.5 -67.5t-51.5 -32.5q-19 0 -19 13q0 19 19.5 30t47 44.5t51.5 77.5q28 48 38 96q11 42 39 42q24 0 43.5 -12t19.5 -32zM317 296q0 -28 -19.5 -45.5t-47.5 -17.5q-22 0 -38.5 21.5t-13.5 45.5q3 20 20.5 32.5
t38.5 12.5q10 0 22 -2.5t25 -14.5t13 -32z" />
    <glyph glyph-name="less" unicode="&#x3c;" horiz-adv-x="586" 
d="M80 239q0 9 108 79q71 46 111 76q36 26 103 101q42 46 83 46q26 0 43 -21t17 -47q0 -13 -71 -61q-36 -24 -145 -91q-84 -51 -115 -74q14 -7 62.5 -27.5t79.5 -36.5q79 -38 125 -68q56 -36 58 -52q1 -15 -8.5 -18t-17.5 -4q-7 -1 -44 13q-101 43 -163 69q-91 37 -120 50
q-106 47 -106 66z" />
    <glyph glyph-name="equal" unicode="=" horiz-adv-x="729" 
d="M602 345q0 -29 -32 -36q-15 -3 -36 -5t-33.5 -2.5t-21.5 -0.5q-15 0 -55 1t-63 1q-28 0 -100 -16q-36 -8 -60 -8q-28 0 -46 7q-24 10 -24 31q0 65 60 65q14 0 55 -5t59 -5q46 0 120 12.5t98 12.5q50 0 64.5 -12.5t14.5 -39.5zM622 182q0 -43 -51 -43q-14 0 -70.5 4
t-74.5 4q-52 0 -114 -17t-93 -17q-48 0 -72 8q-33 11 -33 38q0 22 35.5 36.5t78.5 14.5q66 0 151 5.5t175 11.5q30 0 49 -11t19 -34z" />
    <glyph glyph-name="greater" unicode="&#x3e;" horiz-adv-x="586" 
d="M601 302q0 -9 -74 -57q-114 -73 -148 -98t-101 -100q-42 -46 -83 -46q-25 0 -42.5 20.5t-17.5 47.5q0 13 71 61q36 24 145 91q84 51 115 74q-13 6 -45 20q-62 26 -97 44q-76 37 -124 68q-56 36 -58 52q-1 13 4 16t21 6q11 2 101 -36q53 -23 107 -46q87 -36 119 -50
q107 -47 107 -67z" />
    <glyph glyph-name="question" unicode="?" horiz-adv-x="562" 
d="M460 332q0 -37 -91 -67q-78 -26 -132 -26q-39 0 -63.5 16t-24.5 50q0 41 50 110q38 51 59 79q34 41 68 83q42 55 42 87q-13 -10 -26 -14.5t-46 -4.5q-52 0 -52 61q0 28 30.5 53.5t67.5 25.5q49 0 81.5 -28t32.5 -72q0 -53 -34 -109q-22 -36 -73 -91q-37 -40 -74 -79
q-36 -43 -36 -70q0 -9 12.5 -12t29.5 -3q19 0 69 27.5t72 27.5q21 0 29.5 -11.5t8.5 -32.5zM336 53q0 -25 -18 -41t-43 -16q-24 0 -41.5 17.5t-17.5 41.5t18 40t43 16t42 -17t17 -41z" />
    <glyph glyph-name="A" unicode="A" horiz-adv-x="477" 
d="M333 290q0 30 14 105q11 55 22 111q-16 -24 -49 -94q-23 -49 -61 -131q20 2 42.5 4t31.5 5zM211 210q9 -5 55 -37q32 -22 56 -28q9 30 12.5 51t5.5 36zM182 155q-18 -42 -34 -85.5t-25 -63.5q-12 -25 -29 -33.5t-49 -8.5q-17 0 -22.5 5.5t-5.5 16.5q0 8 1 14.5t2 12.5
q0 17 56 92q44 60 55 76q-15 9 -30 19q-18 8 -50 8q-36 0 -45 4q-16 7 -13 32q3 17 15.5 28.5t24.5 11.5q40 -6 78.5 -11t58.5 -5q16 0 24 1q14 24 82.5 157.5t97.5 182.5q51 88 70 88q22 0 22 -35q0 -16 -3 -40q-7 -59 -27 -161q-16 -81 -32 -161q39 9 85 21q27 7 41 7
q22 0 22 -16q0 -6 -1 -12.5t-29 -17.5q-13 -5 -122 -36q-5 -38 -7 -64.5t-2 -42.5q0 -10 1 -25t1 -22q0 -11 -1 -22.5t-5 -29.5q-9 -44 -24 -59q-10 -10 -32 -10q-25 0 -34 8t-9 24q0 5 1 16.5t1 17.5q0 7 -1 11q-9 40 -35 63q-13 12 -72 44z" />
    <glyph glyph-name="B" unicode="B" horiz-adv-x="468" 
d="M527 609q0 -44 -46.5 -95.5t-90.5 -100.5q-48 -66 -48 -140q0 -36 21 -91t44 -111q0 -39 -34 -62q-30 -20 -66 -20q-43 0 -122.5 20.5t-131.5 45.5q-16 8 -19 10q-7 6 -7 19q0 21 12 34t51 25q20 5 34 9q27 7 40 12l-56 90q-60 100 -92 168q-48 102 -48 153q0 72 57 113
q68 49 210 49q12 0 44.5 1t36.5 1q120 0 169 -37q42 -32 42 -93zM403 527q21 12 40 34.5t19 34.5q1 15 1 21q0 30 -34 40q-45 13 -198 13q-76 0 -139 -25t-63 -59q0 -69 63 -190q5 -10 108 -186q27 72 56 146q34 86 57 140q19 44 39 76q24 39 37 39q16 0 20.5 -5.5
t4.5 -21.5q0 -23 -11 -57zM292 166q-3 19 -5 38.5t-2 39.5q0 21 3 44q-5 -12 -10 -23q-8 -18 -10.5 -30t-6 -32.5t-5.5 -36.5h36zM314 84q0 12 -3 20.5t-12 21.5l-48 -5q0 -9 -2.5 -22t-2.5 -18q8 -5 22 -10t24 -5q13 0 17.5 2t4.5 16z" />
    <glyph glyph-name="C" unicode="C" horiz-adv-x="412" 
d="M485 185q0 -54 -122 -113q-93 -45 -212 -45q-83 0 -112 25q-35 30 -35 116q0 37 53 146q62 127 137 214q95 109 181 109q37 0 66 -28t29 -51q0 -63 -98 -124q-86 -54 -137 -54q-15 0 -20 3t-5 12q0 23 23 23q16 1 44 14t55.5 30.5t41 37t13.5 33.5q0 21 -22 21
q-67 0 -141 -81q-62 -68 -107.5 -164.5t-45.5 -146.5q3 -31 48 -36q18 -2 55 -2q89 0 166 27q64 30 128 61q9 0 13 -8.5t4 -18.5z" />
    <glyph glyph-name="D" unicode="D" horiz-adv-x="550" 
d="M260 124q0 29 30 99q11 26 64 135q41 85 53 115q-24 48 -66 84q-58 50 -123 50q-36 0 -58 -40t-36 -40q-24 0 -32 16t-8 49q0 30 37 62q41 35 89 35q96 0 167 -57q37 -30 66 -75q8 4 17 9t17 5q11 0 22 -11t11 -27q0 -33 -16 -63q20 -54 28 -91.5t8 -87.5
q0 -138 -116 -237q-105 -90 -227 -90q-99 0 -167 39t-68 88q0 20 8.5 33t24.5 13q17 0 26.5 -9.5t7.5 -27.5t53 -37t104 -19q108 0 194 64q92 69 92 165q0 34 -3.5 55t-15.5 52l-96 -252q-14 -30 -15 -31q-12 -17 -35 -17q-28 0 -32.5 13t-4.5 31z" />
    <glyph glyph-name="E" unicode="E" horiz-adv-x="468" 
d="M589 571q0 -28 -17 -39t-44 -11q-19 0 -37 3t-36 3q-14 -1 -94.5 -15.5t-124.5 -22.5q-29 -43 -53 -87q-20 -37 -37 -76q15 -3 27 -5t57 -2q61 0 107.5 5.5t91.5 11.5q13 0 17 -7.5t2 -21.5q0 -24 -116 -52q-98 -24 -218 -37q-10 -25 -15 -38q-16 -42 -16 -50
q0 -19 13 -24t35 -5q20 0 132 21.5t118 20.5q12 0 20.5 -4.5t6.5 -14.5q0 -11 -9 -19q-4 -3 -16 -10q-47 -27 -134 -53.5t-151 -26.5q-50 0 -69.5 21.5t-19.5 60.5q0 14 15 59q19 56 21 65q-10 2 -14.5 14.5t-4.5 31.5q0 9 3 25.5t24 28.5q26 11 36 15l51 122q-7 -1 -19 -1
q-25 0 -25 18t12 33.5t32 29.5q33 22 169.5 47.5t187.5 25.5q40 0 59 -5q33 -9 33 -35z" />
    <glyph glyph-name="F" unicode="F" 
d="M143 67q0 -33 -17 -49t-46 -16t-37.5 13.5t-8.5 38.5v11q0 30 25 100q22 62 44 100q-15 3 -21.5 12.5t-6.5 23.5q0 6 1.5 14.5t3 18t16.5 21.5q9 7 51 25l50 122q-7 -1 -19 -1q-25 0 -25 18t12 33.5t32 29.5q33 22 170 47.5t187 25.5q41 0 60 -5q33 -9 33 -35
q0 -28 -17.5 -39t-43.5 -11q-19 0 -37 3t-37 3q-15 -1 -95.5 -15.5t-122.5 -22.5q-29 -43 -53 -87q-20 -37 -37 -76q14 -3 26 -5t58 -2q61 0 107.5 5.5t91.5 11.5q15 0 17.5 -9.5t1.5 -19.5q0 -24 -121 -56q-108 -28 -221 -41q-13 -40 -19 -92q-1 -14 -1.5 -30t-0.5 -24v-41
z" />
    <glyph glyph-name="G" unicode="G" horiz-adv-x="488" 
d="M142 230q-55 -111 -47 -145q0 -27 30 -22q18 3 84 47q50 34 100 69q-10 -1 -18 -1.5t-14 -0.5q-21 0 -41.5 1t-39.5 2q-21 0 -37 19q-10 12 -17 31zM447 576q-47 0 -108 -59q-47 -46 -102 -126q-40 -58 -69 -112q4 -8 8 -15q8 -13 25 -13l177 9q11 9 14.5 18t11.5 9
q10 1 16 -5.5t12 -12.5q13 0 19 1q31 5 44 5q26 0 46 -15t20 -27q-2 -21 -4 -24q-5 -10 -32 -16t-64.5 -13t-59.5 -7l-168 -140q-82 -56 -136 -56q-25 0 -51.5 26.5t-26.5 51.5q0 43 31 114q28 63 89 164q56 93 96 148q58 80 110 124q62 52 116 52q41 0 70 -27
q26 -24 26 -48q0 -61 -98 -127q-88 -59 -136 -59q-16 0 -18.5 2t-3.5 12q0 21 18.5 23.5t48.5 17t55.5 32t38 36t12.5 33.5q0 24 -27 24z" />
    <glyph glyph-name="H" unicode="H" horiz-adv-x="489" 
d="M524 263q0 -25 -77 -46q-41 -11 -81 -22l-34 -136q-28 -78 -83 -78q-42 0 -42 36q0 18 7 27q14 14 24 27q22 28 35 54.5t24 65.5q-15 -4 -55.5 -6.5t-49.5 -3.5q-14 -90 -23 -115q-24 -68 -73 -68q-43 0 -43 58q0 16 19 49q29 51 34 63q-14 0 -48 -7.5t-46 -7.5
q-42 0 -42 42q0 19 8.5 41t26.5 22q37 0 52 -1q75 -5 81 -5q28 93 44 133q42 99 100 239q24 60 33 70q14 16 37 16q28 0 38 -10t10 -36q0 -22 -62 -118q-39 -60 -60 -103.5t-42 -97t-29 -91.5q7 -1 21 -1q15 0 33 2q45 5 63 5q16 38 52 117q11 25 58 129q34 76 39.5 91.5
t17 26t20.5 8.5q18 -3 22 -16.5t4 -40.5q0 -42 -61 -153q-43 -76 -86 -151q21 4 52.5 6t56.5 2t25 -16z" />
    <glyph glyph-name="I" unicode="I" horiz-adv-x="254" 
d="M340 624q0 -28 -19 -43.5t-46 -15.5q-21 0 -33.5 14.5t-12.5 35.5q-2 25 16 44t42 19q22 0 37.5 -17.5t15.5 -36.5zM265 462q0 -26 -37.5 -100t-73.5 -146q-41 -88 -45 -132q0 -42 -13 -60t-48 -18q-24 0 -32 19.5t-8 58.5q0 21 56 124q48 88 110.5 184.5t75.5 96.5
q15 0 15 -27z" />
    <glyph glyph-name="J" unicode="J" horiz-adv-x="399" 
d="M454 206q0 -19 -127 -57q-111 -33 -120 -36q-35 -68 -78 -174q-38 -93 -56 -122q-28 -46 -61 -46q-26 0 -48 79q-26 92 -26 226q0 55 101 80q5 1 134 27q13 54 66 187q33 81 57 147q7 18 7 35q0 16 -12 34t-12 30q0 7 3 16q8 23 31 50q31 36 60 36q18 0 23.5 -8.5
t5.5 -54.5q0 -27 -45 -146q-30 -80 -85 -212q-45 -108 -46 -108q60 10 91 14q98 15 109 15h17t11 -12zM135 99q-68 -18 -86 -31q-30 -21 -30 -70q0 -55 20 -90z" />
    <glyph glyph-name="K" unicode="K" horiz-adv-x="653" 
d="M756 126q0 -20 -82 -65q-90 -50 -159 -50q-125 0 -176 94q-36 67 -36 184q-26 -18 -53 -48q-31 -36 -75 -106t-59 -88q-32 -39 -61 -39q-13 0 -23.5 3.5t-19.5 13.5q-7 10 -7 29q0 16 4.5 34t13.5 35q78 196 127.5 298.5t78.5 102.5q44 0 44 -28q0 -23 -23 -50
q-18 -21 -23 -30q-37 -63 -52 -90q-26 -47 -48 -112q50 50 100 101q37 35 92 82q16 14 40 34q36 28 114 93q62 52 82 65q37 24 63 24q17 0 32.5 -7t15.5 -22q0 -26 -10 -43.5t-32 -20.5q-56 -11 -130 -65q-99 -72 -99 -154q0 -84 39.5 -150t97.5 -66q40 0 96 18l106 40
q22 0 22 -17z" />
    <glyph glyph-name="L" unicode="L" horiz-adv-x="405" 
d="M393 69q-96 -40 -120 -47q-71 -22 -151 -22q-49 0 -77 9q-47 15 -47 54q0 54 56 170q46 96 120 212q47 75 75 114q37 52 47 52q24 0 24 -24q0 -9 -1 -14q0 -7 -26 -50q-43 -70 -58 -97q-53 -92 -90 -169q-44 -91 -44 -120q0 -25 15.5 -33t44.5 -8h16.5t17.5 1q44 0 98 12
t110 25q7 0 14 -5.5t9 -19.5q4 -15 -3 -22.5t-30 -17.5z" />
    <glyph glyph-name="M" unicode="M" horiz-adv-x="672" 
d="M714 407q0 -30 -43 -83l-64 -76q-13 -19 -22.5 -45t-9.5 -56q0 -21 4.5 -47t4.5 -33q0 -38 -8 -50.5t-38 -12.5q-31 0 -43 27q-8 18 -8 53v24q0 34 24.5 96.5t57.5 100.5l-84 -40q-71 -28 -136 -28q-42 0 -82 38t-36 61q-34 -95 -68 -189q-51 -124 -98 -124q-20 0 -33 11
t-13 31q0 14 42 92q64 120 90 173q21 44 57.5 139t51.5 123q28 55 51 55q16 0 29 -10.5t13 -37.5q0 -20 -29.5 -92t-29.5 -91q0 -33 17 -61q21 -34 52 -34q49 0 104.5 17.5t93.5 41.5q31 25 48 37q51 37 67 37q21 0 29.5 -11.5t8.5 -35.5z" />
    <glyph glyph-name="N" unicode="N" horiz-adv-x="674" 
d="M852 603q0 -17 -51 -56q-32 -25 -48 -45q-41 -54 -88 -129q-37 -59 -76 -129q-33 -59 -66 -117.5t-51 -76.5q-32 -33 -74 -33q-45 0 -77 64t-32 140v30q0 31 2.5 49.5t14.5 58.5q-43 -37 -91 -133q-37 -76 -74 -151q-42 -73 -79 -73q-25 0 -31.5 10t-6.5 36q0 35 74 155
q53 86 138 206q73 103 74 103q5 4 41 37q26 24 34 24q17 0 24.5 -15t7.5 -35q0 -22 -35 -143q-16 -55 -16 -94q0 -40 9 -81q14 -62 42 -62q26 0 50 30q18 23 54 87q48 86 81 137q92 142 141 194q40 43 73 43q14 0 25 -7.5t11 -23.5z" />
    <glyph glyph-name="O" unicode="O" horiz-adv-x="467" 
d="M540 496q0 -187 -132 -334q-120 -134 -240 -134q-68 0 -109 30q-46 34 -46 97q0 41 64 139q57 88 133 175.5t107 102t48 14.5q13 0 20.5 -9.5t14.5 -17.5q6 2 21 11q29 17 52 17q8 0 21.5 -2t29.5 -29t16 -60zM485 462q0 12 -14.5 20.5t-26.5 8.5q-26 2 -82 -35
q-63 -42 -107 -99q-20 -26 -26 -86t-41 -60q-21 0 -24.5 37.5t-3.5 62.5q-35 -38 -46 -59q-18 -33 -18 -76q0 -29 36 -45q29 -13 62 -13q87 0 186 108q105 115 105 236z" />
    <glyph glyph-name="P" unicode="P" horiz-adv-x="432" 
d="M547 450q0 -98 -125 -175q-100 -62 -190 -71q-11 -26 -22 -55q-6 -16 -18 -52q-19 -59 -28 -73q-17 -26 -50 -26q-48 0 -48 40q0 25 35 85q30 52 55 81q-30 4 -43 12t-13 30q0 12 11.5 26t21.5 14h17h30q17 3 27 4q60 111 176 239q-20 9 -45.5 16t-46.5 7q-60 0 -120 -27
q-44 -20 -75 -48q-20 -19 -45 -19q-15 0 -19 8.5t-4 22.5q0 43 101.5 92t194.5 49q101 0 159 -43q64 -47 64 -137zM467 441q0 13 -15 30l-27 27q-75 -102 -149 -204q64 15 95 29q96 44 96 118z" />
    <glyph glyph-name="Q" unicode="Q" horiz-adv-x="544" 
d="M361 38q-33 0 -53.5 13.5t-36.5 51.5q-55 -44 -80 -55q-44 -19 -94 -19q-61 0 -82 28q-17 22 -17 80t65 165q20 33 74 114q65 99 101 136q61 63 121 63q50 0 93 -41q54 -51 54 -137q0 -56 -35 -119t-103 -131q0 -36 3.5 -52.5t17.5 -16.5q31 0 93.5 54.5t74.5 54.5
q11 0 20 -7t9 -18q0 -36 -74 -97q-81 -67 -151 -67zM439 445q0 40 -21 61t-50 21q-64 0 -117 -62q-39 -45 -81 -137q-10 -23 -15 -86.5t-23 -65.5q-15 0 -25 14q-10 19 -15 26q-7 -20 -11.5 -43.5t-4.5 -40.5q0 -31 40 -31q34 0 76 23t58 44q-8 21 -11 31q-6 18 -6 32
q0 20 20.5 38.5t51.5 18.5q23 0 42 -42q44 56 56 75q36 56 36 124z" />
    <glyph glyph-name="R" unicode="R" horiz-adv-x="462" 
d="M504 111q0 -23 -46 -39.5t-100 -16.5q-76 0 -137 40q-40 27 -89 84q-18 -54 -35 -107q-24 -51 -68 -51q-21 0 -25.5 17.5t-4.5 40.5q0 57 61 186q70 148 157 246q109 123 211 123q56 0 82 -37q19 -27 19 -66q0 -73 -82 -154q-91 -90 -220 -152q17 -37 66 -66t106 -29
q15 0 46.5 5.5t37.5 5.5q21 0 21 -30zM468 529q0 13 -7 17.5t-22 4.5q-9 0 -20 -1l-22 -2q-28 0 -101 -79q-80 -87 -113 -171q160 74 186 91q99 63 99 140z" />
    <glyph glyph-name="S" unicode="S" horiz-adv-x="401" 
d="M483 504q0 -28 -13 -49.5t-31 -21.5q-16 0 -30 8t-16 19q2 13 2 25q0 6 -6.5 11.5t-20.5 5.5q-52 0 -83.5 -56t-31.5 -125q0 -46 42 -143t42 -119q0 -25 -24 -42t-56 -17q-61 0 -146 53q-91 57 -91 107q0 17 11 25t27 8q14 0 84.5 -52.5t89.5 -52.5q11 0 11 7
q-22 60 -38 124q-19 73 -19 119q0 77 37 156q49 105 132 105q72 0 104 -31q24 -24 24 -64z" />
    <glyph glyph-name="T" unicode="T" horiz-adv-x="395" 
d="M187 40q-10 -26 -19 -33t-28 -7h-14q-28 0 -38 18q-6 11 -6 39v11q0 46 37 144q25 67 79 182l66 138q-35 -9 -65 -18.5t-72 -26.5q-15 -6 -35.5 -23t-32.5 -17q-37 0 -37 37q0 27 70 57q51 22 152.5 49.5t210.5 48.5t149 21q34 0 57 -9q32 -13 32 -38q0 -27 -17 -38
t-43 -11q-19 0 -35 7.5t-33 7.5q-23 0 -95.5 -8.5t-120.5 -17.5q-31 -59 -65 -159q-24 -72 -62 -203q-10 -35 -18 -82.5t-17 -68.5z" />
    <glyph glyph-name="U" unicode="U" horiz-adv-x="440" 
d="M573 485q0 -24 -33 -88q-37 -71 -91 -143q-76 -101 -154 -161q-96 -74 -182 -74q-73 0 -102 24q-24 20 -24 61q0 85 47 179q12 24 62.5 111.5t83.5 132.5q50 69 78 69q17 0 23.5 -2t6.5 -16q0 -10 -25 -49q-87 -134 -101 -159q-35 -64 -53 -107q-24 -59 -24 -104
q0 -35 24 -48q18 -10 55 -10q17 0 55 20q103 54 180 175q39 63 60 114q16 40 22 78.5t12 47.5q10 16 40 16q22 0 31 -20t9 -47z" />
    <glyph glyph-name="V" unicode="V" horiz-adv-x="440" 
d="M626 594q0 -15 -24 -33q-76 -58 -85 -70q-42 -56 -92 -134l-82 -134q-45 -72 -75 -112q-49 -62 -59 -72q-35 -34 -76 -34q-48 0 -66 46q-12 31 -12 86v26q0 112 37.5 244.5t78.5 132.5q16 0 20.5 -6.5t4.5 -22.5q-25 -77 -44 -162t-19 -162q0 -22 3.5 -41t11.5 -37
q41 32 94 95q63 75 134 185q93 143 141 194q40 43 73 43q13 0 24.5 -8t11.5 -24z" />
    <glyph glyph-name="W" unicode="W" horiz-adv-x="489" 
d="M397 200q44 65 82 162q30 76 37 118.5t13 51.5q10 16 40 16q22 0 31 -20t9 -47q0 -23 -40 -102.5t-88 -151.5q-95 -141 -117 -168q-69 -86 -118 -86q-42 0 -57 38q-10 25 -10 69q1 14 1 21q0 19 -14 19q-17 0 -57.5 -47.5t-62.5 -47.5q-29 0 -37.5 17t-8.5 53
q0 81 65.5 233.5t150.5 265.5q14 18 28.5 28t34.5 10q30 0 30 -52q0 -31 -40 -76l-44 -48q-45 -53 -84 -133q-42 -85 -53 -153q33 31 51 47q34 29 52 29q37 0 50 -28q9 -19 9 -63q0 -12 -3 -31q-7 -45 -7 -53q0 -25 18 -25q33 0 86 75q36 54 53 79z" />
    <glyph glyph-name="X" unicode="X" horiz-adv-x="437" 
d="M489 578q0 -22 -59 -97q-20 -26 -117 -139q-68 -80 -84 -107q-1 -10 -1 -16q0 -52 15 -92q21 -55 58 -55q27 0 51 14q24 16 49 32q15 0 20.5 -10t5.5 -28q0 -30 -49 -62.5t-111 -32.5q-46 0 -81 59q-27 47 -41 116q-5 -5 -60 -93q-41 -65 -70 -65q-20 0 -28 3
q-19 7 -19 31q0 47 103 145q39 36 78 73q0 20 12 103q17 114 36 185q27 99 57 99q20 0 31.5 -16.5t11.5 -37.5q0 -9 -1 -14q-12 -59 -33 -134q-7 -27 -21 -71q97 123 152 186q59 68 76 68q10 0 14.5 -12.5t4.5 -31.5z" />
    <glyph glyph-name="Y" unicode="Y" horiz-adv-x="410" 
d="M512 488q0 -30 -61 -93l-80 -78q-10 -10 -11 -41t-5 -37q-29 -37 -50 -63q-39 -48 -72 -86q-5 -6 -7 -12t-2 -12q0 -4 5 -30q2 -10 2 -21q0 -21 -23.5 -36t-52.5 -15q-24 0 -36 7t-12 33q0 25 35.5 81.5t111.5 145.5q-25 -9 -64 -19t-57 -10q-44 0 -62 11q-29 18 -29 68
q0 18 23 75q27 66 55 133q2 14 2 21q0 13 -3 37t-3 35q0 23 13.5 36.5t32.5 13.5q25 0 39.5 -10t14.5 -37q0 -15 -45 -135t-45 -150q0 -20 15 -26q8 -3 27 -3q54 0 133.5 89t159.5 183q26 0 40 -18q11 -15 11 -37z" />
    <glyph glyph-name="Z" unicode="Z" horiz-adv-x="520" 
d="M500 254q17 0 21 -4t4 -17q0 -16 -38 -24l-245 -60q-30 -27 -60 -53q-26 -27 -26 -51q0 -15 17.5 -24.5t42.5 -9.5q18 0 99 25q39 12 63 12q21 0 32.5 -7t11.5 -26q0 -31 -59 -54.5t-149 -23.5q-88 0 -128 35q-31 27 -31 74q0 14 21 45q2 3 19 26q-15 -8 -35 -17t-28 -9
q-28 0 -28 35q0 21 14.5 35t43.5 25q14 5 43 12q47 11 114 25q43 38 119 121q103 113 103 148l3 15t2 16q0 18 -8 28q-11 14 -36 14q-17 0 -64 -32q-41 -28 -60 -47q-23 -24 -57 -24q-35 0 -48 17q-9 12 -9 40q0 27 82 65q91 42 182 42q51 0 73 -34q19 -29 19 -84
q0 -40 -22.5 -79.5t-69 -90t-95.5 -102.5q30 3 91.5 10.5t75.5 7.5z" />
    <glyph glyph-name="bracketleft" unicode="[" horiz-adv-x="443" 
d="M527 684q3 -16 -11 -24.5t-37 -8.5q-13 0 -57 -5t-69 -5q-14 -42 -33.5 -106t-38.5 -126q-24 -79 -35 -113q-18 -58 -48 -171.5t-47 -179.5q19 0 58 1t62 1q27 0 42 -9.5t15 -19.5q0 -15 -13.5 -26.5t-33.5 -11.5q-24 0 -102.5 -2t-81.5 -2q-44 0 -44 30q0 4 2 12
q18 65 39 137q26 86 68 223q8 24 51 158q28 87 55 168t34 87q13 11 62.5 14.5t102.5 3.5h19q16 0 27.5 -6t13.5 -19z" />
    <glyph glyph-name="backslash" unicode="\" horiz-adv-x="553" 
d="M542 -59q0 -31 -7.5 -41.5t-22.5 -10.5q-6 0 -16 -1t-13 -1q-12 0 -20.5 4.5t-21.5 20.5q-7 8 -10 19t-3 20t1 20t1 13q0 5 -0.5 12t-5.5 17l-171 350q-38 85 -95 194q-44 85 -94 176q-22 39 -43 79q0 7 -1 16t-1 10q0 13 9.5 22.5t26.5 9.5q15 0 21 -11
q52 -102 131 -271t83 -181.5t69 -126.5q60 -106 121.5 -216t61.5 -123z" />
    <glyph glyph-name="bracketright" unicode="]" horiz-adv-x="411" 
d="M-37 -100q-3 16 10.5 27.5t34.5 11.5q15 0 47 2t69 2q14 41 34.5 98.5t42.5 119t44 127.5q31 92 61.5 184.5t48.5 165.5q-19 0 -66 -1t-70 -1q-26 0 -41 10t-15 20q0 15 13.5 26.5t32.5 11.5q23 0 102.5 2t82.5 2q44 0 44 -31q0 -3 -2 -11q-41 -152 -107 -360
q-8 -26 -51 -157q-39 -119 -47 -143q-19 -56 -36 -101q-7 -19 -23.5 -24t-45.5 -5l-122 -1q-16 0 -27.5 5.5t-13.5 19.5z" />
    <glyph glyph-name="asciicircum" unicode="^" horiz-adv-x="635" 
d="M671 715q0 -8 -17 -17q-9 -3 -16.5 -4t-23.5 -1q-79 0 -120 53q-12 15 -19 46q-3 13 -9 53q-27 -32 -31 -36q-21 -22 -47.5 -44t-36.5 -30q-32 -24 -57 -24q-12 0 -21 11t-9 26q0 29 59 65q37 21 88.5 59t75.5 54q12 8 33.5 14.5t32.5 6.5q27 0 27 -21q0 -12 -6 -23
q-10 -18 -11.5 -25t-4.5 -24t-3 -28q0 -27 15 -51.5t41 -31.5q60 -15 60 -28z" />
    <glyph glyph-name="underscore" unicode="_" horiz-adv-x="718" 
d="M685 -99q-1 -15 -67.5 -40t-84.5 -25q-29 0 -47 17t-87 17q-72 0 -116 -4q-121 -11 -128 -11q-39 0 -60.5 9.5t-19.5 26.5q0 26 17.5 33t58.5 7q41 -4 78.5 -6.5t67.5 -2.5q45 0 150 3.5t185 5.5q23 0 38 -5.5t15 -24.5z" />
    <glyph glyph-name="grave" unicode="`" horiz-adv-x="290" 
d="M447 785q-15 0 -71 37q-11 7 -54 37q-47 33 -64 47q-30 25 -30 41q0 13 8.5 24.5t21.5 11.5q7 0 37.5 -23t47.5 -34.5t74 -33.5q21 -8 32.5 -20t19.5 -33.5t8 -34.5q0 -19 -30 -19z" />
    <glyph glyph-name="a" unicode="a" horiz-adv-x="385" 
d="M463 116q0 -23 -55.5 -56.5t-92.5 -33.5q-61 0 -91 58q-25 -19 -38 -29q-45 -34 -115 -34q-38 0 -50 13t-12 43q0 55 72.5 116.5t140.5 61.5q42 0 63 -23t24 -54.5t7 -56.5t23 -25q17 0 44.5 12t57.5 25q22 0 22 -17zM206 156q0 16 -18 16q-24 0 -52 -21t-28 -41
q1 -7 9 -7.5t16 -0.5q18 0 45.5 18t27.5 36z" />
    <glyph glyph-name="b" unicode="b" horiz-adv-x="289" 
d="M132 107q2 8 2 13q0 12 -12 12q-35 -3 -46 -46q-2 -5 -3 -13t-1 -12q0 -17 10 -17q15 0 29 19.5t21 43.5zM378 620q-16 0 -65.5 -78t-73.5 -132q41 46 85 106q56 76 56 93q0 11 -2 11zM229 164h14q13 0 27 2.5t27 8.5t38 26q16 13 34 13q14 0 20.5 -11t6.5 -23
q0 -16 -29 -39t-73 -38q-33 -11 -54.5 -16t-48.5 -5q-28 -63 -47 -89q-34 -46 -77 -46q-28 0 -48 15q-23 18 -23 49q0 62 48 158q14 27 59 108q61 116 122 233q50 90 100 181q62 88 143 88q28 0 39 -17q8 -12 8 -37q0 -38 -52 -123q-46 -75 -120 -170q-54 -70 -137 -167
q13 -9 19.5 -30t6.5 -42q0 -18 -3 -29z" />
    <glyph glyph-name="c" unicode="c" horiz-adv-x="266" 
d="M356 176q0 -22 -93 -90q-103 -76 -168 -76q-41 0 -62.5 21.5t-21.5 50.5q0 71 64.5 152t115.5 81q28 0 37 -3q22 -7 22 -32q0 -49 -42 -49q-8 -1 -33 -22q-59 -50 -59 -89q0 -13 6 -16.5t26 -3.5q48 0 116 47l66 48h18q8 -2 8 -19z" />
    <glyph glyph-name="d" unicode="d" horiz-adv-x="528" 
d="M601 166q0 -26 -110 -97t-159 -71q-27 0 -43 26.5t-16 61.5q0 8 0.5 18.5t7.5 23.5q-37 -39 -107 -75t-109 -36q-34 0 -50.5 19.5t-16.5 43.5t20 53q17 25 56 64q49 51 91 79q52 35 91 35q31 0 51 -16q14 -12 29 -39q117 204 185 307q72 109 103 109q21 0 29.5 -10.5
t8.5 -37.5q0 -47 -58 -140q-37 -59 -124 -171q-105 -135 -108 -139q-9 -21 -12 -33t-5 -32q0 -15 2 -21t15 -6q19 0 75 35l124 78q19 0 24.5 -5.5t5.5 -23.5zM226 182q-5 15 -23 15q-26 0 -61.5 -28.5t-35.5 -44.5q0 -11 12 -11q24 0 51 16.5t57 52.5z" />
    <glyph glyph-name="e" unicode="e" horiz-adv-x="278" 
d="M375 126q0 -21 -111.5 -67t-158.5 -46q-36 0 -53.5 8t-32.5 28q-10 12 -12.5 23.5t-2.5 33.5q0 49 55 124q65 89 141 89q41 0 66 -24t25 -58q-1 -7 -1 -10q-4 -33 -63 -75t-105 -47q11 -21 44 -21q16 0 98 32.5t83 32.5q16 0 22 -3.5t6 -19.5zM193 231q-22 2 -40 -18
q-6 -6 -27 -41q31 0 56.5 14.5t25.5 27.5q0 17 -15 17z" />
    <glyph glyph-name="f" unicode="f" horiz-adv-x="392" 
d="M557 743q27 0 38 -17q8 -13 8 -37q0 -42 -61 -134q-50 -75 -139 -185q-41 -51 -145 -172q-15 -12 -31.5 -36t-16.5 -36q0 -31 34 -31q26 0 73 18q51 21 103 42q22 0 22 -21q0 -13 -4 -18t-22 -17q-57 -39 -78 -52q-61 -36 -99 -36q-26 0 -44 5.5t-26 16.5
q-4 -29 -30 -117q-33 -112 -67 -189q-44 -99 -76 -99q-17 0 -24.5 11.5t-7.5 28.5q0 30 23 91q19 50 68.5 153t110.5 222q-33 -23 -80.5 -49t-59.5 -26q-17 0 -17 21q0 17 76 67q41 27 117 71l119 244q31 64 62 129q38 74 71 107q45 45 103 45zM475 584q-15 0 -66 -80.5
t-73 -131.5q40 45 85 107q56 77 56 94q0 11 -2 11z" />
    <glyph glyph-name="g" unicode="g" horiz-adv-x="330" 
d="M332 93q7 5 14.5 9.5t11.5 4.5q6 1 12.5 -4.5t6.5 -14.5q1 -8 -2.5 -15t-16.5 -17q-27 -22 -61 -44q-47 -30 -75 -39q-25 -113 -60 -182q-47 -93 -104 -93q-30 0 -50 34t-17 68q0 83 50 140q34 39 84 60q-4 5 -7 7q-12 9 -37.5 13t-49.5 28t-24 53q8 75 66 143.5
t117 68.5q37 0 56 -18.5t19 -61.5q0 -37 -53 -80q-43 -35 -89 -54q9 -5 34 -9.5t37 -15.5q20 -19 23.5 -25.5t1.5 -16.5q54 28 63 33q35 19 50 28zM140 -55q-27 -15 -41 -29q-22 -22 -22 -48q0 -18 5 -30t10 -12q11 0 26 46q11 37 22 73zM177 218q0 11 -12 11
q-7 0 -17.5 -13.5t-20.5 -30.5q22 5 36 13t14 20z" />
    <glyph glyph-name="h" unicode="h" 
d="M147 416q40 75 81 150q50 86 89 125q53 52 111 52q28 0 39 -17q8 -12 8 -37q0 -41 -58 -129q-47 -71 -131 -174q-42 -51 -141 -167q-15 -24 -20 -36q-9 -22 -18 -46q49 60 91 90q35 25 60 25q49 0 49 -50q0 -15 -5 -30q-12 -36 -12 -44q0 -21 2.5 -28.5t14.5 -7.5
q21 0 106 73t91 73q9 0 16.5 -6.5t7.5 -16.5q0 -27 -92 -115q-102 -98 -169 -98q-37 0 -53 17q-12 13 -12 38t-2 35t-13 11q-15 2 -72 -45t-73 -47q-25 0 -31.5 16t-6.5 44q0 37 44 141q39 92 99 204zM338 584q-16 0 -67 -81q-47 -75 -71 -129q42 48 84 106q56 76 56 93
q0 11 -2 11z" />
    <glyph glyph-name="i" unicode="i" horiz-adv-x="195" 
d="M200 399q0 -33 -21 -51t-46 -18q-21 0 -34.5 19.5t-13.5 47.5q0 24 17 37t42 13q21 0 38.5 -15t17.5 -33zM2 54q0 45 18 106q23 79 56 79q16 0 22.5 -7.5t6.5 -19.5q0 -11 -4 -27q-12 -48 -12 -57q0 -21 2.5 -28.5t14.5 -7.5q19 0 56.5 27.5t75.5 55.5q11 -3 18 -8.5
t7 -14.5q0 -19 -65 -80q-75 -70 -131 -70q-26 0 -45.5 14t-19.5 38z" />
    <glyph glyph-name="j" unicode="j" horiz-adv-x="242" 
d="M242 392q0 -34 -21 -52t-46 -18q-21 0 -34.5 20t-13.5 48q0 24 17 37t42 13q21 0 38.5 -15t17.5 -33zM55 27q4 21 12.5 104.5t16.5 103.5t16 22t32 2q23 0 33 -16q7 -11 7 -26q0 -19 -28 -92q-18 -46 -22 -62q20 9 99 60q32 21 36 20q24 -7 24 -23q0 -10 -54 -47
q-49 -34 -120 -77q-4 -13 -12.5 -53t-16.5 -71q-28 -99 -54.5 -134.5t-74.5 -35.5q-31 0 -49.5 32.5t-18.5 70.5q0 100 72 163q27 23 102 59zM30 -50q-29 -18 -41 -30q-22 -22 -22 -48q-1 -15 -1 -21q0 -11 8 -11q15 0 27 24q4 9 29 86z" />
    <glyph glyph-name="k" unicode="k" 
d="M418 731q27 0 38 -17q8 -13 8 -38q0 -40 -61 -131q-48 -72 -123 -163q-4 -5 -93 -109q-19 -22 -29.5 -38.5t-20.5 -37.5l36 38q60 57 113 57q33 0 45 -16q9 -12 9 -41q0 -33 -41 -70q-37 -33 -72 -41q7 -18 26.5 -26t48.5 -8q28 0 77 37t100 76q9 0 16.5 -7.5t7.5 -15.5
q0 -26 -83 -96q-93 -78 -160 -78q-60 0 -80 27q-7 10 -16 53q-31 -26 -55 -42q-35 -23 -56 -23q-25 0 -31.5 16t-6.5 45q0 23 22 82q18 48 54 126q27 59 67 138q58 117 72 143q43 78 81 114q49 46 107 46zM328 571q-15 0 -66 -79.5t-73 -130.5q38 42 85 107q56 76 56 93
q0 10 -2 10z" />
    <glyph glyph-name="l" unicode="l" horiz-adv-x="223" 
d="M454 683q0 -43 -61 -135q-47 -71 -139 -184q-43 -53 -145 -172q-14 -37 -16 -43q-8 -23 -8 -33q0 -14 3.5 -17.5t16.5 -3.5q28 0 73.5 26.5t92.5 54.5q16 0 16 -24q0 -21 -67 -77q-77 -64 -140 -64q-40 0 -56.5 20t-16.5 54q0 35 33 119q39 98 124 264q18 36 37 72
q44 79 89 128q63 69 117 69q28 0 39 -17q8 -12 8 -37zM317 578q-16 0 -67 -81q-47 -75 -71 -129q42 48 84 106q56 76 56 93q0 11 -2 11z" />
    <glyph glyph-name="m" unicode="m" horiz-adv-x="760" 
d="M784 109q-66 -56 -74 -62q-45 -31 -90 -31q-44 0 -64 24q-15 18 -15 47q3 21 3 26q-38 -31 -70 -51q-61 -38 -121 -38q-43 0 -62 24q-15 19 -15 53q0 9 2 25q-19 -12 -69 -53q-79 -65 -114 -65q-27 0 -41 24q-18 30 -18 102v26t1 25q0 29 6.5 41t25.5 19t25 9t20 2
q19 0 20.5 -65.5t5.5 -83.5q100 89 144 116t85 27q18 0 26.5 -14t8.5 -32q0 -6 -6 -33t-6 -41q0 -23 19 -23q23 2 96 61t95 59q14 0 30 -8t16 -24q0 -18 -7 -40t-7 -27q0 -22 14 -22q21 0 63.5 23t86.5 47q9 0 14.5 -5t5.5 -13q-1 -12 -10.5 -24.5t-23.5 -24.5z" />
    <glyph glyph-name="n" unicode="n" horiz-adv-x="465" 
d="M521 105q0 -21 -47 -60q-55 -46 -110 -46q-45 0 -60 27q-8 15 -8 50v13q0 12 -1.5 17t-9.5 5q-10 0 -34.5 -13.5t-50.5 -32.5q-50 -35 -51 -35q-33 -19 -63 -19q-29 0 -44 16t-15 40q0 26 14 94q1 3 13 58q4 21 19.5 30t37.5 9q24 0 32.5 -12t8.5 -37q-11 -53 -15 -79
v-28q16 0 34.5 12t36.5 25q30 18 60 37q38 21 62 21q30 0 45.5 -13.5t15.5 -34.5q0 -6 -4 -19q-9 -29 -9 -33q0 -13 3 -17t16 -4q25 0 52 16q26 18 53 36q19 0 19 -23z" />
    <glyph glyph-name="o" unicode="o" horiz-adv-x="339" 
d="M403 159q0 -20 -22 -30.5t-51 -10.5q-18 0 -35 5.5t-32 17.5q-42 -56 -83 -111q-51 -49 -99 -49q-28 0 -54 21q-30 25 -30 61q0 73 84 147q72 63 111 63q59 0 81 -24q16 -17 16 -52q10 -8 25.5 -13t26.5 -5q9 0 27 3t23 3q12 0 12 -26zM194 139q0 26 -10 29
q-20 5 -56.5 -32.5t-36.5 -53.5q0 -8 4.5 -16.5t12.5 -8.5q27 0 56.5 30.5t29.5 51.5z" />
    <glyph glyph-name="p" unicode="p" horiz-adv-x="349" 
d="M352 19q-26 0 -56 5t-47 10q-18 -14 -28 -20q-25 -14 -73 -14q-18 0 -36 6.5t-37 18.5q-23 -69 -32 -141q-12 -88 -18 -115t-30 -45t-38 -18q-15 0 -22 17.5t-7 32.5q0 42 28 127q3 8 54 149q31 84 33 111q-18 4 -28 9q-15 8 -15 17q0 3 5 10q36 41 59 65q43 46 53 46
q9 0 13 -8q3 -12 5 -19q19 25 39 50q30 31 62 31q35 0 58 -33q20 -29 20 -69q0 -49 -6 -75.5t-23 -67.5q17 -4 27 -5q36 -6 57 -6q20 0 20 -26q0 -15 -11 -29t-26 -14zM228 225q0 10 -7.5 17.5t-17.5 7.5q-16 0 -24 -23q-7 -28 -10 -38q17 -4 24 -8q18 -10 24 -32
q3 15 7 38.5t4 37.5zM182 90l-12 18q-12 16 -18 16q-23 0 -23 -19q0 -8 8.5 -14.5t20.5 -6.5q11 -1 24 6z" />
    <glyph glyph-name="q" unicode="q" horiz-adv-x="377" 
d="M360 290q0 -55 -15 -78q-20 -18 -27 -27q9 -17 13 -32.5t4 -36.5q0 -36 -29 -80.5t-58 -88.5q-22 -37 -31 -63q-14 -40 -14 -87q0 -26 -30.5 -62.5t-60.5 -36.5q-14 0 -23 11.5t-9 21.5q0 26 25 84q19 43 54 111q23 45 46 89.5t31 64.5q-34 -34 -53 -48q-46 -34 -90 -34
q-53 0 -77 21t-24 69q0 63 108 170q113 112 189 112q45 0 61 -28q10 -17 10 -52zM279 242q1 12 1 18q0 17 -12 17q-35 0 -113 -76q-74 -72 -74 -90q0 -29 19 -29q31 0 105 69t74 91z" />
    <glyph glyph-name="r" unicode="r" horiz-adv-x="271" 
d="M345 261q0 -32 -15.5 -46t-45.5 -14q-16 0 -27 11t-31 11q-25 0 -49 -22q-17 -15 -34 -42q-9 -15 -14.5 -34t-5.5 -50v-26q0 -23 -18.5 -38t-44.5 -15q-27 0 -32.5 9.5t-5.5 29.5q0 10 12.5 51t12.5 52q0 32 -4 53q-9 47 -9 59q0 14 18.5 26t32.5 12q17 0 33.5 -15.5
t16.5 -35.5q13 28 50.5 47t70.5 19q34 0 61.5 -10.5t27.5 -31.5z" />
    <glyph glyph-name="s" unicode="s" horiz-adv-x="298" 
d="M273 78q0 -47 -51 -72q-39 -19 -92 -19q-62 0 -85 18q-18 14 -18 43q0 21 8.5 30.5t21.5 9.5q8 1 21 -7q35 -22 46 -23.5t20 -1.5q11 0 18 5t7 17q0 6 -56 40t-56 75q0 52 56 81q48 25 111 25q44 0 65 -21q18 -18 18 -49q0 -20 -12 -42q-15 -27 -39 -27t-31 12
q-5 8 2 18.5t16 22.5q0 9 -6.5 13.5t-17.5 4.5q-31 0 -45.5 -6.5t-17.5 -31.5q0 -9 58.5 -47.5t58.5 -67.5z" />
    <glyph glyph-name="t" unicode="t" horiz-adv-x="234" 
d="M347 267q-71 -13 -187 -28q-26 -55 -36 -88q-20 -64 -20 -130q0 -24 -8.5 -30t-37.5 -6q-36 0 -36 47q0 27 -1 102.5t-1 112.5q0 14 5 24.5t14 13.5q16 6 40.5 11t36.5 7q48 124 86 198q68 131 117 137q32 5 32 -23q0 -37 -95 -194l-66 -108q36 0 87 1t106 3q23 0 23 -19
q0 -10 -12.5 -18t-46.5 -13z" />
    <glyph glyph-name="u" unicode="u" horiz-adv-x="452" 
d="M327 -11q-50 0 -70.5 25t-20.5 68q-42 -27 -87 -54.5t-82 -27.5q-29 0 -46.5 17.5t-17.5 44.5q0 4 2 16q8 36 33.5 85.5t51.5 99.5q8 14 26.5 28t29.5 11q12 -4 16.5 -15t4.5 -29t-25 -74t-25 -70q0 -11 12 -11q24 0 98 51.5t100 51.5q19 0 25 -9t6 -35q0 -10 -14 -40
t-14 -40q0 -12 9 -13q16 -3 48 6l78 24q10 -2 10 -19q0 -20 -57.5 -55.5t-90.5 -35.5z" />
    <glyph glyph-name="v" unicode="v" horiz-adv-x="291" 
d="M326 265q35 -10 35 -36q0 -16 -7 -24t-30 -8q-22 0 -43.5 8t-41.5 16q0 -10 -12.5 -42t-31.5 -70q-30 -59 -56 -89q-35 -41 -70 -41q-37 0 -52 17.5t-15 71.5q0 45 33 124q38 92 74 92q43 0 43 -47q0 -18 -27.5 -63t-27.5 -56q0 -19 16 -19q20 0 36 38q6 11 10.5 27.5
t6 27t1.5 18.5q0 7 -1 13t-2.5 16t-1.5 18q0 12 4 24q10 32 48 32q21 0 43 -12q62 -34 69 -36z" />
    <glyph glyph-name="w" unicode="w" horiz-adv-x="433" 
d="M260 -40q-28 0 -50 9t-35.5 22.5t-22 33t-11.5 42.5q-19 -24 -48.5 -42.5t-58.5 -18.5q-19 0 -29 20.5t-10 42.5q0 21 102 230q63 129 87.5 167t44.5 38q13 0 22 -10t9 -21q0 -5 -19 -42q-1 -2 -83 -154q-16 -30 -47 -89q-23 -44 -27 -57q-1 -4 -0.5 -7t2.5 -6
q17 0 28 12t19 32q17 39 18 40q12 19 34 19q25 0 38.5 -12.5t13.5 -46.5q0 -6 -15 -37q-8 -17 -8 -28q0 -23 7 -41q4 -14 13 -23t23 -9q36 0 76.5 33.5t40.5 71.5q0 28 -36 55t-36 49q0 13 11.5 22.5t28.5 9.5q28 0 63 -6t52 -6q16 0 24 -3t8 -18q0 -17 -15.5 -23t-42.5 -9
q7 -8 10 -14q11 -20 11 -40q0 -10 -1.5 -20t-11.5 -27q-28 -47 -82 -91q-59 -48 -97 -48z" />
    <glyph glyph-name="x" unicode="x" horiz-adv-x="317" 
d="M251 -15q-29 0 -52 10q-2 1 -82 51q-14 -15 -27 -29q-19 -16 -46 -16q-17 0 -27 12t-10 29q0 19 19 42q6 7 36 36q-12 31 -18 50q-10 32 -10 51q0 30 11 46q18 26 65 26q14 0 30 -45q7 -19 12 -43q52 61 89 94q65 58 107 58q24 0 37 -11.5t13 -24.5q0 -18 -30 -37
q-35 -20 -69 -40q-33 -23 -67.5 -57.5t-51.5 -60.5q26 -37 46 -53q24 -20 59 -29q9 -2 24.5 1.5t19.5 3.5q11 0 14 -9q8 -22 -19.5 -38.5t-72.5 -16.5z" />
    <glyph glyph-name="y" unicode="y" horiz-adv-x="382" 
d="M425 105q0 -16 -29 -33q-50 -29 -82 -58q-7 -52 -17 -97q-22 -105 -49 -167q-38 -89 -83 -89q-37 0 -59.5 41.5t-22.5 88.5q0 51 35.5 103t115.5 121l9 65q-51 -48 -87.5 -73t-70.5 -25q-41 0 -62 22q-16 17 -16 38q0 58 61 152t103 94q15 0 20 -8.5t5 -22.5
q0 -15 -45 -91t-45 -84v-12q2 -6 18 -6q23 0 103 95t118 95q25 0 25 -21q0 -27 -13 -62q-19 -45 -37 -89q20 15 41 31q28 20 45 20q14 0 16.5 -5t2.5 -23zM236 -40q-32 -23 -57 -58t-25 -61q0 -15 5 -28t17 -13q20 0 36 45.5t24 114.5z" />
    <glyph glyph-name="z" unicode="z" horiz-adv-x="328" 
d="M354 75q0 -25 -36.5 -49.5t-71.5 -24.5q-15 0 -40 4q-56 9 -77 9q-17 0 -46 -6t-44 -6q-27 0 -34 14t-7 45q0 25 14 37t34 12q7 0 17 -1t19 -4q54 52 69 68q36 39 36 59q0 13 -10 17.5t-30 4.5q-13 2 -48 -18q-17 -10 -31 -10q-21 0 -21 26q0 29 32 49t77 20q52 0 81 -18
t29 -58q0 -37 -46 -93q-18 -22 -68 -72q8 0 44 -8t49 -8q23 0 44.5 11.5t43.5 24.5q6 0 11 -4q10 -8 10 -21z" />
    <glyph glyph-name="braceleft" unicode="{" horiz-adv-x="359" 
d="M481 662q0 -14 -12 -31.5t-28 -17.5q-51 0 -78.5 -3t-37 -18.5t-38.5 -83.5t-52 -111q-16 -31 -25.5 -38t-28.5 -10q25 -5 38 -13t13 -24q0 -6 -1 -10q-14 -50 -24 -84t-22.5 -68.5t-22.5 -64.5q-15 -48 -15 -79q0 -12 12 -15.5t36 -3.5q9 0 19 0.5t21 0.5q25 0 38 -6.5
t13 -23.5q0 -29 -25.5 -36.5t-100.5 -7.5q-56 0 -75 21q-14 15 -14 52q0 15 25 98q13 44 22 77q4 16 21 57q14 33 14 52q2 15 -17.5 21t-47.5 6q-17 0 -24 10.5t-7 56.5q0 14 21 33.5t40 19.5q11 0 21 -1l20 -2q19 0 26 11q54 114 109 228q28 32 61.5 43t79.5 11
q16 0 31 -13t15 -33z" />
    <glyph glyph-name="bar" unicode="|" horiz-adv-x="344" 
d="M214 777q24 0 36.5 -8.5t12.5 -39.5q0 -8 -14 -153q-7 -72 -7 -124q0 -86 -4 -163q-9 -173 -9 -207q0 -26 3 -60q7 -79 7 -110q0 -42 -12.5 -61t-31.5 -19t-28 23t-9 46q0 92 6.5 260.5t13.5 333.5t7 236q0 46 29 46z" />
    <glyph glyph-name="braceright" unicode="}" horiz-adv-x="359" 
d="M-40 -40q0 15 12 31.5t28 16.5q13 0 26 -0.5t25 -0.5q20 0 30 2.5t16 11.5q18 28 50 110l36 92q10 25 41 48t60 27q-25 5 -43 23t-18 40q0 32 15 70q4 9 20 46q24 53 34 80q15 41 15 65q0 13 -15 15.5t-30 2.5q-11 0 -22 -0.5t-22 -0.5q-23 0 -29 6t-6 25q-2 26 19.5 35
t91.5 9q56 0 75 -21q13 -14 13 -52q0 -17 -26 -81q-21 -53 -26 -66q-13 -38 -26 -75q-6 -20 -6 -33v-15q0 -12 5 -18t20 -6q24 0 41.5 -12t17.5 -33q0 -23 -14 -45.5t-39 -26.5t-54.5 -16.5t-35.5 -26.5q-21 -61 -41 -122q-24 -67 -51 -98t-61.5 -42t-79.5 -11q-16 0 -31 13
t-15 33z" />
    <glyph glyph-name="asciitilde" unicode="~" horiz-adv-x="635" 
d="M681 600q0 -12 -36.5 -35t-90.5 -44q-49 -22 -82.5 -31.5t-53.5 -9.5q-56 0 -59.5 31.5t-4.5 50.5q-2 12 -13 12q-12 0 -23.5 -15t-25.5 -42q-7 -16 -15.5 -33.5t-24.5 -17.5q-31 0 -45.5 12t-14.5 30q0 14 12.5 35t40.5 44q74 58 121 58q44 0 62 -43q14 -42 27 -42
q21 0 107 26q28 9 61.5 21.5t38.5 12.5q19 0 19 -20z" />
    <glyph glyph-name="c128" horiz-adv-x="498" 
d="M616 656q33 0 59.5 -16t26.5 -43q0 -26 -22 -37q-17 -8 -45 -8q-17 0 -40 12t-42 12q-23 0 -65.5 -4t-77.5 -10l-35 -61q-16 -31 -31 -66q-28 -67 -45 -96q33 4 92 4h16q44 0 72 -40q23 -33 23 -70q0 -65 -32 -131.5t-73 -100.5q-76 -63 -122 -92q-84 -53 -144 -53
q-49 0 -78 13q-36 16 -36 51q0 22 10.5 35.5t26.5 13.5q11 0 61 -10q30 -6 47 -6q45 0 99 31q40 23 70 54q48 50 69 80q31 44 31 77q0 24 -13 44q-20 31 -63 31q-24 0 -54.5 -7t-59.5 -18q-28 -78 -55 -133q-46 -93 -76 -93q-47 0 -47 40q0 25 43 101q36 64 64 99
q-27 4 -39 12.5t-12 28.5q0 12 11.5 26t21.5 14h16q18 0 53 4q12 23 45.5 93t52.5 111q-34 -6 -58.5 -12t-50.5 -17q-4 -1 -43 -20q-19 -9 -32 -7q-40 4 -35 43q4 25 87 52q67 21 175 40q13 22 21 32q12 14 24 14q1 0 10 -3.5t14 -10t3 -20.5q59 8 105.5 12.5t76.5 4.5z" />
    <glyph glyph-name="c128" unicode="&#x402;" horiz-adv-x="498" 
d="M616 656q33 0 59.5 -16t26.5 -43q0 -26 -22 -37q-17 -8 -45 -8q-17 0 -40 12t-42 12q-23 0 -65.5 -4t-77.5 -10l-35 -61q-16 -31 -31 -66q-28 -67 -45 -96q33 4 92 4h16q44 0 72 -40q23 -33 23 -70q0 -65 -32 -131.5t-73 -100.5q-76 -63 -122 -92q-84 -53 -144 -53
q-49 0 -78 13q-36 16 -36 51q0 22 10.5 35.5t26.5 13.5q11 0 61 -10q30 -6 47 -6q45 0 99 31q40 23 70 54q48 50 69 80q31 44 31 77q0 24 -13 44q-20 31 -63 31q-24 0 -54.5 -7t-59.5 -18q-28 -78 -55 -133q-46 -93 -76 -93q-47 0 -47 40q0 25 43 101q36 64 64 99
q-27 4 -39 12.5t-12 28.5q0 12 11.5 26t21.5 14h16q18 0 53 4q12 23 45.5 93t52.5 111q-34 -6 -58.5 -12t-50.5 -17q-4 -1 -43 -20q-19 -9 -32 -7q-40 4 -35 43q4 25 87 52q67 21 175 40q13 22 21 32q12 14 24 14q1 0 10 -3.5t14 -10t3 -20.5q59 8 105.5 12.5t76.5 4.5z" />
    <glyph glyph-name="c129" 
d="M573 605q0 -28 -20 -42q-16 -11 -43 -11q-14 0 -34.5 3.5t-38.5 3.5q-15 -1 -79 -15q-49 -10 -62 -13q-31 -44 -52 -87.5t-43.5 -104t-32.5 -94.5q-13 -44 -19 -96q-2 -16 -3 -42.5t-1 -39.5q0 -36 -17.5 -51.5t-47.5 -15.5t-41 17q-7 11 -7 37v11q0 30 35 130
q30 85 74 188q12 28 27 61q20 43 26 56q-6 -1 -16 -1q-27 0 -27 20t12 35t33 30q34 23 133.5 43t149.5 20q40 0 61 -6q33 -10 33 -36zM563 866q-47 -18 -93 -52q-41 -31 -54.5 -53t-30 -34t-40.5 -12q-15 0 -26.5 12.5t-11.5 26.5q0 15 20 36q15 15 44 36q49 34 104.5 57
t97.5 23q13 0 26.5 -5t13.5 -14q0 -7 -19 -11.5t-31 -9.5z" />
    <glyph glyph-name="c129" unicode="&#x403;" 
d="M573 605q0 -28 -20 -42q-16 -11 -43 -11q-14 0 -34.5 3.5t-38.5 3.5q-15 -1 -79 -15q-49 -10 -62 -13q-31 -44 -52 -87.5t-43.5 -104t-32.5 -94.5q-13 -44 -19 -96q-2 -16 -3 -42.5t-1 -39.5q0 -36 -17.5 -51.5t-47.5 -15.5t-41 17q-7 11 -7 37v11q0 30 35 130
q30 85 74 188q12 28 27 61q20 43 26 56q-6 -1 -16 -1q-27 0 -27 20t12 35t33 30q34 23 133.5 43t149.5 20q40 0 61 -6q33 -10 33 -36zM563 866q-47 -18 -93 -52q-41 -31 -54.5 -53t-30 -34t-40.5 -12q-15 0 -26.5 12.5t-11.5 26.5q0 15 20 36q15 15 44 36q49 34 104.5 57
t97.5 23q13 0 26.5 -5t13.5 -14q0 -7 -19 -11.5t-31 -9.5z" />
    <glyph glyph-name="c141" horiz-adv-x="653" 
d="M758 126q0 -20 -82 -66q-92 -52 -161 -52q-125 0 -180 98q-41 73 -41 188q-30 -32 -61 -75q-25 -35 -57 -86q-40 -63 -44 -69q-41 -58 -77 -58q-12 0 -24.5 4t-21.5 14q-6 9 -6 28q0 38 18 72q13 25 73 165q66 154 99 225q55 117 76 134q12 9 23 9q15 0 26 -12t11 -24
q0 -25 -25 -68q-12 -21 -24 -41q-27 -50 -56 -114q-38 -84 -75 -168q45 47 90 95q50 48 85 79q14 12 34 29q37 29 114 93q57 48 84 65q37 24 62 24q17 0 33.5 -8t16.5 -23v-12q0 -25 -6 -36q-10 -17 -40 -26q-77 -36 -145 -78q-53 -33 -101 -71q0 -96 33 -168
q41 -89 122 -104q16 -2 24 -2q38 0 87 18l92 40q24 0 24 -19zM665 833q-47 -18 -93 -52q-41 -31 -54.5 -53t-30 -34t-40.5 -12q-15 0 -26.5 12.5t-11.5 26.5q0 15 20 36q15 15 44 36q49 34 104.5 57t97.5 23q13 0 26.5 -5t13.5 -14q0 -7 -19 -11.5t-31 -9.5z" />
    <glyph glyph-name="c141" unicode="&#x40c;" horiz-adv-x="653" 
d="M758 126q0 -20 -82 -66q-92 -52 -161 -52q-125 0 -180 98q-41 73 -41 188q-30 -32 -61 -75q-25 -35 -57 -86q-40 -63 -44 -69q-41 -58 -77 -58q-12 0 -24.5 4t-21.5 14q-6 9 -6 28q0 38 18 72q13 25 73 165q66 154 99 225q55 117 76 134q12 9 23 9q15 0 26 -12t11 -24
q0 -25 -25 -68q-12 -21 -24 -41q-27 -50 -56 -114q-38 -84 -75 -168q45 47 90 95q50 48 85 79q14 12 34 29q37 29 114 93q57 48 84 65q37 24 62 24q17 0 33.5 -8t16.5 -23v-12q0 -25 -6 -36q-10 -17 -40 -26q-77 -36 -145 -78q-53 -33 -101 -71q0 -96 33 -168
q41 -89 122 -104q16 -2 24 -2q38 0 87 18l92 40q24 0 24 -19zM665 833q-47 -18 -93 -52q-41 -31 -54.5 -53t-30 -34t-40.5 -12q-15 0 -26.5 12.5t-11.5 26.5q0 15 20 36q15 15 44 36q49 34 104.5 57t97.5 23q13 0 26.5 -5t13.5 -14q0 -7 -19 -11.5t-31 -9.5z" />
    <glyph glyph-name="c142" horiz-adv-x="498" 
d="M366 -33q-25 0 -33.5 13.5t-8.5 49.5q0 17 51 80t51 86q1 10 1 15q0 26 -8 40q-12 22 -42 22q-10 1 -14 1q-23 0 -52 -5q-13 -2 -53 -11q-26 -73 -65 -151q-56 -112 -86 -112q-47 0 -47 40q0 24 63 138q43 77 47 86q-27 4 -39 12.5t-12 28.5q0 12 11.5 26t21.5 14h16
q18 0 53 4q12 23 45.5 93t52.5 111q-34 -6 -58.5 -12t-50.5 -17q-4 -1 -43 -20q-19 -9 -32 -7q-40 4 -35 43q4 25 87 52q67 21 175 40q13 22 21 32q12 14 24 14q1 0 10 -3.5t14 -10t3 -20.5q59 8 105.5 12.5t76.5 4.5q33 0 59.5 -16t26.5 -43q0 -26 -22 -37q-17 -8 -45 -8
q-17 0 -40 12t-42 12q-23 0 -65.5 -4t-77.5 -10l-35 -61q-16 -31 -31 -66q-28 -67 -45 -96q33 4 92 4h16q44 0 72 -40q23 -33 23 -70q0 -50 -13 -91q-16 -51 -66 -124q-12 -18 -23 -36q-12 -15 -34 -15z" />
    <glyph glyph-name="c142" unicode="&#x40b;" horiz-adv-x="498" 
d="M366 -33q-25 0 -33.5 13.5t-8.5 49.5q0 17 51 80t51 86q1 10 1 15q0 26 -8 40q-12 22 -42 22q-10 1 -14 1q-23 0 -52 -5q-13 -2 -53 -11q-26 -73 -65 -151q-56 -112 -86 -112q-47 0 -47 40q0 24 63 138q43 77 47 86q-27 4 -39 12.5t-12 28.5q0 12 11.5 26t21.5 14h16
q18 0 53 4q12 23 45.5 93t52.5 111q-34 -6 -58.5 -12t-50.5 -17q-4 -1 -43 -20q-19 -9 -32 -7q-40 4 -35 43q4 25 87 52q67 21 175 40q13 22 21 32q12 14 24 14q1 0 10 -3.5t14 -10t3 -20.5q59 8 105.5 12.5t76.5 4.5q33 0 59.5 -16t26.5 -43q0 -26 -22 -37q-17 -8 -45 -8
q-17 0 -40 12t-42 12q-23 0 -65.5 -4t-77.5 -10l-35 -61q-16 -31 -31 -66q-28 -67 -45 -96q33 4 92 4h16q44 0 72 -40q23 -33 23 -70q0 -50 -13 -91q-16 -51 -66 -124q-12 -18 -23 -36q-12 -15 -34 -15z" />
    <glyph glyph-name="c143" horiz-adv-x="391" 
d="M168 -180q0 -34 -8.5 -54.5t-27.5 -20.5q-28 0 -45.5 14.5t-17.5 45.5q0 48 12 95q1 4 33 106q-53 5 -77 29.5t-24 86.5q0 24 41 127.5t91 198.5q50 106 69 144q33 64 62 64q20 0 28.5 -13.5t8.5 -38.5q0 -14 -34 -68q-104 -164 -109 -174q-42 -84 -62 -135
q-24 -61 -24 -95q0 -23 25.5 -31t70.5 -8q21 0 40 4.5t36 8.5q-4 6 -4 17q0 21 23 98.5t54.5 150t50.5 111.5q32 65 58 100q32 43 58 43q21 0 26 -9t5 -31q0 -18 -30 -66q-99 -160 -117 -198q-13 -28 -60 -145q-21 -52 -29 -67q23 4 32 6t24 2h16q3 -2 3 -18
q0 -15 -65.5 -50.5t-123.5 -43.5q-10 -35 -13 -58.5t-3 -44.5q0 -19 3.5 -46t3.5 -37z" />
    <glyph glyph-name="c143" unicode="&#x40f;" horiz-adv-x="391" 
d="M168 -180q0 -34 -8.5 -54.5t-27.5 -20.5q-28 0 -45.5 14.5t-17.5 45.5q0 48 12 95q1 4 33 106q-53 5 -77 29.5t-24 86.5q0 24 41 127.5t91 198.5q50 106 69 144q33 64 62 64q20 0 28.5 -13.5t8.5 -38.5q0 -14 -34 -68q-104 -164 -109 -174q-42 -84 -62 -135
q-24 -61 -24 -95q0 -23 25.5 -31t70.5 -8q21 0 40 4.5t36 8.5q-4 6 -4 17q0 21 23 98.5t54.5 150t50.5 111.5q32 65 58 100q32 43 58 43q21 0 26 -9t5 -31q0 -18 -30 -66q-99 -160 -117 -198q-13 -28 -60 -145q-21 -52 -29 -67q23 4 32 6t24 2h16q3 -2 3 -18
q0 -15 -65.5 -50.5t-123.5 -43.5q-10 -35 -13 -58.5t-3 -44.5q0 -19 3.5 -46t3.5 -37z" />
    <glyph glyph-name="c144" 
d="M168 -77q-24 -15 -57 -53q-39 -45 -39 -70q-1 -15 -1 -21q0 -11 8 -11q20 0 51 62q23 47 38 93zM170 457q73 123 126 195q68 92 97 92q17 0 23 -8t6 -23q0 -10 -1 -22t-1 -13q0 -30 -27 -80q-21 -38 -66 -100q48 10 96.5 15.5t75.5 5.5q34 0 57 -9q32 -13 32 -38
q0 -27 -17 -38t-43 -11q-19 0 -35 7.5t-33 7.5q-25 0 -95 -10t-116 -23q-10 -15 -39 -61q-16 -26 -39 -53q-13 -21 -36 -69t-36 -81q32 40 75 72q51 39 84 39q23 0 39 -26q13 -21 13 -36q0 -35 -8 -61q-13 -33 -20 -57q35 31 114 86.5t90 55.5q9 0 16.5 -6.5t7.5 -16.5
q0 -16 -86 -87q-72 -60 -166 -128q-29 -64 -48 -107q-22 -49 -27 -69q-28 -99 -54.5 -134.5t-74.5 -35.5q-31 0 -49.5 32.5t-18.5 70.5q0 79 54 148q58 74 153 119q9 30 9 58q0 19 -4 31.5t-11 13.5q-15 2 -72 -45t-73 -47q-25 0 -31.5 16t-6.5 44q0 33 38 125q35 86 87 185
q-47 -14 -59 -18q-24 -8 -48 -17q-15 -6 -35.5 -23t-32.5 -17q-37 0 -37 37q0 27 70 57q51 22 163 51z" />
    <glyph glyph-name="c144" unicode="&#x452;" 
d="M168 -77q-24 -15 -57 -53q-39 -45 -39 -70q-1 -15 -1 -21q0 -11 8 -11q20 0 51 62q23 47 38 93zM170 457q73 123 126 195q68 92 97 92q17 0 23 -8t6 -23q0 -10 -1 -22t-1 -13q0 -30 -27 -80q-21 -38 -66 -100q48 10 96.5 15.5t75.5 5.5q34 0 57 -9q32 -13 32 -38
q0 -27 -17 -38t-43 -11q-19 0 -35 7.5t-33 7.5q-25 0 -95 -10t-116 -23q-10 -15 -39 -61q-16 -26 -39 -53q-13 -21 -36 -69t-36 -81q32 40 75 72q51 39 84 39q23 0 39 -26q13 -21 13 -36q0 -35 -8 -61q-13 -33 -20 -57q35 31 114 86.5t90 55.5q9 0 16.5 -6.5t7.5 -16.5
q0 -16 -86 -87q-72 -60 -166 -128q-29 -64 -48 -107q-22 -49 -27 -69q-28 -99 -54.5 -134.5t-74.5 -35.5q-31 0 -49.5 32.5t-18.5 70.5q0 79 54 148q58 74 153 119q9 30 9 58q0 19 -4 31.5t-11 13.5q-15 2 -72 -45t-73 -47q-25 0 -31.5 16t-6.5 44q0 33 38 125q35 86 87 185
q-47 -14 -59 -18q-24 -8 -48 -17q-15 -6 -35.5 -23t-32.5 -17q-37 0 -37 37q0 27 70 57q51 22 163 51z" />
    <glyph glyph-name="c157" horiz-adv-x="403" 
d="M503 180q0 -26 -83 -96q-93 -78 -160 -78q-50 0 -76 34q-16 21 -24 61q-39 -37 -61 -57q-42 -38 -61 -38q-21 0 -27.5 12.5t-6.5 35.5v13q0 25 46.5 144t69.5 119q26 0 33 -9t7 -29q0 -13 -38 -100l-30 -68q94 91 154 146q66 60 98 60q26 0 34 -13.5t8 -41.5
q0 -35 -84 -74q-59 -27 -88 -52q12 -28 25 -43q20 -24 47 -24q40 0 93 38q50 41 100 83q9 0 16.5 -7.5t7.5 -15.5zM473 554q-47 -18 -93 -52q-41 -31 -54.5 -53t-30 -34t-40.5 -12q-15 0 -26.5 12.5t-11.5 26.5q0 15 20 36q15 15 44 36q49 34 104.5 57t97.5 23q13 0 26.5 -5
t13.5 -14q0 -7 -19 -11.5t-31 -9.5z" />
    <glyph glyph-name="c157" unicode="&#x45c;" horiz-adv-x="403" 
d="M503 180q0 -26 -83 -96q-93 -78 -160 -78q-50 0 -76 34q-16 21 -24 61q-39 -37 -61 -57q-42 -38 -61 -38q-21 0 -27.5 12.5t-6.5 35.5v13q0 25 46.5 144t69.5 119q26 0 33 -9t7 -29q0 -13 -38 -100l-30 -68q94 91 154 146q66 60 98 60q26 0 34 -13.5t8 -41.5
q0 -35 -84 -74q-59 -27 -88 -52q12 -28 25 -43q20 -24 47 -24q40 0 93 38q50 41 100 83q9 0 16.5 -7.5t7.5 -15.5zM473 554q-47 -18 -93 -52q-41 -31 -54.5 -53t-30 -34t-40.5 -12q-15 0 -26.5 12.5t-11.5 26.5q0 15 20 36q15 15 44 36q49 34 104.5 57t97.5 23q13 0 26.5 -5
t13.5 -14q0 -7 -19 -11.5t-31 -9.5z" />
    <glyph glyph-name="c158" horiz-adv-x="461" 
d="M183 104q-14 0 -69.5 -46.5t-71.5 -46.5q-25 0 -31.5 16t-6.5 44q0 33 38 125q35 86 87 185q-47 -14 -59 -18q-24 -8 -48 -17q-15 -6 -35.5 -23t-32.5 -17q-37 0 -37 37q0 27 70 57q51 22 163 51l20 6q73 123 126 195q68 92 97 92q17 0 23 -8t6 -23q0 -10 -1 -22t-1 -13
q0 -30 -27 -80q-21 -38 -66 -100q48 10 96.5 15.5t75.5 5.5q34 0 57 -9q32 -13 32 -38q0 -27 -17 -38t-43 -11q-19 0 -35 7.5t-33 7.5q-25 0 -95 -10t-116 -23q-10 -15 -39 -61q-16 -26 -39 -53q-13 -21 -36 -69t-36 -81q32 40 75 72q51 39 84 39q49 0 49 -50q0 -15 -5 -30
q-12 -36 -12 -44q0 -36 18 -36q19 0 81 30q69 34 139 68q9 0 16.5 -6.5t7.5 -16.5q0 -17 -111 -88q-118 -76 -171 -76q-38 0 -53 15t-15 39q0 20 -4 33.5t-15 13.5z" />
    <glyph glyph-name="c158" unicode="&#x45b;" horiz-adv-x="461" 
d="M183 104q-14 0 -69.5 -46.5t-71.5 -46.5q-25 0 -31.5 16t-6.5 44q0 33 38 125q35 86 87 185q-47 -14 -59 -18q-24 -8 -48 -17q-15 -6 -35.5 -23t-32.5 -17q-37 0 -37 37q0 27 70 57q51 22 163 51l20 6q73 123 126 195q68 92 97 92q17 0 23 -8t6 -23q0 -10 -1 -22t-1 -13
q0 -30 -27 -80q-21 -38 -66 -100q48 10 96.5 15.5t75.5 5.5q34 0 57 -9q32 -13 32 -38q0 -27 -17 -38t-43 -11q-19 0 -35 7.5t-33 7.5q-25 0 -95 -10t-116 -23q-10 -15 -39 -61q-16 -26 -39 -53q-13 -21 -36 -69t-36 -81q32 40 75 72q51 39 84 39q49 0 49 -50q0 -15 -5 -30
q-12 -36 -12 -44q0 -36 18 -36q19 0 81 30q69 34 139 68q9 0 16.5 -6.5t7.5 -16.5q0 -17 -111 -88q-118 -76 -171 -76q-38 0 -53 15t-15 39q0 20 -4 33.5t-15 13.5z" />
    <glyph glyph-name="nonbreakingspace" unicode="&#xa0;" horiz-adv-x="254" 
d="M403 755q-11 -17 -21 -41t-10 -41t-23 -17q-10 0 -16 4q-12 8 -12 25q0 8 2.5 17t9.5 28q-21 -14 -28 -17q-20 -10 -38 -10q-21 0 -33 8q-16 11 -16 33q0 37 22 81q28 55 53 55q17 0 17 -15q0 -5 -4 -14.5t-11 -22.5q-19 -44 -19 -53q0 -12 12 -12q15 0 63.5 37.5
t69.5 37.5q18 0 18 -20q0 -11 -16 -34q-12 -17 -20 -29z" />
    <glyph glyph-name="exclamdown" unicode="&#xa1;" horiz-adv-x="499" 
d="M599 622q0 -43 -33.5 -101t-107.5 -142q-54 -159 -123 -254q-87 -121 -186 -121q-72 0 -120 26.5t-48 61.5q0 21 15.5 41t37.5 20q15 0 27.5 -7t29.5 -23q23 -20 67 -20q67 0 133 69q59 62 92 150q-44 -53 -70 -73q-34 -26 -76 -26q-40 0 -64.5 24.5t-24.5 69.5
q0 28 21 77q54 126 54.5 129t0.5 11q0 12 -3 28q-8 43 -8 54q1 9 1 13q2 19 18 34t34 15q26 0 39 -8.5t13 -36.5q0 -26 -39.5 -143.5t-39.5 -142.5q0 -14 9 -21t21 -7q18 0 63.5 31t71.5 62q47 141 58 167q41 92 84 92q30 0 41.5 -13t11.5 -36zM701 888q0 -12 -31 -36
q-35 -28 -80 -47t-77.5 -27.5t-49.5 -8.5q-52 0 -82 20q-35 25 -35 61q0 4 3.5 22t22.5 33t45 15q41 0 58 -40q7 -21 11 -29t11 -8q15 0 39 5t53.5 17t45.5 19q42 19 49 19q17 0 17 -15z" />
    <glyph glyph-name="exclamdown" unicode="&#x40e;" horiz-adv-x="499" 
d="M599 622q0 -43 -33.5 -101t-107.5 -142q-54 -159 -123 -254q-87 -121 -186 -121q-72 0 -120 26.5t-48 61.5q0 21 15.5 41t37.5 20q15 0 27.5 -7t29.5 -23q23 -20 67 -20q67 0 133 69q59 62 92 150q-44 -53 -70 -73q-34 -26 -76 -26q-40 0 -64.5 24.5t-24.5 69.5
q0 28 21 77q54 126 54.5 129t0.5 11q0 12 -3 28q-8 43 -8 54q1 9 1 13q2 19 18 34t34 15q26 0 39 -8.5t13 -36.5q0 -26 -39.5 -143.5t-39.5 -142.5q0 -14 9 -21t21 -7q18 0 63.5 31t71.5 62q47 141 58 167q41 92 84 92q30 0 41.5 -13t11.5 -36zM701 888q0 -12 -31 -36
q-35 -28 -80 -47t-77.5 -27.5t-49.5 -8.5q-52 0 -82 20q-35 25 -35 61q0 4 3.5 22t22.5 33t45 15q41 0 58 -40q7 -21 11 -29t11 -8q15 0 39 5t53.5 17t45.5 19q42 19 49 19q17 0 17 -15z" />
    <glyph glyph-name="cent" unicode="&#xa2;" horiz-adv-x="439" 
d="M520 171q0 -12 -80 -75q-73 -58 -121 -89q-36 -132 -73 -214q-71 -157 -146 -157q-45 0 -72 25q-31 29 -31 88q0 47 100 152q92 96 159 137q9 24 14.5 39.5t18.5 44.5q-70 -61 -121 -94.5t-85 -33.5q-41 0 -56 20q-10 13 -10 37q0 56 46 147t74 91q34 0 34 -18
q0 -16 -35.5 -87t-35.5 -103q0 -17 24 -17q22 0 71 51.5t97 101.5q56 54 85 54q24 0 24 -21q0 -27 -14 -68q-19 -51 -37 -101q7 5 84 65q54 42 67 42q19 0 19 -17zM244 -24q-48 -45 -95 -91q-66 -70 -66 -112q0 -11 11 -21t26 -10q20 0 55.5 69.5t68.5 164.5zM545 504
q0 -12 -31 -36q-35 -28 -80 -47t-77.5 -27.5t-49.5 -8.5q-52 0 -82 20q-35 25 -35 61q0 4 3.5 22t22.5 33t45 15q41 0 58 -40q7 -21 11 -29t11 -8q15 0 39 5t53.5 17t45.5 19q42 19 49 19q17 0 17 -15z" />
    <glyph glyph-name="cent" unicode="&#x45e;" horiz-adv-x="439" 
d="M520 171q0 -12 -80 -75q-73 -58 -121 -89q-36 -132 -73 -214q-71 -157 -146 -157q-45 0 -72 25q-31 29 -31 88q0 47 100 152q92 96 159 137q9 24 14.5 39.5t18.5 44.5q-70 -61 -121 -94.5t-85 -33.5q-41 0 -56 20q-10 13 -10 37q0 56 46 147t74 91q34 0 34 -18
q0 -16 -35.5 -87t-35.5 -103q0 -17 24 -17q22 0 71 51.5t97 101.5q56 54 85 54q24 0 24 -21q0 -27 -14 -68q-19 -51 -37 -101q7 5 84 65q54 42 67 42q19 0 19 -17zM244 -24q-48 -45 -95 -91q-66 -70 -66 -112q0 -11 11 -21t26 -10q20 0 55.5 69.5t68.5 164.5zM545 504
q0 -12 -31 -36q-35 -28 -80 -47t-77.5 -27.5t-49.5 -8.5q-52 0 -82 20q-35 25 -35 61q0 4 3.5 22t22.5 33t45 15q41 0 58 -40q7 -21 11 -29t11 -8q15 0 39 5t53.5 17t45.5 19q42 19 49 19q17 0 17 -15z" />
    <glyph glyph-name="sterling" unicode="&#xa3;" horiz-adv-x="399" 
d="M454 206q0 -19 -127 -57q-111 -33 -120 -36q-35 -68 -78 -174q-38 -93 -56 -122q-28 -46 -61 -46q-26 0 -48 79q-26 92 -26 226q0 55 101 80q5 1 134 27q13 54 66 187q33 81 57 147q7 18 7 35q0 16 -12 34t-12 30q0 7 3 16q8 23 31 50q31 36 60 36q18 0 23.5 -8.5
t5.5 -54.5q0 -27 -45 -146q-30 -80 -85 -212q-45 -108 -46 -108q60 10 91 14q98 15 109 15h17t11 -12zM135 99q-68 -18 -86 -31q-30 -21 -30 -70q0 -55 20 -90z" />
    <glyph glyph-name="sterling" unicode="&#x408;" horiz-adv-x="399" 
d="M454 206q0 -19 -127 -57q-111 -33 -120 -36q-35 -68 -78 -174q-38 -93 -56 -122q-28 -46 -61 -46q-26 0 -48 79q-26 92 -26 226q0 55 101 80q5 1 134 27q13 54 66 187q33 81 57 147q7 18 7 35q0 16 -12 34t-12 30q0 7 3 16q8 23 31 50q31 36 60 36q18 0 23.5 -8.5
t5.5 -54.5q0 -27 -45 -146q-30 -80 -85 -212q-45 -108 -46 -108q60 10 91 14q98 15 109 15h17t11 -12zM135 99q-68 -18 -86 -31q-30 -21 -30 -70q0 -55 20 -90z" />
    <glyph glyph-name="yen" unicode="&#xa5;" 
d="M568 624q5 -10 5 -19q0 -28 -20 -42q-16 -11 -43 -11l-63 3q-43 0 -70 -6q-75 -17 -81 -18q-31 -44 -52 -87.5t-43.5 -104t-32.5 -94.5q-13 -44 -19 -96q-2 -16 -3 -42.5t-1 -39.5q0 -36 -17.5 -51.5t-47.5 -15.5t-41 17q-7 11 -7 37v11q0 30 35 130q30 85 74 188
q12 28 27 61q20 43 26 56q-6 -1 -16 -1q-27 0 -27 20t12 35t33 30q34 23 133.5 43t149.5 20h30l19 32q12 20 22.5 46t15.5 49q11 42 39 42q22 2 42.5 -10.5t20.5 -33.5q0 -29 -30 -70q-22 -30 -70 -78z" />
    <glyph glyph-name="yen" unicode="&#x490;" 
d="M568 624q5 -10 5 -19q0 -28 -20 -42q-16 -11 -43 -11l-63 3q-43 0 -70 -6q-75 -17 -81 -18q-31 -44 -52 -87.5t-43.5 -104t-32.5 -94.5q-13 -44 -19 -96q-2 -16 -3 -42.5t-1 -39.5q0 -36 -17.5 -51.5t-47.5 -15.5t-41 17q-7 11 -7 37v11q0 30 35 130q30 85 74 188
q12 28 27 61q20 43 26 56q-6 -1 -16 -1q-27 0 -27 20t12 35t33 30q34 23 133.5 43t149.5 20h30l19 32q12 20 22.5 46t15.5 49q11 42 39 42q22 2 42.5 -10.5t20.5 -33.5q0 -29 -30 -70q-22 -30 -70 -78z" />
    <glyph glyph-name="brokenbar" unicode="&#xa6;" horiz-adv-x="344" 
d="M229 239v-157q0 -26 3 -60q7 -79 7 -110q0 -42 -12.5 -61t-31.5 -19t-28 23t-9 46q0 37 4 161t4 177q0 12 5 18.5t21 6.5q7 -1 10 -1q11 -3 19 -9t8 -15zM210 336q-22 0 -26.5 16.5t-4.5 52.5q0 90 1.5 160.5t4.5 165.5q0 46 29 46q24 0 36.5 -8.5t12.5 -39.5
q0 -4 -16 -196q-8 -96 -8 -140q0 -20 -7 -38.5t-22 -18.5z" />
    <glyph glyph-name="section" unicode="&#xa7;" horiz-adv-x="363" 
d="M327 327q36 -49 49 -79q17 -38 17 -83q0 -54 -44 -84q-25 -17 -67 -27q-10 -2 -26 -2q-25 0 -46.5 2t-32.5 6q29 -38 43 -59q44 -66 44 -97q0 -57 -59 -89q-46 -25 -97 -25q-66 0 -99 38q-25 29 -25 66q1 7 1 10q5 20 9 28q10 20 27 20q25 0 39 -11q7 -6 16 -21
q10 -20 16 -27q11 -13 28 -13q20 0 36 8t19 22.5t3 21.5q0 13 -4.5 24.5t-19.5 27.5q-50 56 -73 95q-36 63 -36 131q0 64 67 100q48 26 89 26q25 0 34 -10t9 -28q0 -13 -2 -27.5t-16 -19.5t-43 -5q-26 0 -41.5 -9.5t-22.5 -39.5q-1 -4 -1 -13q0 -30 21 -50q25 -24 69 -24
q35 0 61.5 17t32.5 44q1 5 1 16q0 38 -48 127t-48 118q0 54 44 114q56 77 140 77q72 0 104 -31q24 -24 24 -64q0 -28 -13 -49.5t-31 -21.5q-16 0 -30 8t-16 19q2 13 2 25q0 6 -6.5 11.5t-20.5 5.5q-41 0 -81.5 -26.5t-40.5 -64.5q0 -21 12 -49.5t33 -58.5z" />
    <glyph glyph-name="dieresis" unicode="&#xa8;" horiz-adv-x="468" 
d="M591 571q0 -28 -18.5 -40t-44.5 -12q-19 0 -37 3t-36 3q-23 -2 -97 -15q-58 -10 -120 -23q-27 -39 -52 -85q-21 -39 -37 -74q14 -3 25.5 -5t55.5 -2q61 0 107.5 5.5t91.5 11.5q26 0 21 -31q0 -24 -116 -53q-101 -25 -217 -38q-3 -7 -17.5 -43t-14.5 -43q0 -17 13.5 -22
t32.5 -5q20 0 132 21.5t118 20.5q12 0 21 -5.5t9 -15.5q0 -11 -10 -20q-13 -9 -17 -12q-49 -28 -135 -53.5t-151 -25.5q-52 0 -71.5 22t-19.5 62q0 15 14 58q10 32 21 64q-9 4 -13.5 18t-4.5 32q0 7 3.5 24.5t23.5 29.5q26 11 36 15q11 27 25 61q11 26 25 57q-6 -1 -16 -1
q-13 0 -20.5 4.5t-7.5 15.5q2 20 13.5 35t32.5 30q33 23 169.5 48t188.5 25q39 0 60 -6q34 -10 34 -36zM503 801q-15 -23 -25 -47q-14 -33 -14 -55q0 -14 -5.5 -18t-23.5 -4q-15 0 -24.5 10.5t-9.5 26.5q0 11 6 31q3 10 9 25q-20 -13 -36 -21q-27 -13 -47 -13q-23 0 -40 11
q-21 14 -21 40q0 27 6.5 50t20.5 52q34 68 67 68q21 0 21 -19q0 -7 -6 -20q-9 -17 -13 -26q-7 -17 -14 -33q-10 -23 -10 -33q0 -15 15 -15q18 0 80 48q31 23 54 34.5t34 11.5q21 0 21 -25q0 -14 -18.5 -40.5t-26.5 -38.5z" />
    <glyph glyph-name="dieresis" unicode="&#x401;" horiz-adv-x="468" 
d="M591 571q0 -28 -18.5 -40t-44.5 -12q-19 0 -37 3t-36 3q-23 -2 -97 -15q-58 -10 -120 -23q-27 -39 -52 -85q-21 -39 -37 -74q14 -3 25.5 -5t55.5 -2q61 0 107.5 5.5t91.5 11.5q26 0 21 -31q0 -24 -116 -53q-101 -25 -217 -38q-3 -7 -17.5 -43t-14.5 -43q0 -17 13.5 -22
t32.5 -5q20 0 132 21.5t118 20.5q12 0 21 -5.5t9 -15.5q0 -11 -10 -20q-13 -9 -17 -12q-49 -28 -135 -53.5t-151 -25.5q-52 0 -71.5 22t-19.5 62q0 15 14 58q10 32 21 64q-9 4 -13.5 18t-4.5 32q0 7 3.5 24.5t23.5 29.5q26 11 36 15q11 27 25 61q11 26 25 57q-6 -1 -16 -1
q-13 0 -20.5 4.5t-7.5 15.5q2 20 13.5 35t32.5 30q33 23 169.5 48t188.5 25q39 0 60 -6q34 -10 34 -36zM503 801q-15 -23 -25 -47q-14 -33 -14 -55q0 -14 -5.5 -18t-23.5 -4q-15 0 -24.5 10.5t-9.5 26.5q0 11 6 31q3 10 9 25q-20 -13 -36 -21q-27 -13 -47 -13q-23 0 -40 11
q-21 14 -21 40q0 27 6.5 50t20.5 52q34 68 67 68q21 0 21 -19q0 -7 -6 -20q-9 -17 -13 -26q-7 -17 -14 -33q-10 -23 -10 -33q0 -15 15 -15q18 0 80 48q31 23 54 34.5t34 11.5q21 0 21 -25q0 -14 -18.5 -40.5t-26.5 -38.5z" />
    <glyph glyph-name="copyright" unicode="&#xa9;" horiz-adv-x="684" 
d="M515 323q2 -8 2 -12q0 -17 -20 -27t-73 -10h-19.5t-18.5 1q-52 0 -83.5 33.5t-31.5 89.5q0 68 46 110q39 36 84 36q37 0 70 -13.5t27 -38.5q-5 -17 -30 -17q-10 0 -32 4t-31 4q-38 0 -50.5 -22.5t-12.5 -63.5q0 -21 17 -39t38 -18q16 0 35 1t32 1q18 0 33 -3.5t18 -15.5z
M393 608q-88 0 -144 -64q-52 -60 -52 -147q0 -83 63 -141t148 -58q88 0 150 64t62 154q0 84 -67.5 138t-159.5 54zM377 680q133 0 225 -70.5t92 -186.5q0 -124 -80 -204t-196 -80q-119 0 -201 65t-95 174q-1 10 -1.5 17.5t-0.5 12.5q0 108 75.5 190t181.5 82z" />
    <glyph glyph-name="ordfeminine" unicode="&#xaa;" horiz-adv-x="412" 
d="M104 276q-30 -71 -30 -114q0 -25 31 -32q18 -4 69 -4q89 0 166 27q64 30 128 61q10 0 14.5 -9t4.5 -20q0 -56 -122 -115q-92 -45 -214 -45q-83 0 -114 26q-35 30 -35 117q0 27 34 104q-18 4 -28.5 14.5t-10.5 28.5q0 19 21.5 26.5t54.5 7.5q64 121 133 195q88 95 169 95
q37 0 69 -30q29 -27 29 -51q0 -62 -24 -87q-13 -14 -38 -18q-22 -4 -30.5 8t-8.5 30q0 4 2 16t2 18q0 13 -5.5 21.5t-19.5 8.5q-56 0 -114 -63q-42 -46 -94 -138q44 0 123.5 7.5t86.5 7.5q41 0 61 -3.5t20 -19.5q0 -28 -13.5 -46.5t-34.5 -18.5l-160 -2z" />
    <glyph glyph-name="ordfeminine" unicode="&#x404;" horiz-adv-x="412" 
d="M104 276q-30 -71 -30 -114q0 -25 31 -32q18 -4 69 -4q89 0 166 27q64 30 128 61q10 0 14.5 -9t4.5 -20q0 -56 -122 -115q-92 -45 -214 -45q-83 0 -114 26q-35 30 -35 117q0 27 34 104q-18 4 -28.5 14.5t-10.5 28.5q0 19 21.5 26.5t54.5 7.5q64 121 133 195q88 95 169 95
q37 0 69 -30q29 -27 29 -51q0 -62 -24 -87q-13 -14 -38 -18q-22 -4 -30.5 8t-8.5 30q0 4 2 16t2 18q0 13 -5.5 21.5t-19.5 8.5q-56 0 -114 -63q-42 -46 -94 -138q44 0 123.5 7.5t86.5 7.5q41 0 61 -3.5t20 -19.5q0 -28 -13.5 -46.5t-34.5 -18.5l-160 -2z" />
    <glyph glyph-name="guillemotleft" unicode="&#xab;" horiz-adv-x="709" 
d="M641 292q0 -34 -33 -51q-47 -17 -72 -29q-45 -23 -112 -63q12 -9 33 -21q3 -2 68 -36q21 -11 34 -28t13 -35q0 -27 -36 -27q-17 0 -30 16q-19 23 -36 32q-50 26 -100 53q-46 28 -46 52q0 20 81 69l84 50q21 13 46 31q35 25 53 25q23 0 38 -9.5t15 -28.5zM470 344
q0 -24 -20 -43q-14 -13 -49 -34q-91 -54 -110 -66q-61 -39 -61 -52q0 -20 19 -31q3 -2 45 -19q29 -14 42 -26q25 -22 25 -50q0 -35 -11.5 -51t-30.5 -16q-12 0 -21.5 7.5t-9.5 19.5q0 24 -18 42t-81 42q-48 19 -63 29q-31 20 -31 50q0 26 106 98q63 40 78 50q29 20 62 48
q55 47 75 47q21 0 37.5 -10.5t16.5 -34.5z" />
    <glyph glyph-name="logicalnot" unicode="&#xac;" horiz-adv-x="718" 
d="M623 264q0 -26 -1.5 -55.5t-5.5 -46.5q-3 -24 -13 -30q-5 -3 -28 -3q-21 0 -31.5 14.5t-10.5 49.5q0 24 -10 29.5t-46 5.5q-64 0 -108.5 -1.5t-91.5 -2.5q-11 0 -21.5 -0.5t-20.5 -0.5q-19 0 -28 5t-10 19q0 24 12 36t43 12l145 2q30 0 92 7t80 7q21 0 37.5 -14.5
t16.5 -32.5z" />
    <glyph glyph-name="minus" unicode="&#xad;" horiz-adv-x="617" 
d="M563 235q0 -18 -18.5 -25.5t-36.5 -7.5q-32 0 -87 -4q-125 -9 -150 -9q-42 0 -56.5 5t-14.5 24q-3 28 10.5 41.5t49.5 13.5l242 -4q28 0 44.5 -7t16.5 -27z" />
    <glyph glyph-name="registered" unicode="&#xae;" horiz-adv-x="653" 
d="M550 292q3 -25 -25 -25q-17 0 -43.5 20.5t-46.5 48.5q-2 3 -32 43q-12 16 -27 39q0 -16 2 -37t2 -26q0 -11 1 -34.5t1 -30.5q0 -17 -17 -27q-12 -7 -23 -7q-10 0 -25 12t-15 26l-6 216q0 63 12 80t55 21q41 0 72.5 -7.5t45.5 -25.5q8 -11 16.5 -22t8.5 -28q0 -43 -7 -64
q-12 -36 -43 -36q16 -19 22 -27q12 -15 24 -33q4 -7 29 -40q17 -23 19 -36zM420 481q10 1 14 8.5t4 18.5t-6 22t-15.5 14.5t-31.5 3.5h-13q-1 -10 -1 -24v-22t1 -21q23 -3 28 -3t20 3zM416 634q-90 0 -148 -62t-58 -152q0 -88 65.5 -147.5t156.5 -59.5q87 0 149 64t62 154
q0 85 -68 144t-159 59zM403 689q133 0 215.5 -66.5t82.5 -183.5q0 -125 -73.5 -204.5t-188.5 -79.5q-123 0 -211 68q-94 73 -94 185q0 115 78 198t191 83z" />
    <glyph glyph-name="macron" unicode="&#xaf;" horiz-adv-x="254" 
d="M265 462q0 -26 -37.5 -100t-73.5 -146q-41 -88 -45 -132q0 -42 -13 -60t-48 -18q-24 0 -32 19.5t-8 58.5q0 21 56 124q48 88 110.5 184.5t75.5 96.5q15 0 15 -27zM406 632q-11 -17 -21 -41t-10 -41t-23 -17q-10 0 -16 4q-12 8 -12 25q0 8 2.5 17t9.5 28q-21 -14 -28 -17
q-20 -10 -38 -10q-21 0 -33 8q-16 11 -16 33q0 37 22 81q28 55 53 55q17 0 17 -15q0 -5 -4 -14.5t-11 -22.5q-19 -44 -19 -53q0 -12 12 -12q15 0 63.5 37.5t69.5 37.5q18 0 18 -20q0 -11 -16 -34q-12 -17 -20 -29z" />
    <glyph glyph-name="macron" unicode="&#x407;" horiz-adv-x="254" 
d="M265 462q0 -26 -37.5 -100t-73.5 -146q-41 -88 -45 -132q0 -42 -13 -60t-48 -18q-24 0 -32 19.5t-8 58.5q0 21 56 124q48 88 110.5 184.5t75.5 96.5q15 0 15 -27zM406 632q-11 -17 -21 -41t-10 -41t-23 -17q-10 0 -16 4q-12 8 -12 25q0 8 2.5 17t9.5 28q-21 -14 -28 -17
q-20 -10 -38 -10q-21 0 -33 8q-16 11 -16 33q0 37 22 81q28 55 53 55q17 0 17 -15q0 -5 -4 -14.5t-11 -22.5q-19 -44 -19 -53q0 -12 12 -12q15 0 63.5 37.5t69.5 37.5q18 0 18 -20q0 -11 -16 -34q-12 -17 -20 -29z" />
    <glyph glyph-name="degree" unicode="&#xb0;" horiz-adv-x="389" 
d="M428 708q0 -82 -56 -123q-42 -31 -99 -31q-38 0 -66 22t-28 52q0 58 66 127t120 69q11 0 25 -12q38 -32 38 -104zM347 704q0 13 -5 21t-12 8q-19 0 -53.5 -27.5t-34.5 -46.5q0 -14 13.5 -19.5t33.5 -5.5q27 0 44 26q14 21 14 44z" />
    <glyph glyph-name="plusminus" unicode="&#xb1;" horiz-adv-x="752" 
d="M731 298q-74 -15 -156 -26q-24 -3 -157 -20q-4 -12 -4 -27q0 -12 4 -30t4 -23q0 -21 -18 -34.5t-41 -13.5q-21 0 -33 29t-12 65q0 15 1 21q-15 -2 -53.5 -5t-65.5 -3q-20 0 -32.5 12.5t-8.5 29.5q7 35 71 47q42 8 129 8l114 195q6 11 17 19.5t24 8.5q4 0 13.5 -3.5
t16 -14.5t6.5 -23t-50 -96q-28 -46 -41 -82q64 0 133 3.5t146 8.5q20 0 22 -16q0 -14 -5 -20t-24 -10zM725 48q-2 -15 -68 -40t-84 -25q-29 0 -47 17t-87 17q-72 0 -116 -4q-121 -11 -128 -11q-39 0 -61 9.5t-20 26.5q3 26 19.5 33t57.5 7q41 -4 78.5 -6.5t67.5 -2.5
q52 0 140 2.5t195 6.5q23 0 38 -5.5t15 -24.5z" />
    <glyph glyph-name="twosuperior" unicode="&#xb2;" horiz-adv-x="254" 
d="M325 585q0 -24 -52.5 -129.5t-103.5 -207.5q-56 -118 -60 -164q0 -42 -13 -60t-48 -18q-24 0 -32 19.5t-8 58.5q0 21 72 156q60 113 139 242.5t91 129.5q15 0 15 -27z" />
    <glyph glyph-name="twosuperior" unicode="&#x406;" horiz-adv-x="254" 
d="M325 585q0 -24 -52.5 -129.5t-103.5 -207.5q-56 -118 -60 -164q0 -42 -13 -60t-48 -18q-24 0 -32 19.5t-8 58.5q0 21 72 156q60 113 139 242.5t91 129.5q15 0 15 -27z" />
    <glyph glyph-name="threesuperior" unicode="&#xb3;" horiz-adv-x="195" 
d="M200 399q0 -33 -21 -51t-46 -18q-21 0 -34.5 19.5t-13.5 47.5q0 24 17 37t42 13q21 0 38.5 -15t17.5 -33zM2 54q0 45 18 106q23 79 56 79q16 0 22.5 -7.5t6.5 -19.5q0 -11 -4 -27q-12 -48 -12 -57q0 -21 2.5 -28.5t14.5 -7.5q19 0 56.5 27.5t75.5 55.5q11 -3 18 -8.5
t7 -14.5q0 -19 -65 -80q-75 -70 -131 -70q-26 0 -45.5 14t-19.5 38z" />
    <glyph glyph-name="threesuperior" unicode="&#x456;" horiz-adv-x="195" 
d="M200 399q0 -33 -21 -51t-46 -18q-21 0 -34.5 19.5t-13.5 47.5q0 24 17 37t42 13q21 0 38.5 -15t17.5 -33zM2 54q0 45 18 106q23 79 56 79q16 0 22.5 -7.5t6.5 -19.5q0 -11 -4 -27q-12 -48 -12 -57q0 -21 2.5 -28.5t14.5 -7.5q19 0 56.5 27.5t75.5 55.5q11 -3 18 -8.5
t7 -14.5q0 -19 -65 -80q-75 -70 -131 -70q-26 0 -45.5 14t-19.5 38z" />
    <glyph glyph-name="acute" unicode="&#xb4;" horiz-adv-x="324" 
d="M341 265q16 -10 16 -25q0 -32 -15.5 -46t-45.5 -14q-15 0 -37 13.5t-28 13.5q-34 0 -42.5 -1.5t-35.5 -13.5q-13 -67 -16 -81q-8 -43 -8 -63q0 -21 -21.5 -36.5t-47.5 -15.5q-27 0 -32.5 9.5t-5.5 29.5q0 11 13.5 46t15.5 42q8 30 17 60q5 20 5 49q0 14 18.5 26t32.5 12
q30 4 62 9t55 5h22t22 -3q17 22 29 55q5 15 24 102q11 42 39 42q22 2 42.5 -10.5t20.5 -33.5q0 -36 -19 -73t-61 -79z" />
    <glyph glyph-name="acute" unicode="&#x491;" horiz-adv-x="324" 
d="M341 265q16 -10 16 -25q0 -32 -15.5 -46t-45.5 -14q-15 0 -37 13.5t-28 13.5q-34 0 -42.5 -1.5t-35.5 -13.5q-13 -67 -16 -81q-8 -43 -8 -63q0 -21 -21.5 -36.5t-47.5 -15.5q-27 0 -32.5 9.5t-5.5 29.5q0 11 13.5 46t15.5 42q8 30 17 60q5 20 5 49q0 14 18.5 26t32.5 12
q30 4 62 9t55 5h22t22 -3q17 22 29 55q5 15 24 102q11 42 39 42q22 2 42.5 -10.5t20.5 -33.5q0 -36 -19 -73t-61 -79z" />
    <glyph glyph-name="paragraph" unicode="&#xb6;" horiz-adv-x="528" 
d="M413 592q-22 -37 -48 -92q-32 -65 -57 -129q-28 -70 -52 -143q-20 -63 -34 -122t-27 -119q-21 -62 -70 -62q-43 0 -43 58q0 25 43 110q32 64 42 87q7 16 63 168q27 73 82 203l10 28q-32 -7 -63 -12t-43 -5q-18 0 -29 10.5t-11 33.5q0 20 8.5 41.5t27.5 21.5
q28 0 105.5 -2t96.5 -2q50 0 92.5 3t83.5 9q73 13 116 13q25 0 25 -17t-34 -32.5t-117 -28.5l-33 -4q-30 -83 -55 -151q-46 -124 -95 -236q-3 -7 -38 -155q-20 -85 -71 -85q-42 0 -42 36q0 18 7 27q14 14 24 27q17 22 43 115q16 59 28 90q25 68 58 144q39 90 78 181
q-13 0 -37 -4t-34 -5z" />
    <glyph glyph-name="periodcentered" unicode="&#xb7;" horiz-adv-x="416" 
d="M197 259q11 10 27 10q21 0 35 -19q10 -11 10 -27q0 -19 -19 -35q-11 -10 -27 -10q-19 0 -35 19q-10 11 -10 27q0 21 19 35z" />
    <glyph glyph-name="periodcentered" unicode="&#x2219;" horiz-adv-x="416" 
d="M197 259q11 10 27 10q21 0 35 -19q10 -11 10 -27q0 -19 -19 -35q-11 -10 -27 -10q-19 0 -35 19q-10 11 -10 27q0 21 19 35z" />
    <glyph glyph-name="cedilla" unicode="&#xb8;" horiz-adv-x="283" 
d="M342 102q0 -23 -75 -60q-85 -42 -162 -42q-33 0 -55 16q-12 8 -31 33q-10 12 -12.5 23.5t-2.5 33.5q0 53 44 123q55 88 129 88q46 0 68.5 -19.5t22.5 -54.5q0 -44 -59 -90q-54 -42 -104 -47q0 -16 11 -24t29 -8q46 0 109 25l60 26q16 0 22 -3.5t6 -19.5zM200 214
q0 17 -13 17q-22 2 -47 -20q-19 -17 -35 -43q31 0 63 16.5t32 29.5zM313 485q-11 -17 -21 -41t-10 -41t-23 -17q-10 0 -16 4q-12 8 -12 25q0 8 2.5 17t9.5 28q-21 -14 -28 -17q-20 -10 -38 -10q-21 0 -33 8q-16 11 -16 33q0 37 22 81q28 55 53 55q17 0 17 -15q0 -5 -4 -14.5
t-11 -22.5q-19 -44 -19 -53q0 -12 12 -12q15 0 63.5 37.5t69.5 37.5q18 0 18 -20q0 -11 -16 -34q-12 -17 -20 -29z" />
    <glyph glyph-name="cedilla" unicode="&#x451;" horiz-adv-x="283" 
d="M342 102q0 -23 -75 -60q-85 -42 -162 -42q-33 0 -55 16q-12 8 -31 33q-10 12 -12.5 23.5t-2.5 33.5q0 53 44 123q55 88 129 88q46 0 68.5 -19.5t22.5 -54.5q0 -44 -59 -90q-54 -42 -104 -47q0 -16 11 -24t29 -8q46 0 109 25l60 26q16 0 22 -3.5t6 -19.5zM200 214
q0 17 -13 17q-22 2 -47 -20q-19 -17 -35 -43q31 0 63 16.5t32 29.5zM313 485q-11 -17 -21 -41t-10 -41t-23 -17q-10 0 -16 4q-12 8 -12 25q0 8 2.5 17t9.5 28q-21 -14 -28 -17q-20 -10 -38 -10q-21 0 -33 8q-16 11 -16 33q0 37 22 81q28 55 53 55q17 0 17 -15q0 -5 -4 -14.5
t-11 -22.5q-19 -44 -19 -53q0 -12 12 -12q15 0 63.5 37.5t69.5 37.5q18 0 18 -20q0 -11 -16 -34q-12 -17 -20 -29z" />
    <glyph glyph-name="onesuperior" unicode="&#xb9;" horiz-adv-x="1149" 
d="M1166 294q0 -18 -31 -24q-96 -8 -179 -20q-55 -7 -131 -59q-34 -23 -58 -23q-29 0 -47 19t-18 44q0 34 58 49q48 11 97 22q-46 0 -72.5 21.5t-26.5 54.5q0 38 3 60t18 62q-8 2 -12 2q-18 3 -26 3q-7 -1 -10 -1q-24 -4 -105.5 -119.5t-121.5 -201.5q-24 -55 -47 -110
q-30 -50 -85 -50q-53 0 -78 70q-21 58 -21 153v115q-17 -23 -35 -55q-11 -20 -22 -39q-30 -55 -43 -83q-22 -50 -22 -85q0 -24 -13.5 -38.5t-47.5 -14.5q-19 0 -29.5 8.5t-10.5 36.5v10q0 19 20 61q61 114 111 210q26 66 45 104q36 72 72 72q32 0 42 -4q20 -8 22 -24.5
t2 -22.5v-12q0 -12 -5.5 -83.5t-5.5 -99.5q3 -57 6 -84q9 -84 25 -81q16 2 55 70q9 16 46 83q34 60 61 102q35 54 71 98.5t63 64.5t47 20q19 0 40 -10q14 -8 29 -15q16 32 51 61q48 40 100 40q54 0 85 -30t31 -79q0 -86 -45 -141q-39 -48 -123 -86q68 0 130.5 4t108.5 7
q12 0 22 -8t10 -24zM977 504q0 20 -6 34t-20 14q-25 0 -48 -16q-29 -20 -29 -55q-1 -17 -1 -25q0 -23 5 -34.5t23 -11.5q28 0 52 32t24 62z" />
    <glyph glyph-name="onesuperior" unicode="&#x2116;" horiz-adv-x="1149" 
d="M1166 294q0 -18 -31 -24q-96 -8 -179 -20q-55 -7 -131 -59q-34 -23 -58 -23q-29 0 -47 19t-18 44q0 34 58 49q48 11 97 22q-46 0 -72.5 21.5t-26.5 54.5q0 38 3 60t18 62q-8 2 -12 2q-18 3 -26 3q-7 -1 -10 -1q-24 -4 -105.5 -119.5t-121.5 -201.5q-24 -55 -47 -110
q-30 -50 -85 -50q-53 0 -78 70q-21 58 -21 153v115q-17 -23 -35 -55q-11 -20 -22 -39q-30 -55 -43 -83q-22 -50 -22 -85q0 -24 -13.5 -38.5t-47.5 -14.5q-19 0 -29.5 8.5t-10.5 36.5v10q0 19 20 61q61 114 111 210q26 66 45 104q36 72 72 72q32 0 42 -4q20 -8 22 -24.5
t2 -22.5v-12q0 -12 -5.5 -83.5t-5.5 -99.5q3 -57 6 -84q9 -84 25 -81q16 2 55 70q9 16 46 83q34 60 61 102q35 54 71 98.5t63 64.5t47 20q19 0 40 -10q14 -8 29 -15q16 32 51 61q48 40 100 40q54 0 85 -30t31 -79q0 -86 -45 -141q-39 -48 -123 -86q68 0 130.5 4t108.5 7
q12 0 22 -8t10 -24zM977 504q0 20 -6 34t-20 14q-25 0 -48 -16q-29 -20 -29 -55q-1 -17 -1 -25q0 -23 5 -34.5t23 -11.5q28 0 52 32t24 62z" />
    <glyph glyph-name="ordmasculine" unicode="&#xba;" horiz-adv-x="268" 
d="M83 101q0 -11 2 -16q6 -14 24 -14q48 0 131 61l82 62q15 0 17 -5.5t2 -18.5q0 -26 -97 -98q-106 -79 -172 -79q-42 0 -63.5 21.5t-21.5 51.5q0 71 72.5 145.5t126.5 74.5q38 0 49.5 -7.5t11.5 -29.5q0 -23 -13.5 -29.5t-43.5 -6.5q-23 0 -47.5 -14.5t-40.5 -36.5
q13 12 21 16.5t22 4.5q13 0 20 -5t16 -10q7 0 17 2t16 2q16 0 16 -19q0 -10 -19.5 -28.5t-41.5 -18.5q-6 0 -17 5.5t-21 5.5q-17 0 -31 -6q-14 -8 -17 -10z" />
    <glyph glyph-name="ordmasculine" unicode="&#x454;" horiz-adv-x="268" 
d="M83 101q0 -11 2 -16q6 -14 24 -14q48 0 131 61l82 62q15 0 17 -5.5t2 -18.5q0 -26 -97 -98q-106 -79 -172 -79q-42 0 -63.5 21.5t-21.5 51.5q0 71 72.5 145.5t126.5 74.5q38 0 49.5 -7.5t11.5 -29.5q0 -23 -13.5 -29.5t-43.5 -6.5q-23 0 -47.5 -14.5t-40.5 -36.5
q13 12 21 16.5t22 4.5q13 0 20 -5t16 -10q7 0 17 2t16 2q16 0 16 -19q0 -10 -19.5 -28.5t-41.5 -18.5q-6 0 -17 5.5t-21 5.5q-17 0 -31 -6q-14 -8 -17 -10z" />
    <glyph glyph-name="guillemotright" unicode="&#xbb;" horiz-adv-x="699" 
d="M630 208q0 -34 -53 -81q-24 -22 -108 -82q-67 -48 -82 -70q-6 -15 -10 -23q-8 -15 -19 -15q-18 0 -29.5 12.5t-11.5 31.5q0 27 27 59q22 26 77 71q25 21 115 91q-31 37 -97 75q-118 68 -118 85q0 28 15 41t42 13q37 0 144.5 -93t107.5 -115zM450 198q0 -38 -93 -93
q-47 -26 -50 -27q-15 -9 -53 -59q-14 -19 -25 -19q-19 0 -38 13t-19 31q0 27 89.5 76t89.5 67q0 20 -68 47q-32 13 -113 37q-31 9 -31 38q0 19 9 30t32 11q34 0 146 -53q124 -59 124 -99z" />
    <glyph glyph-name="onequarter" unicode="&#xbc;" horiz-adv-x="242" 
d="M242 392q0 -34 -21 -52t-46 -18q-21 0 -34.5 20t-13.5 48q0 24 17 37t42 13q21 0 38.5 -15t17.5 -33zM55 27q4 21 12.5 104.5t16.5 103.5t16 22t32 2q23 0 33 -16q7 -11 7 -26q0 -19 -28 -92q-18 -46 -22 -62q20 9 99 60q32 21 36 20q24 -7 24 -23q0 -10 -54 -47
q-49 -34 -120 -77q-4 -13 -12.5 -53t-16.5 -71q-28 -99 -54.5 -134.5t-74.5 -35.5q-31 0 -49.5 32.5t-18.5 70.5q0 100 72 163q27 23 102 59zM30 -50q-29 -18 -41 -30q-22 -22 -22 -48q-1 -15 -1 -21q0 -11 8 -11q15 0 27 24q4 9 29 86z" />
    <glyph glyph-name="onequarter" unicode="&#x458;" horiz-adv-x="242" 
d="M242 392q0 -34 -21 -52t-46 -18q-21 0 -34.5 20t-13.5 48q0 24 17 37t42 13q21 0 38.5 -15t17.5 -33zM55 27q4 21 12.5 104.5t16.5 103.5t16 22t32 2q23 0 33 -16q7 -11 7 -26q0 -19 -28 -92q-18 -46 -22 -62q20 9 99 60q32 21 36 20q24 -7 24 -23q0 -10 -54 -47
q-49 -34 -120 -77q-4 -13 -12.5 -53t-16.5 -71q-28 -99 -54.5 -134.5t-74.5 -35.5q-31 0 -49.5 32.5t-18.5 70.5q0 100 72 163q27 23 102 59zM30 -50q-29 -18 -41 -30q-22 -22 -22 -48q-1 -15 -1 -21q0 -11 8 -11q15 0 27 24q4 9 29 86z" />
    <glyph glyph-name="onehalf" unicode="&#xbd;" horiz-adv-x="401" 
d="M483 504q0 -28 -13 -49.5t-31 -21.5q-16 0 -30 8t-16 19q2 13 2 25q0 6 -6.5 11.5t-20.5 5.5q-52 0 -83.5 -56t-31.5 -125q0 -46 42 -143t42 -119q0 -25 -24 -42t-56 -17q-61 0 -146 53q-91 57 -91 107q0 17 11 25t27 8q14 0 84.5 -52.5t89.5 -52.5q11 0 11 7
q-22 60 -38 124q-19 73 -19 119q0 77 37 156q49 105 132 105q72 0 104 -31q24 -24 24 -64z" />
    <glyph glyph-name="onehalf" unicode="&#x405;" horiz-adv-x="401" 
d="M483 504q0 -28 -13 -49.5t-31 -21.5q-16 0 -30 8t-16 19q2 13 2 25q0 6 -6.5 11.5t-20.5 5.5q-52 0 -83.5 -56t-31.5 -125q0 -46 42 -143t42 -119q0 -25 -24 -42t-56 -17q-61 0 -146 53q-91 57 -91 107q0 17 11 25t27 8q14 0 84.5 -52.5t89.5 -52.5q11 0 11 7
q-22 60 -38 124q-19 73 -19 119q0 77 37 156q49 105 132 105q72 0 104 -31q24 -24 24 -64z" />
    <glyph glyph-name="threequarters" unicode="&#xbe;" horiz-adv-x="298" 
d="M273 78q0 -47 -51 -72q-39 -19 -92 -19q-62 0 -85 18q-18 14 -18 43q0 21 8.5 30.5t21.5 9.5q8 1 21 -7q35 -22 46 -23.5t20 -1.5q11 0 18 5t7 17q0 6 -56 40t-56 75q0 52 56 81q48 25 111 25q44 0 65 -21q18 -18 18 -49q0 -20 -12 -42q-15 -27 -39 -27t-31 12
q-5 8 2 18.5t16 22.5q0 9 -6.5 13.5t-17.5 4.5q-31 0 -45.5 -6.5t-17.5 -31.5q0 -9 58.5 -47.5t58.5 -67.5z" />
    <glyph glyph-name="threequarters" unicode="&#x455;" horiz-adv-x="298" 
d="M273 78q0 -47 -51 -72q-39 -19 -92 -19q-62 0 -85 18q-18 14 -18 43q0 21 8.5 30.5t21.5 9.5q8 1 21 -7q35 -22 46 -23.5t20 -1.5q11 0 18 5t7 17q0 6 -56 40t-56 75q0 52 56 81q48 25 111 25q44 0 65 -21q18 -18 18 -49q0 -20 -12 -42q-15 -27 -39 -27t-31 12
q-5 8 2 18.5t16 22.5q0 9 -6.5 13.5t-17.5 4.5q-31 0 -45.5 -6.5t-17.5 -31.5q0 -9 58.5 -47.5t58.5 -67.5z" />
    <glyph glyph-name="questiondown" unicode="&#xbf;" horiz-adv-x="195" 
d="M2 54q0 45 18 106q23 79 56 79q16 0 22.5 -7.5t6.5 -19.5q0 -11 -4 -27q-12 -48 -12 -57q0 -21 2.5 -28.5t14.5 -7.5q19 0 56.5 27.5t75.5 55.5q11 -3 18 -8.5t7 -14.5q0 -19 -65 -80q-75 -70 -131 -70q-26 0 -45.5 14t-19.5 38zM226 396q-11 -17 -21 -41t-10 -41
t-23 -17q-10 0 -16 4q-12 8 -12 25q0 8 2.5 17t9.5 28q-21 -14 -28 -17q-20 -10 -38 -10q-21 0 -33 8q-16 11 -16 33q0 37 22 81q28 55 53 55q17 0 17 -15q0 -5 -4 -14.5t-11 -22.5q-19 -44 -19 -53q0 -12 12 -12q15 0 63.5 37.5t69.5 37.5q18 0 18 -20q0 -11 -16 -34
q-12 -17 -20 -29z" />
    <glyph glyph-name="questiondown" unicode="&#x457;" horiz-adv-x="195" 
d="M2 54q0 45 18 106q23 79 56 79q16 0 22.5 -7.5t6.5 -19.5q0 -11 -4 -27q-12 -48 -12 -57q0 -21 2.5 -28.5t14.5 -7.5q19 0 56.5 27.5t75.5 55.5q11 -3 18 -8.5t7 -14.5q0 -19 -65 -80q-75 -70 -131 -70q-26 0 -45.5 14t-19.5 38zM226 396q-11 -17 -21 -41t-10 -41
t-23 -17q-10 0 -16 4q-12 8 -12 25q0 8 2.5 17t9.5 28q-21 -14 -28 -17q-20 -10 -38 -10q-21 0 -33 8q-16 11 -16 33q0 37 22 81q28 55 53 55q17 0 17 -15q0 -5 -4 -14.5t-11 -22.5q-19 -44 -19 -53q0 -12 12 -12q15 0 63.5 37.5t69.5 37.5q18 0 18 -20q0 -11 -16 -34
q-12 -17 -20 -29z" />
    <glyph glyph-name="Agrave" unicode="&#xc0;" horiz-adv-x="477" 
d="M553 302q-1 -11 -48 -27q-33 -11 -103 -31q-3 -25 -5.5 -59t-2.5 -46v-24.5t1 -22.5q0 -8 -1 -21t-4 -31q-10 -46 -25 -61q-11 -11 -34 -11q-26 0 -35 9t-9 25v15t1 17q0 9 -1 14q-7 30 -23.5 49.5t-80.5 54.5q-16 -37 -33 -85q-13 -36 -25 -61t-30.5 -34.5t-49.5 -9.5
q-17 0 -23.5 6.5t-6.5 17.5q0 8 1 14.5t2 12.5q0 15 39 69q35 49 71 98q-27 17 -29 18q-18 8 -48 8q-36 0 -49.5 6t-10.5 32q3 18 16 30t26 12q39 -6 77.5 -11t58.5 -5q16 0 24 1q83 158 133 252q94 176 118 176t24 -38q0 -16 -3 -39q-7 -54 -27 -159q-24 -119 -32 -160
q40 9 83 20q27 7 41 7q25 0 25 -17q0 -3 -2 -11zM364 495q-16 -27 -46 -92q-25 -54 -54 -119q8 0 33.5 3t33.5 5q3 35 13 92.5t20 110.5zM338 230l-121 -21q51 -31 103 -62q9 27 12.5 48t5.5 35z" />
    <glyph glyph-name="Agrave" unicode="&#x410;" horiz-adv-x="477" 
d="M553 302q-1 -11 -48 -27q-33 -11 -103 -31q-3 -25 -5.5 -59t-2.5 -46v-24.5t1 -22.5q0 -8 -1 -21t-4 -31q-10 -46 -25 -61q-11 -11 -34 -11q-26 0 -35 9t-9 25v15t1 17q0 9 -1 14q-7 30 -23.5 49.5t-80.5 54.5q-16 -37 -33 -85q-13 -36 -25 -61t-30.5 -34.5t-49.5 -9.5
q-17 0 -23.5 6.5t-6.5 17.5q0 8 1 14.5t2 12.5q0 15 39 69q35 49 71 98q-27 17 -29 18q-18 8 -48 8q-36 0 -49.5 6t-10.5 32q3 18 16 30t26 12q39 -6 77.5 -11t58.5 -5q16 0 24 1q83 158 133 252q94 176 118 176t24 -38q0 -16 -3 -39q-7 -54 -27 -159q-24 -119 -32 -160
q40 9 83 20q27 7 41 7q25 0 25 -17q0 -3 -2 -11zM364 495q-16 -27 -46 -92q-25 -54 -54 -119q8 0 33.5 3t33.5 5q3 35 13 92.5t20 110.5zM338 230l-121 -21q51 -31 103 -62q9 27 12.5 48t5.5 35z" />
    <glyph glyph-name="Aacute" unicode="&#xc1;" horiz-adv-x="474" 
d="M589 642q0 -28 -20 -42q-16 -11 -43 -11q-19 0 -35.5 3.5t-22.5 3.5q-9 0 -17 -1t-63 -11t-102 -18q-26 -37 -66 -119q-28 -57 -51 -110q39 25 96.5 43.5t103.5 18.5q39 0 64 -17q36 -24 36 -74q0 -78 -61 -154q-37 -47 -96 -90t-122 -68q-83 -33 -172 -33q-40 0 -56 13
t-16 40q0 38 33 41q17 -1 29 -1.5t17 0.5q-7 11 -12 21q-8 16 -8 28q0 39 47 133q34 69 45 97.5t44 102.5q29 65 43 96q-6 -1 -16 -1q-27 0 -27 20q0 21 12 35.5t33 29.5q33 23 145 44.5t164 21.5q39 0 60 -6q34 -10 34 -36zM369 284q0 14 -11.5 19t-37.5 5q-39 0 -82 -8.5
t-80 -27.5q-23 -68 -28 -86q-16 -54 -16 -81q0 -17 -10 -29.5t-25 -18.5q43 0 99.5 15t81.5 33q63 44 90 101q19 40 19 78z" />
    <glyph glyph-name="Aacute" unicode="&#x411;" horiz-adv-x="474" 
d="M589 642q0 -28 -20 -42q-16 -11 -43 -11q-19 0 -35.5 3.5t-22.5 3.5q-9 0 -17 -1t-63 -11t-102 -18q-26 -37 -66 -119q-28 -57 -51 -110q39 25 96.5 43.5t103.5 18.5q39 0 64 -17q36 -24 36 -74q0 -78 -61 -154q-37 -47 -96 -90t-122 -68q-83 -33 -172 -33q-40 0 -56 13
t-16 40q0 38 33 41q17 -1 29 -1.5t17 0.5q-7 11 -12 21q-8 16 -8 28q0 39 47 133q34 69 45 97.5t44 102.5q29 65 43 96q-6 -1 -16 -1q-27 0 -27 20q0 21 12 35.5t33 29.5q33 23 145 44.5t164 21.5q39 0 60 -6q34 -10 34 -36zM369 284q0 14 -11.5 19t-37.5 5q-39 0 -82 -8.5
t-80 -27.5q-23 -68 -28 -86q-16 -54 -16 -81q0 -17 -10 -29.5t-25 -18.5q43 0 99.5 15t81.5 33q63 44 90 101q19 40 19 78z" />
    <glyph glyph-name="Acircumflex" unicode="&#xc2;" horiz-adv-x="461" 
d="M441 486q0 15 -13.5 36t-29.5 27q-67 -99 -133 -198q52 7 98 31q78 40 78 104zM475 246q0 -61 -44 -120q-32 -43 -85 -80q-65 -46 -112 -65q-78 -32 -174 -32q-49 0 -78 13q-36 16 -36 51q0 22 10.5 35.5t26.5 13.5q11 0 61 -10q30 -6 47 -6q57 0 106.5 10.5t82.5 26.5
q49 24 86.5 61.5t37.5 60.5q0 24 -13 41q-20 25 -63 25q-24 0 -54.5 -7t-59.5 -18q-30 -84 -43 -111q-34 -71 -64 -71q-47 0 -47 40q0 25 31 79q24 41 52 77q-27 4 -39 12.5t-12 28.5q0 12 11.5 26t21.5 14h16q18 0 53 4q26 48 86 136q45 64 67 97q-17 7 -35 10t-37 3
q-57 -5 -112 -29q-45 -19 -72 -42q-18 -19 -44 -19q-15 0 -19 8.5t-4 23.5q0 41 97 88.5t186 47.5q96 0 152 -41q62 -46 62 -132q0 -53 -43 -99q-32 -35 -98 -72q40 -5 67.5 -26.5t27.5 -52.5z" />
    <glyph glyph-name="Acircumflex" unicode="&#x412;" horiz-adv-x="461" 
d="M441 486q0 15 -13.5 36t-29.5 27q-67 -99 -133 -198q52 7 98 31q78 40 78 104zM475 246q0 -61 -44 -120q-32 -43 -85 -80q-65 -46 -112 -65q-78 -32 -174 -32q-49 0 -78 13q-36 16 -36 51q0 22 10.5 35.5t26.5 13.5q11 0 61 -10q30 -6 47 -6q57 0 106.5 10.5t82.5 26.5
q49 24 86.5 61.5t37.5 60.5q0 24 -13 41q-20 25 -63 25q-24 0 -54.5 -7t-59.5 -18q-30 -84 -43 -111q-34 -71 -64 -71q-47 0 -47 40q0 25 31 79q24 41 52 77q-27 4 -39 12.5t-12 28.5q0 12 11.5 26t21.5 14h16q18 0 53 4q26 48 86 136q45 64 67 97q-17 7 -35 10t-37 3
q-57 -5 -112 -29q-45 -19 -72 -42q-18 -19 -44 -19q-15 0 -19 8.5t-4 23.5q0 41 97 88.5t186 47.5q96 0 152 -41q62 -46 62 -132q0 -53 -43 -99q-32 -35 -98 -72q40 -5 67.5 -26.5t27.5 -52.5z" />
    <glyph glyph-name="Atilde" unicode="&#xc3;" horiz-adv-x="431" 
d="M573 605q0 -28 -20 -42q-16 -11 -43 -11q-14 0 -34.5 3.5t-38.5 3.5q-15 -1 -79 -15q-49 -10 -62 -13q-31 -44 -52 -87.5t-43.5 -104t-32.5 -94.5q-13 -44 -19 -96q-2 -16 -3 -42.5t-1 -39.5q0 -36 -17.5 -51.5t-47.5 -15.5t-41 17q-7 11 -7 37v11q0 30 35 130
q30 85 74 188q12 28 27 61q20 43 26 56q-6 -1 -16 -1q-27 0 -27 20t12 35t33 30q34 23 133.5 43t149.5 20q40 0 61 -6q33 -10 33 -36z" />
    <glyph glyph-name="Atilde" unicode="&#x413;" horiz-adv-x="431" 
d="M573 605q0 -28 -20 -42q-16 -11 -43 -11q-14 0 -34.5 3.5t-38.5 3.5q-15 -1 -79 -15q-49 -10 -62 -13q-31 -44 -52 -87.5t-43.5 -104t-32.5 -94.5q-13 -44 -19 -96q-2 -16 -3 -42.5t-1 -39.5q0 -36 -17.5 -51.5t-47.5 -15.5t-41 17q-7 11 -7 37v11q0 30 35 130
q30 85 74 188q12 28 27 61q20 43 26 56q-6 -1 -16 -1q-27 0 -27 20t12 35t33 30q34 23 133.5 43t149.5 20q40 0 61 -6q33 -10 33 -36z" />
    <glyph glyph-name="Adieresis" unicode="&#xc4;" horiz-adv-x="550" 
d="M532 291q0 -140 -117 -239q-106 -90 -228 -90q-101 0 -169 39t-68 90q0 20 9 34t26 14t27.5 -10.5t8.5 -28.5t52 -36t103 -18q107 0 193 64q91 67 91 163q0 82 -14 129q-9 29 -32 65q-24 -62 -71.5 -174t-69.5 -162q-11 -25 -15 -31q-14 -18 -37 -18q-24 0 -31 10t-7 36
q0 28 37 111q15 34 77 159q50 101 61 129q-26 33 -62 54q-41 24 -78 24q-36 0 -58 -40t-36 -40q-24 0 -33 17.5t-9 49.5q0 30 38 60q42 33 90 33q52 0 117 -35q56 -30 74 -54q15 21 23 31q14 18 21 18q13 0 24.5 -11.5t11.5 -28.5q0 -33 -16 -63q37 -62 52 -120.5t15 -130.5
z" />
    <glyph glyph-name="Adieresis" unicode="&#x414;" horiz-adv-x="550" 
d="M532 291q0 -140 -117 -239q-106 -90 -228 -90q-101 0 -169 39t-68 90q0 20 9 34t26 14t27.5 -10.5t8.5 -28.5t52 -36t103 -18q107 0 193 64q91 67 91 163q0 82 -14 129q-9 29 -32 65q-24 -62 -71.5 -174t-69.5 -162q-11 -25 -15 -31q-14 -18 -37 -18q-24 0 -31 10t-7 36
q0 28 37 111q15 34 77 159q50 101 61 129q-26 33 -62 54q-41 24 -78 24q-36 0 -58 -40t-36 -40q-24 0 -33 17.5t-9 49.5q0 30 38 60q42 33 90 33q52 0 117 -35q56 -30 74 -54q15 21 23 31q14 18 21 18q13 0 24.5 -11.5t11.5 -28.5q0 -33 -16 -63q37 -62 52 -120.5t15 -130.5
z" />
    <glyph glyph-name="Aring" unicode="&#xc5;" horiz-adv-x="468" 
d="M591 571q0 -28 -18.5 -40t-44.5 -12q-19 0 -37 3t-36 3q-23 -2 -97 -15q-58 -10 -120 -23q-27 -39 -52 -85q-21 -39 -37 -74q14 -3 25.5 -5t55.5 -2q61 0 107.5 5.5t91.5 11.5q26 0 21 -31q0 -24 -116 -53q-101 -25 -217 -38q-3 -7 -17.5 -43t-14.5 -43q0 -17 13.5 -22
t32.5 -5q20 0 132 21.5t118 20.5q12 0 21 -5.5t9 -15.5q0 -11 -10 -20q-13 -9 -17 -12q-49 -28 -135 -53.5t-151 -25.5q-52 0 -71.5 22t-19.5 62q0 15 14 58q10 32 21 64q-9 4 -13.5 18t-4.5 32q0 7 3.5 24.5t23.5 29.5q26 11 36 15q11 27 25 61q11 26 25 57q-6 -1 -16 -1
q-13 0 -20.5 4.5t-7.5 15.5q2 20 13.5 35t32.5 30q33 23 169.5 48t188.5 25q39 0 60 -6q34 -10 34 -36z" />
    <glyph glyph-name="Aring" unicode="&#x415;" horiz-adv-x="468" 
d="M591 571q0 -28 -18.5 -40t-44.5 -12q-19 0 -37 3t-36 3q-23 -2 -97 -15q-58 -10 -120 -23q-27 -39 -52 -85q-21 -39 -37 -74q14 -3 25.5 -5t55.5 -2q61 0 107.5 5.5t91.5 11.5q26 0 21 -31q0 -24 -116 -53q-101 -25 -217 -38q-3 -7 -17.5 -43t-14.5 -43q0 -17 13.5 -22
t32.5 -5q20 0 132 21.5t118 20.5q12 0 21 -5.5t9 -15.5q0 -11 -10 -20q-13 -9 -17 -12q-49 -28 -135 -53.5t-151 -25.5q-52 0 -71.5 22t-19.5 62q0 15 14 58q10 32 21 64q-9 4 -13.5 18t-4.5 32q0 7 3.5 24.5t23.5 29.5q26 11 36 15q11 27 25 61q11 26 25 57q-6 -1 -16 -1
q-13 0 -20.5 4.5t-7.5 15.5q2 20 13.5 35t32.5 30q33 23 169.5 48t188.5 25q39 0 60 -6q34 -10 34 -36z" />
    <glyph glyph-name="AE" unicode="&#xc6;" horiz-adv-x="958" 
d="M1083 542q0 -64 -100 -126q-87 -54 -138 -54q-15 0 -21 2t-6 15q0 25 25 25q17 2 43.5 14t58.5 32q24 16 37.5 34.5t13.5 33.5q0 19 -21 19q-66 0 -139 -81q-64 -71 -108 -165t-44 -145q0 -25 31 -32q18 -4 69 -4q39 0 87 22q48 25 97 50q10 0 14.5 -9t4.5 -21
q0 -28 -64 -80q-77 -63 -162 -63q-83 0 -114 26q-35 30 -35 117q0 17 22 73.5t54 120.5q-29 -35 -84 -95q-59 -64 -86 -97q-43 -52 -55 -80q-19 -45 -36 -70q-25 -37 -45 -37q-3 0 -10.5 3t-10.5 14.5t-3 23.5v8q2 5 2 7q63 138 108 238q52 116 63 151q-17 -17 -28.5 -25
t-37.5 -23q-2 -1 -36 -25q-18 -13 -35 -22q-30 -60 -67 -118q-53 -82 -105 -132q-67 -63 -124 -63q-58 0 -82 33q-15 21 -15 54q0 31 14 60q22 45 75 85q45 33 139 75q57 25 115 51q17 31 21.5 52t4.5 47v18q0 29 -16.5 41.5t-53.5 12.5q-39 0 -87 -25q-49 -29 -97 -57
q-10 1 -14.5 10t-4.5 20q0 28 64 80q77 63 162 63q75 0 104 -29q25 -25 25 -83t-37 -123q12 6 23.5 12t27.5 18q36 24 52.5 36.5t32.5 29.5q27 55 54 111q39 69 78 69q17 0 24.5 -12t7.5 -31q0 -39 -42 -90q-31 -35 -46 -52q-14 -31 -51.5 -114t-73.5 -163q46 58 137 157
q82 89 136 143q63 64 101 88q52 33 109 33q36 0 69 -31q29 -28 29 -51zM324 302l-158 -80q-60 -34 -78 -74q-5 -10 3 -25t20 -15q49 0 120 76q37 40 93 118z" />
    <glyph glyph-name="AE" unicode="&#x416;" horiz-adv-x="958" 
d="M1083 542q0 -64 -100 -126q-87 -54 -138 -54q-15 0 -21 2t-6 15q0 25 25 25q17 2 43.5 14t58.5 32q24 16 37.5 34.5t13.5 33.5q0 19 -21 19q-66 0 -139 -81q-64 -71 -108 -165t-44 -145q0 -25 31 -32q18 -4 69 -4q39 0 87 22q48 25 97 50q10 0 14.5 -9t4.5 -21
q0 -28 -64 -80q-77 -63 -162 -63q-83 0 -114 26q-35 30 -35 117q0 17 22 73.5t54 120.5q-29 -35 -84 -95q-59 -64 -86 -97q-43 -52 -55 -80q-19 -45 -36 -70q-25 -37 -45 -37q-3 0 -10.5 3t-10.5 14.5t-3 23.5v8q2 5 2 7q63 138 108 238q52 116 63 151q-17 -17 -28.5 -25
t-37.5 -23q-2 -1 -36 -25q-18 -13 -35 -22q-30 -60 -67 -118q-53 -82 -105 -132q-67 -63 -124 -63q-58 0 -82 33q-15 21 -15 54q0 31 14 60q22 45 75 85q45 33 139 75q57 25 115 51q17 31 21.5 52t4.5 47v18q0 29 -16.5 41.5t-53.5 12.5q-39 0 -87 -25q-49 -29 -97 -57
q-10 1 -14.5 10t-4.5 20q0 28 64 80q77 63 162 63q75 0 104 -29q25 -25 25 -83t-37 -123q12 6 23.5 12t27.5 18q36 24 52.5 36.5t32.5 29.5q27 55 54 111q39 69 78 69q17 0 24.5 -12t7.5 -31q0 -39 -42 -90q-31 -35 -46 -52q-14 -31 -51.5 -114t-73.5 -163q46 58 137 157
q82 89 136 143q63 64 101 88q52 33 109 33q36 0 69 -31q29 -28 29 -51zM324 302l-158 -80q-60 -34 -78 -74q-5 -10 3 -25t20 -15q49 0 120 76q37 40 93 118z" />
    <glyph glyph-name="Ccedilla" unicode="&#xc7;" horiz-adv-x="467" 
d="M526 573q0 -70 -81 -140q-60 -52 -128 -80q41 0 73 -28q37 -33 37 -86q0 -99 -89 -167q-85 -65 -198 -65q-67 0 -106 31q-42 34 -42 99q0 32 17 48q13 12 33 12q16 0 27 -10t11 -29q0 -28 34 -44q27 -13 58 -13q68 0 122 37q65 44 65 118q0 32 -16 42t-47 10
q-10 0 -20 -0.5t-20 -0.5q-40 0 -40 33q0 14 14 27t41 19q62 15 118 73t56 104q0 38 -44 38q-45 0 -96 -30q-46 -27 -76 -64q-14 -17 -27.5 -33t-21.5 -16q-24 0 -24 30q0 41 84 115q96 84 185 84q52 0 78 -34q23 -30 23 -80z" />
    <glyph glyph-name="Ccedilla" unicode="&#x417;" horiz-adv-x="467" 
d="M526 573q0 -70 -81 -140q-60 -52 -128 -80q41 0 73 -28q37 -33 37 -86q0 -99 -89 -167q-85 -65 -198 -65q-67 0 -106 31q-42 34 -42 99q0 32 17 48q13 12 33 12q16 0 27 -10t11 -29q0 -28 34 -44q27 -13 58 -13q68 0 122 37q65 44 65 118q0 32 -16 42t-47 10
q-10 0 -20 -0.5t-20 -0.5q-40 0 -40 33q0 14 14 27t41 19q62 15 118 73t56 104q0 38 -44 38q-45 0 -96 -30q-46 -27 -76 -64q-14 -17 -27.5 -33t-21.5 -16q-24 0 -24 30q0 41 84 115q96 84 185 84q52 0 78 -34q23 -30 23 -80z" />
    <glyph glyph-name="Egrave" unicode="&#xc8;" horiz-adv-x="529" 
d="M599 563q0 -28 -61 -117q-39 -57 -78 -113q-29 -51 -44 -92.5t-15 -60.5q0 -26 15 -59t15 -43q0 -33 -6 -45q-10 -20 -43 -20q-40 0 -57 46q-12 32 -12 74q0 8 0.5 11t10.5 39q-58 -84 -92 -118q-63 -64 -121 -64q-44 0 -68 20q-37 30 -37 107q0 56 34 172t68 186
q41 86 76 135q48 67 89 75q15 3 22 -6t7 -39q0 -3 -70 -118q-39 -64 -53 -99q-44 -106 -58 -179q-8 -41 -8 -96q0 -23 18.5 -34t44.5 -11q41 0 124 112q30 42 61 84q23 50 37 77q9 18 28 49q69 113 89 138q29 37 44 37q21 0 30.5 -12.5t9.5 -35.5z" />
    <glyph glyph-name="Egrave" unicode="&#x418;" horiz-adv-x="529" 
d="M599 563q0 -28 -61 -117q-39 -57 -78 -113q-29 -51 -44 -92.5t-15 -60.5q0 -26 15 -59t15 -43q0 -33 -6 -45q-10 -20 -43 -20q-40 0 -57 46q-12 32 -12 74q0 8 0.5 11t10.5 39q-58 -84 -92 -118q-63 -64 -121 -64q-44 0 -68 20q-37 30 -37 107q0 56 34 172t68 186
q41 86 76 135q48 67 89 75q15 3 22 -6t7 -39q0 -3 -70 -118q-39 -64 -53 -99q-44 -106 -58 -179q-8 -41 -8 -96q0 -23 18.5 -34t44.5 -11q41 0 124 112q30 42 61 84q23 50 37 77q9 18 28 49q69 113 89 138q29 37 44 37q21 0 30.5 -12.5t9.5 -35.5z" />
    <glyph glyph-name="Eacute" unicode="&#xc9;" horiz-adv-x="539" 
d="M701 888q0 -12 -31 -36q-35 -28 -80 -47t-77.5 -27.5t-49.5 -8.5q-52 0 -82 20q-35 25 -35 61q0 4 3.5 22t22.5 33t45 15q41 0 58 -40q7 -21 11 -29t11 -8q15 0 39 5t53.5 17t45.5 19q42 19 49 19q17 0 17 -15zM599 563q0 -28 -61 -117q-39 -57 -78 -113
q-29 -51 -44 -92.5t-15 -60.5q0 -26 15 -59t15 -43q0 -33 -6 -45q-10 -20 -43 -20q-40 0 -57 46q-12 32 -12 74q0 8 0.5 11t10.5 39q-58 -84 -92 -118q-63 -64 -121 -64q-44 0 -68 20q-37 30 -37 107q0 53 38 172q27 86 67 183q35 87 67 134q44 64 89 70q20 3 27.5 -7
t7.5 -29q0 -3 -70 -118q-39 -64 -53 -99q-44 -106 -58 -179q-8 -41 -8 -96q0 -23 18.5 -34t44.5 -11q41 0 124 112q30 42 61 84q23 50 37 77q9 18 28 49q69 113 89 138q29 37 44 37q21 0 30.5 -12.5t9.5 -35.5z" />
    <glyph glyph-name="Eacute" unicode="&#x419;" horiz-adv-x="539" 
d="M701 888q0 -12 -31 -36q-35 -28 -80 -47t-77.5 -27.5t-49.5 -8.5q-52 0 -82 20q-35 25 -35 61q0 4 3.5 22t22.5 33t45 15q41 0 58 -40q7 -21 11 -29t11 -8q15 0 39 5t53.5 17t45.5 19q42 19 49 19q17 0 17 -15zM599 563q0 -28 -61 -117q-39 -57 -78 -113
q-29 -51 -44 -92.5t-15 -60.5q0 -26 15 -59t15 -43q0 -33 -6 -45q-10 -20 -43 -20q-40 0 -57 46q-12 32 -12 74q0 8 0.5 11t10.5 39q-58 -84 -92 -118q-63 -64 -121 -64q-44 0 -68 20q-37 30 -37 107q0 53 38 172q27 86 67 183q35 87 67 134q44 64 89 70q20 3 27.5 -7
t7.5 -29q0 -3 -70 -118q-39 -64 -53 -99q-44 -106 -58 -179q-8 -41 -8 -96q0 -23 18.5 -34t44.5 -11q41 0 124 112q30 42 61 84q23 50 37 77q9 18 28 49q69 113 89 138q29 37 44 37q21 0 30.5 -12.5t9.5 -35.5z" />
    <glyph glyph-name="Ecircumflex" unicode="&#xca;" horiz-adv-x="653" 
d="M758 126q0 -20 -82 -66q-92 -52 -161 -52q-125 0 -180 98q-41 73 -41 188q-30 -32 -61 -75q-25 -35 -57 -86q-40 -63 -44 -69q-41 -58 -77 -58q-12 0 -24.5 4t-21.5 14q-6 9 -6 28q0 38 18 72q13 25 73 165q66 154 99 225q55 117 76 134q12 9 23 9q15 0 26 -12t11 -24
q0 -25 -25 -68q-12 -21 -24 -41q-27 -50 -56 -114q-38 -84 -75 -168q45 47 90 95q50 48 85 79q14 12 34 29q37 29 114 93q57 48 84 65q37 24 62 24q17 0 33.5 -8t16.5 -23v-12q0 -25 -6 -36q-10 -17 -40 -26q-77 -36 -145 -78q-53 -33 -101 -71q0 -96 33 -168
q41 -89 122 -104q16 -2 24 -2q38 0 87 18l92 40q24 0 24 -19z" />
    <glyph glyph-name="Ecircumflex" unicode="&#x41a;" horiz-adv-x="653" 
d="M758 126q0 -20 -82 -66q-92 -52 -161 -52q-125 0 -180 98q-41 73 -41 188q-30 -32 -61 -75q-25 -35 -57 -86q-40 -63 -44 -69q-41 -58 -77 -58q-12 0 -24.5 4t-21.5 14q-6 9 -6 28q0 38 18 72q13 25 73 165q66 154 99 225q55 117 76 134q12 9 23 9q15 0 26 -12t11 -24
q0 -25 -25 -68q-12 -21 -24 -41q-27 -50 -56 -114q-38 -84 -75 -168q45 47 90 95q50 48 85 79q14 12 34 29q37 29 114 93q57 48 84 65q37 24 62 24q17 0 33.5 -8t16.5 -23v-12q0 -25 -6 -36q-10 -17 -40 -26q-77 -36 -145 -78q-53 -33 -101 -71q0 -96 33 -168
q41 -89 122 -104q16 -2 24 -2q38 0 87 18l92 40q24 0 24 -19z" />
    <glyph glyph-name="Edieresis" unicode="&#xcb;" horiz-adv-x="477" 
d="M513 619q-2 -18 -42 -202q-20 -94 -25 -137t-5 -80q0 -40 4.5 -71.5t13.5 -52.5q5 -12 5 -23q0 -38 -41 -61q-12 -6 -23 -6q-21 0 -36 18t-15 40q0 45 3.5 94t20.5 151q21 121 23 134q13 69 26 118h-6q-33 -76 -65 -151q-21 -48 -50 -103q-43 -84 -88 -157t-71 -104
q-20 -24 -35 -29t-44 -5q-18 0 -26 12.5t-8 33.5q0 23 7 33t32.5 30t39.5 37q25 28 50 62q29 40 58 85q22 34 54 95l52 100q34 68 49 93q24 45 49 91q24 39 54 39q22 0 31.5 -13.5t9.5 -40.5q0 -19 -2 -30z" />
    <glyph glyph-name="Edieresis" unicode="&#x41b;" horiz-adv-x="477" 
d="M513 619q-2 -18 -42 -202q-20 -94 -25 -137t-5 -80q0 -40 4.5 -71.5t13.5 -52.5q5 -12 5 -23q0 -38 -41 -61q-12 -6 -23 -6q-21 0 -36 18t-15 40q0 45 3.5 94t20.5 151q21 121 23 134q13 69 26 118h-6q-33 -76 -65 -151q-21 -48 -50 -103q-43 -84 -88 -157t-71 -104
q-20 -24 -35 -29t-44 -5q-18 0 -26 12.5t-8 33.5q0 23 7 33t32.5 30t39.5 37q25 28 50 62q29 40 58 85q22 34 54 95l52 100q34 68 49 93q24 45 49 91q24 39 54 39q22 0 31.5 -13.5t9.5 -40.5q0 -19 -2 -30z" />
    <glyph glyph-name="Igrave" unicode="&#xcc;" horiz-adv-x="672" 
d="M743 609q0 -30 -50 -135l-76 -154q-13 -29 -26 -90t-13 -83q-1 -9 -1 -13q0 -16 4.5 -38.5t4.5 -28.5q0 -29 -8 -44q-11 -21 -40 -21q-33 0 -45 30q-8 20 -8 57v19q0 29 46 161q42 122 75 195q-104 -144 -125 -169q-101 -121 -162 -121q-36 0 -65 58q-25 50 -25 91
q-24 -63 -48 -125q-35 -86 -64 -133q-39 -63 -71 -63q-19 0 -33.5 11.5t-14.5 32.5q0 13 30 66q106 188 121 219q22 45 58 137.5t53 125.5q29 55 51 55q17 0 28 -9q16 -13 16 -41q0 -20 -29.5 -92t-29.5 -91v-28q0 -55 5 -80q9 -45 33 -45q28 0 91 70q30 34 109 136
q62 80 79 92q26 33 53 67q26 29 38 29q20 0 29.5 -12.5t9.5 -35.5z" />
    <glyph glyph-name="Igrave" unicode="&#x41c;" horiz-adv-x="672" 
d="M743 609q0 -30 -50 -135l-76 -154q-13 -29 -26 -90t-13 -83q-1 -9 -1 -13q0 -16 4.5 -38.5t4.5 -28.5q0 -29 -8 -44q-11 -21 -40 -21q-33 0 -45 30q-8 20 -8 57v19q0 29 46 161q42 122 75 195q-104 -144 -125 -169q-101 -121 -162 -121q-36 0 -65 58q-25 50 -25 91
q-24 -63 -48 -125q-35 -86 -64 -133q-39 -63 -71 -63q-19 0 -33.5 11.5t-14.5 32.5q0 13 30 66q106 188 121 219q22 45 58 137.5t53 125.5q29 55 51 55q17 0 28 -9q16 -13 16 -41q0 -20 -29.5 -92t-29.5 -91v-28q0 -55 5 -80q9 -45 33 -45q28 0 91 70q30 34 109 136
q62 80 79 92q26 33 53 67q26 29 38 29q20 0 29.5 -12.5t9.5 -35.5z" />
    <glyph glyph-name="Iacute" unicode="&#xcd;" horiz-adv-x="489" 
d="M537 582q0 -47 -84 -198q-60 -108 -61 -110q48 7 96 7q28 0 28 -18q0 -21 -49 -33l-98 -24q-18 -68 -35 -135q-27 -75 -73 -75q-44 0 -44 38q0 18 8 28q12 13 24 27q18 23 28.5 57t16.5 55q-15 -4 -58 -10.5t-61 -9.5q-11 -62 -33 -116q-29 -69 -57 -69q-45 0 -45 60
q0 14 27 61q17 30 25 49q-46 -8 -91 -15q-19 0 -31.5 10.5t-12.5 33.5q0 29 11.5 47t26.5 18q27 0 65 -3t65 -3q23 59 52 133q24 63 45 115q27 69 37 91q21 47 26 54q17 25 46 25q18 0 22.5 -11t4.5 -41q0 -13 -26 -60q-43 -79 -62 -118.5t-39 -91t-34 -96.5q35 0 59 2
q41 5 64 7q7 16 82 185q55 124 67 158q5 15 18 26t22 9q14 -3 21 -14.5t7 -44.5z" />
    <glyph glyph-name="Iacute" unicode="&#x41d;" horiz-adv-x="489" 
d="M537 582q0 -47 -84 -198q-60 -108 -61 -110q48 7 96 7q28 0 28 -18q0 -21 -49 -33l-98 -24q-18 -68 -35 -135q-27 -75 -73 -75q-44 0 -44 38q0 18 8 28q12 13 24 27q18 23 28.5 57t16.5 55q-15 -4 -58 -10.5t-61 -9.5q-11 -62 -33 -116q-29 -69 -57 -69q-45 0 -45 60
q0 14 27 61q17 30 25 49q-46 -8 -91 -15q-19 0 -31.5 10.5t-12.5 33.5q0 29 11.5 47t26.5 18q27 0 65 -3t65 -3q23 59 52 133q24 63 45 115q27 69 37 91q21 47 26 54q17 25 46 25q18 0 22.5 -11t4.5 -41q0 -13 -26 -60q-43 -79 -62 -118.5t-39 -91t-34 -96.5q35 0 59 2
q41 5 64 7q7 16 82 185q55 124 67 158q5 15 18 26t22 9q14 -3 21 -14.5t7 -44.5z" />
    <glyph glyph-name="Icircumflex" unicode="&#xce;" horiz-adv-x="467" 
d="M573 544q0 -128 -72 -254q-65 -113 -161.5 -188.5t-171.5 -75.5q-68 0 -110 31q-47 35 -47 98q0 40 73 152q67 103 148 199q85 101 118 117q10 5 23.5 9.5t23.5 4.5q13 0 22 -10q6 -9 13 -17q19 11 30 16q22 11 43 11q8 0 22 -2t30 -29t16 -62zM515 510q0 11 -13.5 19
t-25.5 9q-25 0 -86 -45.5t-105 -102.5q-21 -27 -27.5 -87t-42.5 -60q-18 0 -24 30t-6 67q-37 -42 -57 -75q-30 -49 -30 -89q0 -28 36 -44q27 -12 60 -12q85 0 200 132q121 139 121 258z" />
    <glyph glyph-name="Icircumflex" unicode="&#x41e;" horiz-adv-x="467" 
d="M573 544q0 -128 -72 -254q-65 -113 -161.5 -188.5t-171.5 -75.5q-68 0 -110 31q-47 35 -47 98q0 40 73 152q67 103 148 199q85 101 118 117q10 5 23.5 9.5t23.5 4.5q13 0 22 -10q6 -9 13 -17q19 11 30 16q22 11 43 11q8 0 22 -2t30 -29t16 -62zM515 510q0 11 -13.5 19
t-25.5 9q-25 0 -86 -45.5t-105 -102.5q-21 -27 -27.5 -87t-42.5 -60q-18 0 -24 30t-6 67q-37 -42 -57 -75q-30 -49 -30 -89q0 -28 36 -44q27 -12 60 -12q85 0 200 132q121 139 121 258z" />
    <glyph glyph-name="Idieresis" unicode="&#xcf;" horiz-adv-x="462" 
d="M664 622q0 -27 -51 -43q-34 -11 -101 -20q-39 -97 -70 -175q-42 -105 -61 -157q-13 -36 -25 -90q-7 -30 -15 -85t-57 -55q-24 0 -32.5 11t-8.5 33q0 50 36 138q3 8 43 102l117 271q-12 0 -39 -4q-60 -9 -70 -9q-10 -24 -44 -98q-21 -44 -32 -71q-58 -138 -68 -163
q-32 -82 -45 -130l-14 -54q-12 -26 -41 -26q-45 0 -45 60q0 24 32 91.5t64 132.5q24 53 49 102q70 140 71 141q-43 -8 -70.5 -12t-39.5 -4q-42 0 -42 46q0 29 11 47.5t27 18.5q34 0 106.5 -2.5t94.5 -2.5q88 0 177 13q33 5 63.5 9t51.5 4q28 0 28 -19z" />
    <glyph glyph-name="Idieresis" unicode="&#x41f;" horiz-adv-x="462" 
d="M664 622q0 -27 -51 -43q-34 -11 -101 -20q-39 -97 -70 -175q-42 -105 -61 -157q-13 -36 -25 -90q-7 -30 -15 -85t-57 -55q-24 0 -32.5 11t-8.5 33q0 50 36 138q3 8 43 102l117 271q-12 0 -39 -4q-60 -9 -70 -9q-10 -24 -44 -98q-21 -44 -32 -71q-58 -138 -68 -163
q-32 -82 -45 -130l-14 -54q-12 -26 -41 -26q-45 0 -45 60q0 24 32 91.5t64 132.5q24 53 49 102q70 140 71 141q-43 -8 -70.5 -12t-39.5 -4q-42 0 -42 46q0 29 11 47.5t27 18.5q34 0 106.5 -2.5t94.5 -2.5q88 0 177 13q33 5 63.5 9t51.5 4q28 0 28 -19z" />
    <glyph glyph-name="Eth" unicode="&#xd0;" horiz-adv-x="432" 
d="M549 450q0 -97 -124 -175q-100 -63 -191 -73q-9 -21 -22 -55q-8 -21 -18 -51q-14 -45 -21 -59q-20 -41 -59 -41q-23 0 -36.5 11.5t-13.5 30.5q0 26 33 83q27 47 55 82q-29 4 -41.5 13t-12.5 30q0 11 12.5 26.5t22.5 15.5h17q18 0 55 4q28 51 71 110q48 66 104 126
q-18 8 -44.5 15t-44.5 7q-59 0 -119 -27q-44 -20 -75 -47q-20 -20 -46 -20q-17 0 -21 9t-4 24q0 44 101.5 93.5t196.5 49.5q101 0 160 -44q65 -48 65 -138zM465 441q0 13 -14 29q-19 18 -25 25l-146 -198q81 14 133 52.5t52 91.5z" />
    <glyph glyph-name="Eth" unicode="&#x420;" horiz-adv-x="432" 
d="M549 450q0 -97 -124 -175q-100 -63 -191 -73q-9 -21 -22 -55q-8 -21 -18 -51q-14 -45 -21 -59q-20 -41 -59 -41q-23 0 -36.5 11.5t-13.5 30.5q0 26 33 83q27 47 55 82q-29 4 -41.5 13t-12.5 30q0 11 12.5 26.5t22.5 15.5h17q18 0 55 4q28 51 71 110q48 66 104 126
q-18 8 -44.5 15t-44.5 7q-59 0 -119 -27q-44 -20 -75 -47q-20 -20 -46 -20q-17 0 -21 9t-4 24q0 44 101.5 93.5t196.5 49.5q101 0 160 -44q65 -48 65 -138zM465 441q0 13 -14 29q-19 18 -25 25l-146 -198q81 14 133 52.5t52 91.5z" />
    <glyph glyph-name="Ntilde" unicode="&#xd1;" horiz-adv-x="412" 
d="M487 185q0 -56 -122 -115q-92 -45 -214 -45q-83 0 -114 26q-35 30 -35 117q0 36 54 147q63 130 136 214q96 110 183 110q37 0 69 -30q29 -27 29 -51q0 -64 -100 -126q-87 -54 -138 -54q-15 0 -21 2t-6 15q0 25 25 25q17 2 43.5 14t58.5 32q51 33 51 67q0 19 -21 19
q-66 0 -139 -80q-63 -69 -107.5 -164.5t-44.5 -145.5q0 -25 31 -32q18 -4 69 -4q89 0 166 27q64 30 128 61q10 0 14.5 -9t4.5 -20z" />
    <glyph glyph-name="Ntilde" unicode="&#x421;" horiz-adv-x="412" 
d="M487 185q0 -56 -122 -115q-92 -45 -214 -45q-83 0 -114 26q-35 30 -35 117q0 36 54 147q63 130 136 214q96 110 183 110q37 0 69 -30q29 -27 29 -51q0 -64 -100 -126q-87 -54 -138 -54q-15 0 -21 2t-6 15q0 25 25 25q17 2 43.5 14t58.5 32q51 33 51 67q0 19 -21 19
q-66 0 -139 -80q-63 -69 -107.5 -164.5t-44.5 -145.5q0 -25 31 -32q18 -4 69 -4q89 0 166 27q64 30 128 61q10 0 14.5 -9t4.5 -20z" />
    <glyph glyph-name="Ograve" unicode="&#xd2;" horiz-adv-x="395" 
d="M608 558q0 -26 -22 -37q-17 -8 -45 -8q-17 0 -40 12t-42 12q-5 1 -14 1h-14q-22 0 -46 -2.5t-47 -7.5q-36 -82 -46 -107q-47 -114 -60 -194q-8 -47 -15 -94t-7 -83q0 -54 -59 -54q-29 0 -37.5 16t-8.5 43v11q0 44 33 138q25 71 69 174q30 70 61 141q-31 -5 -70 -16
t-78 -26q-23 -10 -43.5 -18t-35.5 -6q-40 4 -35 43q4 26 93 53q74 23 182 41q89 14 147 20.5t94 6.5q33 0 59.5 -16t26.5 -43z" />
    <glyph glyph-name="Ograve" unicode="&#x422;" horiz-adv-x="395" 
d="M608 558q0 -26 -22 -37q-17 -8 -45 -8q-17 0 -40 12t-42 12q-5 1 -14 1h-14q-22 0 -46 -2.5t-47 -7.5q-36 -82 -46 -107q-47 -114 -60 -194q-8 -47 -15 -94t-7 -83q0 -54 -59 -54q-29 0 -37.5 16t-8.5 43v11q0 44 33 138q25 71 69 174q30 70 61 141q-31 -5 -70 -16
t-78 -26q-23 -10 -43.5 -18t-35.5 -6q-40 4 -35 43q4 26 93 53q74 23 182 41q89 14 147 20.5t94 6.5q33 0 59.5 -16t26.5 -43z" />
    <glyph glyph-name="Oacute" unicode="&#xd3;" horiz-adv-x="505" 
d="M599 622q0 -43 -33.5 -101t-107.5 -142q-54 -159 -123 -254q-87 -121 -186 -121q-72 0 -120 26.5t-48 61.5q0 21 15.5 41t37.5 20q15 0 27.5 -7t29.5 -23q23 -20 67 -20q67 0 133 69q59 62 92 150q-44 -53 -70 -73q-34 -26 -76 -26q-40 0 -64.5 24.5t-24.5 69.5
q0 28 21 77q54 126 54.5 129t0.5 11q0 12 -3 28q-8 43 -8 54q1 9 1 13q2 19 18 34t34 15q26 0 39 -8.5t13 -36.5q0 -26 -39.5 -143.5t-39.5 -142.5q0 -14 9 -21t21 -7q18 0 63.5 31t71.5 62q47 141 58 167q41 92 84 92q30 0 41.5 -13t11.5 -36z" />
    <glyph glyph-name="Oacute" unicode="&#x423;" horiz-adv-x="505" 
d="M599 622q0 -43 -33.5 -101t-107.5 -142q-54 -159 -123 -254q-87 -121 -186 -121q-72 0 -120 26.5t-48 61.5q0 21 15.5 41t37.5 20q15 0 27.5 -7t29.5 -23q23 -20 67 -20q67 0 133 69q59 62 92 150q-44 -53 -70 -73q-34 -26 -76 -26q-40 0 -64.5 24.5t-24.5 69.5
q0 28 21 77q54 126 54.5 129t0.5 11q0 12 -3 28q-8 43 -8 54q1 9 1 13q2 19 18 34t34 15q26 0 39 -8.5t13 -36.5q0 -26 -39.5 -143.5t-39.5 -142.5q0 -14 9 -21t21 -7q18 0 63.5 31t71.5 62q47 141 58 167q41 92 84 92q30 0 41.5 -13t11.5 -36z" />
    <glyph glyph-name="Ocircumflex" unicode="&#xd4;" horiz-adv-x="503" 
d="M576 433q0 -109 -88 -202q-98 -103 -237 -103q-9 -27 -14.5 -61.5t-5.5 -55.5q0 -35 -22 -54q-16 -14 -36 -14q-22 0 -33.5 12t-11.5 40q0 16 14 58q5 14 32 86q-69 13 -107 80q-28 50 -28 98q0 118 52 208q45 77 82 77h34q7 -1 22 -13q33 23 57 31q33 11 83 11
q4 9 15 40q3 10 7 21q19 45 31 64q24 36 52 36q18 0 24.5 -11.5t6.5 -39.5q0 -19 -12.5 -49.5t-36.5 -74.5q59 -17 89.5 -64.5t30.5 -119.5zM511 433q0 38 -24 66q-30 35 -85 35q-16 -28 -24 -45q-14 -29 -25 -57q-20 -51 -28 -72q-13 -33 -27 -82l-16 -53q109 0 164 43
q65 50 65 165zM335 534q-47 0 -75 -6.5t-57 -32.5q-12 -12 -18 -32t-10 -44q0 -30 -7 -49.5t-21 -19.5q-28 0 -28 31v43q-11 -21 -16.5 -39.5t-5.5 -50.5q0 -75 111 -100q5 16 7 20l12 26q21 54 52 126z" />
    <glyph glyph-name="Ocircumflex" unicode="&#x424;" horiz-adv-x="503" 
d="M576 433q0 -109 -88 -202q-98 -103 -237 -103q-9 -27 -14.5 -61.5t-5.5 -55.5q0 -35 -22 -54q-16 -14 -36 -14q-22 0 -33.5 12t-11.5 40q0 16 14 58q5 14 32 86q-69 13 -107 80q-28 50 -28 98q0 118 52 208q45 77 82 77h34q7 -1 22 -13q33 23 57 31q33 11 83 11
q4 9 15 40q3 10 7 21q19 45 31 64q24 36 52 36q18 0 24.5 -11.5t6.5 -39.5q0 -19 -12.5 -49.5t-36.5 -74.5q59 -17 89.5 -64.5t30.5 -119.5zM511 433q0 38 -24 66q-30 35 -85 35q-16 -28 -24 -45q-14 -29 -25 -57q-20 -51 -28 -72q-13 -33 -27 -82l-16 -53q109 0 164 43
q65 50 65 165zM335 534q-47 0 -75 -6.5t-57 -32.5q-12 -12 -18 -32t-10 -44q0 -30 -7 -49.5t-21 -19.5q-28 0 -28 31v43q-11 -21 -16.5 -39.5t-5.5 -50.5q0 -75 111 -100q5 16 7 20l12 26q21 54 52 126z" />
    <glyph glyph-name="Otilde" unicode="&#xd5;" horiz-adv-x="437" 
d="M491 578q0 -22 -59 -97q-20 -26 -117 -139q-68 -80 -84 -107q-1 -10 -1 -16q0 -51 15 -91q20 -53 56 -53q32 0 63.5 22.5t36.5 22.5q15 0 21.5 -11t6.5 -29q0 -31 -47 -62q-53 -35 -115 -35q-47 0 -82 58q-27 45 -41 114q-4 -4 -60 -92q-40 -63 -69 -63q-21 0 -29 3
q-20 8 -20 33q0 49 101 145q40 36 80 73q0 16 13 103q17 113 37 186q28 100 57 100q21 0 33.5 -16.5t12.5 -38.5q0 -5 -2 -15q-7 -37 -21 -90t-31 -108q74 93 118 147q84 102 106 102q11 0 16 -13.5t5 -32.5z" />
    <glyph glyph-name="Otilde" unicode="&#x425;" horiz-adv-x="437" 
d="M491 578q0 -22 -59 -97q-20 -26 -117 -139q-68 -80 -84 -107q-1 -10 -1 -16q0 -51 15 -91q20 -53 56 -53q32 0 63.5 22.5t36.5 22.5q15 0 21.5 -11t6.5 -29q0 -31 -47 -62q-53 -35 -115 -35q-47 0 -82 58q-27 45 -41 114q-4 -4 -60 -92q-40 -63 -69 -63q-21 0 -29 3
q-20 8 -20 33q0 49 101 145q40 36 80 73q0 16 13 103q17 113 37 186q28 100 57 100q21 0 33.5 -16.5t12.5 -38.5q0 -5 -2 -15q-7 -37 -21 -90t-31 -108q74 93 118 147q84 102 106 102q11 0 16 -13.5t5 -32.5z" />
    <glyph glyph-name="Odieresis" unicode="&#xd6;" horiz-adv-x="439" 
d="M256 106q-4 6 -4 17q0 21 23 98.5t54.5 150t50.5 111.5q32 65 58 100q32 43 58 43q21 0 26 -9t5 -31q0 -18 -30 -66q-99 -160 -117 -198q-13 -28 -60 -145q-21 -52 -29 -67q26 4 52 12t40 8q16 0 26 -9t10 -29q0 -18 -22.5 -112t-22.5 -121q0 -42 -5 -60q-9 -30 -34 -30
q-26 0 -40 15t-14 46q0 49 15 106.5t35 100.5q-43 -11 -86 -21q-42 -8 -77 -8q-90 0 -117 16q-38 22 -38 98q0 24 41 127.5t91 198.5q50 106 69 144q33 64 62 64q20 0 28.5 -13.5t8.5 -38.5q0 -14 -34 -68q-104 -164 -109 -174q-42 -84 -62 -135q-24 -61 -24 -95
q0 -18 17 -23.5t49 -5.5h31z" />
    <glyph glyph-name="Odieresis" unicode="&#x426;" horiz-adv-x="439" 
d="M256 106q-4 6 -4 17q0 21 23 98.5t54.5 150t50.5 111.5q32 65 58 100q32 43 58 43q21 0 26 -9t5 -31q0 -18 -30 -66q-99 -160 -117 -198q-13 -28 -60 -145q-21 -52 -29 -67q26 4 52 12t40 8q16 0 26 -9t10 -29q0 -18 -22.5 -112t-22.5 -121q0 -42 -5 -60q-9 -30 -34 -30
q-26 0 -40 15t-14 46q0 49 15 106.5t35 100.5q-43 -11 -86 -21q-42 -8 -77 -8q-90 0 -117 16q-38 22 -38 98q0 24 41 127.5t91 198.5q50 106 69 144q33 64 62 64q20 0 28.5 -13.5t8.5 -38.5q0 -14 -34 -68q-104 -164 -109 -174q-42 -84 -62 -135q-24 -61 -24 -95
q0 -18 17 -23.5t49 -5.5h31z" />
    <glyph glyph-name="multiply" unicode="&#xd7;" horiz-adv-x="498" 
d="M545 588q0 -32 -39 -101q-32 -57 -71 -106q-15 -31 -42 -126q-21 -74 -27 -102q-3 -21 -3 -37q0 -15 1 -30t2 -29q0 -30 -9 -45q-12 -20 -42 -20q-32 0 -44 22q-8 15 -8 46v23q0 34 26 96q23 53 46 107q-35 -38 -67 -58q-50 -31 -104 -31q-51 0 -77 31.5t-26 81.5v13
q2 10 3 21t47 105q50 104 55 119q11 36 31.5 60.5t47.5 24.5q16 0 27 -9q15 -13 15 -41q0 -16 -67.5 -115t-67.5 -139q0 -30 9 -46.5t34 -16.5q49 0 90 25q30 18 67 58l66 176q42 100 76 100q32 0 43 -17q8 -12 8 -40z" />
    <glyph glyph-name="multiply" unicode="&#x427;" horiz-adv-x="498" 
d="M545 588q0 -32 -39 -101q-32 -57 -71 -106q-15 -31 -42 -126q-21 -74 -27 -102q-3 -21 -3 -37q0 -15 1 -30t2 -29q0 -30 -9 -45q-12 -20 -42 -20q-32 0 -44 22q-8 15 -8 46v23q0 34 26 96q23 53 46 107q-35 -38 -67 -58q-50 -31 -104 -31q-51 0 -77 31.5t-26 81.5v13
q2 10 3 21t47 105q50 104 55 119q11 36 31.5 60.5t47.5 24.5q16 0 27 -9q15 -13 15 -41q0 -16 -67.5 -115t-67.5 -139q0 -30 9 -46.5t34 -16.5q49 0 90 25q30 18 67 58l66 176q42 100 76 100q32 0 43 -17q8 -12 8 -40z" />
    <glyph glyph-name="Oslash" unicode="&#xd8;" horiz-adv-x="618" 
d="M247 103q-8 8 -8 19q0 17 28.5 95t61 152.5t51.5 113.5q32 65 58 100q32 43 58 43q21 0 26 -9t5 -31q0 -18 -30 -66q-99 -160 -117 -198q-3 -6 -58 -148q-18 -47 -32 -70q55 0 101 7t83 13q0 24 24 105.5t55 152t52 113.5q32 65 58 100q32 43 57 43q20 0 26 -9.5t6 -29.5
q0 -18 -30 -66q-99 -160 -116 -196t-47 -113q-19 -48 -37 -96q15 0 24 -9t9 -29q0 -24 -25.5 -39t-58.5 -15q-101 -15 -165 -21.5t-138 -6.5q-90 0 -117 16q-38 22 -38 98q0 24 41 127.5t91 198.5q50 106 69 144q33 64 62 64q20 0 28.5 -13.5t8.5 -38.5q0 -14 -34 -68
q-104 -164 -109 -174q-42 -84 -62 -135q-24 -61 -24 -95q0 -18 17 -23.5t49 -5.5h31h66z" />
    <glyph glyph-name="Oslash" unicode="&#x428;" horiz-adv-x="618" 
d="M247 103q-8 8 -8 19q0 17 28.5 95t61 152.5t51.5 113.5q32 65 58 100q32 43 58 43q21 0 26 -9t5 -31q0 -18 -30 -66q-99 -160 -117 -198q-3 -6 -58 -148q-18 -47 -32 -70q55 0 101 7t83 13q0 24 24 105.5t55 152t52 113.5q32 65 58 100q32 43 57 43q20 0 26 -9.5t6 -29.5
q0 -18 -30 -66q-99 -160 -116 -196t-47 -113q-19 -48 -37 -96q15 0 24 -9t9 -29q0 -24 -25.5 -39t-58.5 -15q-101 -15 -165 -21.5t-138 -6.5q-90 0 -117 16q-38 22 -38 98q0 24 41 127.5t91 198.5q50 106 69 144q33 64 62 64q20 0 28.5 -13.5t8.5 -38.5q0 -14 -34 -68
q-104 -164 -109 -174q-42 -84 -62 -135q-24 -61 -24 -95q0 -18 17 -23.5t49 -5.5h31h66z" />
    <glyph glyph-name="Ugrave" unicode="&#xd9;" horiz-adv-x="680" 
d="M466 119q0 26 19.5 100t50.5 143q28 63 56 118q35 69 66 109q37 49 62 49q20 0 26 -9.5t6 -29.5q0 -18 -30 -66q-99 -160 -117 -198q-5 -10 -64 -143q-22 -49 -33 -69q40 0 68.5 2.5t50.5 4.5q20 0 28 -11.5t8 -26.5q0 -16 -23 -110t-23 -123q0 -42 -5 -60
q-8 -30 -33 -30q-26 0 -40 15t-14 46q0 48 15 107.5t34 99.5q-22 -4 -108 -12q-176 -17 -298 -17q-90 0 -125 21q-46 27 -46 103q0 21 47 122q41 89 96 194q36 72 71.5 140t64.5 68q20 0 28.5 -13.5t8.5 -38.5q0 -14 -34 -68q-104 -164 -109 -174q-42 -84 -62 -135
q-24 -61 -24 -95q0 -18 17 -23.5t49 -5.5h31h66v4q0 21 22 99q26 91 54 156q37 82 53 115q31 62 61 103q34 46 59 46q21 0 26 -9t5 -31q0 -18 -30 -66q-99 -160 -117 -198q-2 -4 -63 -150q-21 -51 -31 -68q44 0 99 6t81 9z" />
    <glyph glyph-name="Ugrave" unicode="&#x429;" horiz-adv-x="680" 
d="M466 119q0 26 19.5 100t50.5 143q28 63 56 118q35 69 66 109q37 49 62 49q20 0 26 -9.5t6 -29.5q0 -18 -30 -66q-99 -160 -117 -198q-5 -10 -64 -143q-22 -49 -33 -69q40 0 68.5 2.5t50.5 4.5q20 0 28 -11.5t8 -26.5q0 -16 -23 -110t-23 -123q0 -42 -5 -60
q-8 -30 -33 -30q-26 0 -40 15t-14 46q0 48 15 107.5t34 99.5q-22 -4 -108 -12q-176 -17 -298 -17q-90 0 -125 21q-46 27 -46 103q0 21 47 122q41 89 96 194q36 72 71.5 140t64.5 68q20 0 28.5 -13.5t8.5 -38.5q0 -14 -34 -68q-104 -164 -109 -174q-42 -84 -62 -135
q-24 -61 -24 -95q0 -18 17 -23.5t49 -5.5h31h66v4q0 21 22 99q26 91 54 156q37 82 53 115q31 62 61 103q34 46 59 46q21 0 26 -9t5 -31q0 -18 -30 -66q-99 -160 -117 -198q-2 -4 -63 -150q-21 -51 -31 -68q44 0 99 6t81 9z" />
    <glyph glyph-name="Uacute" unicode="&#xda;" horiz-adv-x="539" 
d="M571 257q0 -38 -36 -85q-20 -26 -69 -74q-53 -54 -106 -79t-125 -25q-48 0 -68 31q-14 22 -14 63q0 35 45 136q33 71 48 105l61 136q-22 -10 -67 -19.5t-60 -9.5q-31 0 -45 2.5t-30 13.5q-31 24 -31 58q0 9 3 18q7 25 27 40t46 15q27 0 42 -20.5t44 -20.5q11 0 70 15
t78 15q13 0 25 -5.5t12 -15.5q-2 -18 -55 -126q-32 -65 -49 -106q-24 -60 -47.5 -121t-23.5 -85q0 -16 10.5 -25.5t25.5 -9.5q36 0 75 18q22 10 59 34q31 22 57.5 62t26.5 65q1 13 -15.5 16.5t-46.5 3.5q-26 0 -57.5 -26.5t-45.5 -26.5q-16 0 -24.5 13t-8.5 32q4 41 63 68.5
t118 27.5q34 0 59 -26q29 -30 29 -82z" />
    <glyph glyph-name="Uacute" unicode="&#x42a;" horiz-adv-x="539" 
d="M571 257q0 -38 -36 -85q-20 -26 -69 -74q-53 -54 -106 -79t-125 -25q-48 0 -68 31q-14 22 -14 63q0 35 45 136q33 71 48 105l61 136q-22 -10 -67 -19.5t-60 -9.5q-31 0 -45 2.5t-30 13.5q-31 24 -31 58q0 9 3 18q7 25 27 40t46 15q27 0 42 -20.5t44 -20.5q11 0 70 15
t78 15q13 0 25 -5.5t12 -15.5q-2 -18 -55 -126q-32 -65 -49 -106q-24 -60 -47.5 -121t-23.5 -85q0 -16 10.5 -25.5t25.5 -9.5q36 0 75 18q22 10 59 34q31 22 57.5 62t26.5 65q1 13 -15.5 16.5t-46.5 3.5q-26 0 -57.5 -26.5t-45.5 -26.5q-16 0 -24.5 13t-8.5 32q4 41 63 68.5
t118 27.5q34 0 59 -26q29 -30 29 -82z" />
    <glyph glyph-name="Ucircumflex" unicode="&#xdb;" horiz-adv-x="620" 
d="M688 539q-53 -117 -93 -207q-44 -98 -44 -142q0 -29 4.5 -74t4.5 -48q-3 -36 -7 -43q-9 -19 -42 -19q-34 0 -46 22q-8 15 -8 49v22q0 30 9.5 70t45.5 138q42 115 73 180q46 97 73 97q16 0 23 -7t7 -38zM459 257q0 -38 -36 -85q-19 -26 -69 -74q-53 -54 -106 -79t-125 -25
q-39 0 -58 18q-24 22 -24 76q0 23 18 71q10 27 74 170q16 35 43.5 108t33.5 100t24 42.5t41 15.5q14 0 25 -5.5t11 -15.5q0 -23 -55 -142q-42 -90 -51 -113t-36 -90q-36 -90 -36 -116q0 -35 37 -35q36 0 75 18q22 10 58 34q30 20 57 61t27 66q2 13 -14.5 16.5t-46.5 3.5
q-27 0 -58.5 -26.5t-44.5 -26.5q-15 0 -25 14t-8 31q0 40 64 70q56 26 117 26q34 0 59 -26q29 -30 29 -82z" />
    <glyph glyph-name="Ucircumflex" unicode="&#x42b;" horiz-adv-x="620" 
d="M688 539q-53 -117 -93 -207q-44 -98 -44 -142q0 -29 4.5 -74t4.5 -48q-3 -36 -7 -43q-9 -19 -42 -19q-34 0 -46 22q-8 15 -8 49v22q0 30 9.5 70t45.5 138q42 115 73 180q46 97 73 97q16 0 23 -7t7 -38zM459 257q0 -38 -36 -85q-19 -26 -69 -74q-53 -54 -106 -79t-125 -25
q-39 0 -58 18q-24 22 -24 76q0 23 18 71q10 27 74 170q16 35 43.5 108t33.5 100t24 42.5t41 15.5q14 0 25 -5.5t11 -15.5q0 -23 -55 -142q-42 -90 -51 -113t-36 -90q-36 -90 -36 -116q0 -35 37 -35q36 0 75 18q22 10 58 34q30 20 57 61t27 66q2 13 -14.5 16.5t-46.5 3.5
q-27 0 -58.5 -26.5t-44.5 -26.5q-15 0 -25 14t-8 31q0 40 64 70q56 26 117 26q34 0 59 -26q29 -30 29 -82z" />
    <glyph glyph-name="Udieresis" unicode="&#xdc;" horiz-adv-x="462" 
d="M459 257q0 -38 -36 -85q-19 -26 -69 -74q-53 -54 -106 -79t-125 -25q-39 0 -58 18q-24 22 -24 76q0 23 18 71q10 27 74 170q16 35 43.5 108t33.5 100t24 42.5t41 15.5q14 0 25 -5.5t11 -15.5q0 -23 -55 -142q-42 -90 -51 -113t-36 -90q-36 -90 -36 -116q0 -35 37 -35
q36 0 75 18q22 10 58 34q30 20 57 61t27 66q2 13 -14.5 16.5t-46.5 3.5q-27 0 -58.5 -26.5t-44.5 -26.5q-15 0 -25 14t-8 31q0 40 64 70q56 26 117 26q34 0 59 -26q29 -30 29 -82z" />
    <glyph glyph-name="Udieresis" unicode="&#x42c;" horiz-adv-x="462" 
d="M459 257q0 -38 -36 -85q-19 -26 -69 -74q-53 -54 -106 -79t-125 -25q-39 0 -58 18q-24 22 -24 76q0 23 18 71q10 27 74 170q16 35 43.5 108t33.5 100t24 42.5t41 15.5q14 0 25 -5.5t11 -15.5q0 -23 -55 -142q-42 -90 -51 -113t-36 -90q-36 -90 -36 -116q0 -35 37 -35
q36 0 75 18q22 10 58 34q30 20 57 61t27 66q2 13 -14.5 16.5t-46.5 3.5q-27 0 -58.5 -26.5t-44.5 -26.5q-15 0 -25 14t-8 31q0 40 64 70q56 26 117 26q34 0 59 -26q29 -30 29 -82z" />
    <glyph glyph-name="Yacute" unicode="&#xdd;" horiz-adv-x="473" 
d="M548 321q0 -20 -23 -27t-63 -7q-40 -73 -84 -130q-54 -70 -106 -106q-62 -43 -125 -43q-43 0 -98 27t-55 51q0 25 15.5 42.5t38.5 17.5t72 -20.5t65 -20.5q55 0 118 56q55 49 101 127q-27 0 -76 -6q-123 -15 -136 -15h-13q-33 0 -50.5 4t-17.5 19q0 28 13.5 46.5
t34.5 18.5l160 2q26 0 70 4.5t55 4.5q16 36 24.5 72t8.5 58q0 17 -15.5 26t-66.5 9h-19q-89 0 -157 -29q-53 -33 -106 -65q-9 0 -13.5 14.5t-4.5 27.5q0 54 101 108q84 45 203 45q83 0 114 -26q35 -30 35 -117q0 -12 -11.5 -43.5t-33.5 -80.5q21 -3 33 -13.5t12 -30.5z" />
    <glyph glyph-name="Yacute" unicode="&#x42d;" horiz-adv-x="473" 
d="M548 321q0 -20 -23 -27t-63 -7q-40 -73 -84 -130q-54 -70 -106 -106q-62 -43 -125 -43q-43 0 -98 27t-55 51q0 25 15.5 42.5t38.5 17.5t72 -20.5t65 -20.5q55 0 118 56q55 49 101 127q-27 0 -76 -6q-123 -15 -136 -15h-13q-33 0 -50.5 4t-17.5 19q0 28 13.5 46.5
t34.5 18.5l160 2q26 0 70 4.5t55 4.5q16 36 24.5 72t8.5 58q0 17 -15.5 26t-66.5 9h-19q-89 0 -157 -29q-53 -33 -106 -65q-9 0 -13.5 14.5t-4.5 27.5q0 54 101 108q84 45 203 45q83 0 114 -26q35 -30 35 -117q0 -12 -11.5 -43.5t-33.5 -80.5q21 -3 33 -13.5t12 -30.5z" />
    <glyph glyph-name="Thorn" unicode="&#xde;" horiz-adv-x="705" 
d="M826 565q0 -193 -136 -375q-130 -174 -246 -174q-68 0 -110 31q-47 35 -47 98q0 4 6 28.5t18 64.5l-86 -6l-32 -150q-27 -86 -75 -86q-46 0 -46 60q0 14 30 80l44 96q-30 -9 -52.5 -14t-43.5 -5q-19 0 -31.5 13.5t-12.5 37.5q0 16 11.5 33t32.5 17q19 0 58 -3t66 -3
q17 47 35 95q7 19 93 222q20 51 25 59q18 28 47 28t39.5 -10.5t10.5 -37.5q0 -22 -62 -119q-40 -62 -58.5 -99t-31 -68.5t-24.5 -67.5q7 -1 12.5 -1h11.5q23 0 38 1.5t33 3.5q55 106 139 211q81 100 121 119q10 5 23.5 9.5t23.5 4.5q13 0 22 -10q6 -9 13 -17q19 11 30 16
q22 11 43 11q8 0 22 -2t30 -29t16 -62zM768 531q0 11 -13.5 19t-25.5 9q-27 0 -76 -35q-55 -39 -99 -97q-21 -27 -24 -89q-6 -106 -39 -106q-18 0 -24 30t-6 68q-37 -42 -57 -75q-30 -49 -30 -89q0 -28 36 -44q29 -13 60 -13q82 0 190 149.5t108 272.5z" />
    <glyph glyph-name="Thorn" unicode="&#x42e;" horiz-adv-x="705" 
d="M826 565q0 -193 -136 -375q-130 -174 -246 -174q-68 0 -110 31q-47 35 -47 98q0 4 6 28.5t18 64.5l-86 -6l-32 -150q-27 -86 -75 -86q-46 0 -46 60q0 14 30 80l44 96q-30 -9 -52.5 -14t-43.5 -5q-19 0 -31.5 13.5t-12.5 37.5q0 16 11.5 33t32.5 17q19 0 58 -3t66 -3
q17 47 35 95q7 19 93 222q20 51 25 59q18 28 47 28t39.5 -10.5t10.5 -37.5q0 -22 -62 -119q-40 -62 -58.5 -99t-31 -68.5t-24.5 -67.5q7 -1 12.5 -1h11.5q23 0 38 1.5t33 3.5q55 106 139 211q81 100 121 119q10 5 23.5 9.5t23.5 4.5q13 0 22 -10q6 -9 13 -17q19 11 30 16
q22 11 43 11q8 0 22 -2t30 -29t16 -62zM768 531q0 11 -13.5 19t-25.5 9q-27 0 -76 -35q-55 -39 -99 -97q-21 -27 -24 -89q-6 -106 -39 -106q-18 0 -24 30t-6 68q-37 -42 -57 -75q-30 -49 -30 -89q0 -28 36 -44q29 -13 60 -13q82 0 190 149.5t108 272.5z" />
    <glyph glyph-name="germandbls" unicode="&#xdf;" horiz-adv-x="450" 
d="M580 607q0 -22 -14.5 -40t-36.5 -18l-46 -118q-31 -79 -71 -191q-16 -42 -28 -90t-12 -82q0 -31 -16 -51t-41 -20q-22 0 -36.5 15.5t-14.5 35.5q0 44 28 106.5t58 126.5l114 268h-19t-21 1q-22 0 -42 -2t-39 -9q-88 -32 -121 -68q-27 -30 -27 -69q0 -24 19 -36.5
t76 -12.5q35 0 42 -1q36 -5 36 -26q0 -17 -18 -46q-7 -11 -24 -35q-33 -45 -90 -105q-38 -41 -77 -77q-30 -28 -66 -47t-68 -19q-23 0 -37 12t-14 39q0 26 42.5 43t83.5 33q40 20 96 64.5t90 79.5q-95 0 -134 27.5t-39 83.5q0 73 95 159q90 82 159.5 94.5t91 15.5t68.5 3
q53 0 53 -44z" />
    <glyph glyph-name="germandbls" unicode="&#x42f;" horiz-adv-x="450" 
d="M580 607q0 -22 -14.5 -40t-36.5 -18l-46 -118q-31 -79 -71 -191q-16 -42 -28 -90t-12 -82q0 -31 -16 -51t-41 -20q-22 0 -36.5 15.5t-14.5 35.5q0 44 28 106.5t58 126.5l114 268h-19t-21 1q-22 0 -42 -2t-39 -9q-88 -32 -121 -68q-27 -30 -27 -69q0 -24 19 -36.5
t76 -12.5q35 0 42 -1q36 -5 36 -26q0 -17 -18 -46q-7 -11 -24 -35q-33 -45 -90 -105q-38 -41 -77 -77q-30 -28 -66 -47t-68 -19q-23 0 -37 12t-14 39q0 26 42.5 43t83.5 33q40 20 96 64.5t90 79.5q-95 0 -134 27.5t-39 83.5q0 73 95 159q90 82 159.5 94.5t91 15.5t68.5 3
q53 0 53 -44z" />
    <glyph glyph-name="agrave" unicode="&#xe0;" horiz-adv-x="413" 
d="M482 107q0 -18 -68 -58.5t-104 -40.5q-46 0 -62 23q-14 33 -24 53q-33 -30 -55 -46q-42 -30 -102 -30q-38 0 -50 13t-12 43q0 57 75 124t142 67q42 0 63 -23t25 -62q1 -6 0 -23t-1 -27q0 -20 5 -31t20 -11q20 0 54.5 15t71.5 32q22 0 22 -18zM206 156q0 16 -18 16
q-24 0 -54 -27t-30 -47q1 -9 25 -9q18 0 47.5 24t29.5 43z" />
    <glyph glyph-name="agrave" unicode="&#x430;" horiz-adv-x="413" 
d="M482 107q0 -18 -68 -58.5t-104 -40.5q-46 0 -62 23q-14 33 -24 53q-33 -30 -55 -46q-42 -30 -102 -30q-38 0 -50 13t-12 43q0 57 75 124t142 67q42 0 63 -23t25 -62q1 -6 0 -23t-1 -27q0 -20 5 -31t20 -11q20 0 54.5 15t71.5 32q22 0 22 -18zM206 156q0 16 -18 16
q-24 0 -54 -27t-30 -47q1 -9 25 -9q18 0 47.5 24t29.5 43z" />
    <glyph glyph-name="aacute" unicode="&#xe1;" horiz-adv-x="349" 
d="M499 644q0 -20 -11.5 -36.5t-26 -20t-57 -7.5t-58.5 -4q-11 0 -36 4t-32 4q-10 0 -21.5 -11.5t-11.5 -21.5q0 -17 3 -45t8 -66q22 -139 22 -242q-1 -14 -4.5 -32.5t-7.5 -25.5q44 15 74 31q11 7 23.5 14t24.5 7q10 0 16 -8t2 -16q-11 -24 -43 -39q-22 -11 -44 -21
q-10 -5 -39.5 -17t-51.5 -25q-48 -44 -88 -66q-35 -19 -59 -19q-28 0 -54 21q-30 25 -30 61q0 74 76 153q67 70 103 70q21 0 29 -4q7 -7 12 -10l-22 158q-4 33 -12.5 83t-8.5 70v15t4 24q8 39 39 51q16 6 53 6q24 0 61 -8q23 -5 35 -5q21 0 52.5 6.5t43.5 6.5
q18 0 27.5 -10.5t9.5 -24.5zM194 139q2 12 2 20q0 10 -6 16t-22 6q-24 0 -50.5 -40t-26.5 -59q0 -8 4.5 -16.5t12.5 -8.5q27 0 56.5 30.5t29.5 51.5z" />
    <glyph glyph-name="aacute" unicode="&#x431;" horiz-adv-x="349" 
d="M499 644q0 -20 -11.5 -36.5t-26 -20t-57 -7.5t-58.5 -4q-11 0 -36 4t-32 4q-10 0 -21.5 -11.5t-11.5 -21.5q0 -17 3 -45t8 -66q22 -139 22 -242q-1 -14 -4.5 -32.5t-7.5 -25.5q44 15 74 31q11 7 23.5 14t24.5 7q10 0 16 -8t2 -16q-11 -24 -43 -39q-22 -11 -44 -21
q-10 -5 -39.5 -17t-51.5 -25q-48 -44 -88 -66q-35 -19 -59 -19q-28 0 -54 21q-30 25 -30 61q0 74 76 153q67 70 103 70q21 0 29 -4q7 -7 12 -10l-22 158q-4 33 -12.5 83t-8.5 70v15t4 24q8 39 39 51q16 6 53 6q24 0 61 -8q23 -5 35 -5q21 0 52.5 6.5t43.5 6.5
q18 0 27.5 -10.5t9.5 -24.5zM194 139q2 12 2 20q0 10 -6 16t-22 6q-24 0 -50.5 -40t-26.5 -59q0 -8 4.5 -16.5t12.5 -8.5q27 0 56.5 30.5t29.5 51.5z" />
    <glyph glyph-name="acircumflex" unicode="&#xe2;" horiz-adv-x="295" 
d="M416 691q0 -39 -34 -112q-28 -61 -85 -153q-43 -69 -108 -165q15 -8 22.5 -31.5t7.5 -47.5q0 -12 -2 -24q19 0 40 4t41 13q11 5 39 24q22 15 36 15q15 0 22.5 -9.5t7.5 -21.5q0 -27 -77 -73q-20 -11 -64 -20q-28 -5 -69 -11q-23 -72 -37 -96q-29 -51 -72 -51
q-31 0 -51 11q-27 15 -27 44q0 53 23 128q18 59 56 149q16 38 38 96q57 151 61 161q43 106 82 157q47 62 98 62q29 0 40.5 -13t11.5 -36zM313 572q0 15 -15 15q-14 0 -53 -85q-34 -74 -54 -137q33 46 74 112q48 78 48 95zM131 98q4 13 0 19t-11 5q-36 -7 -42 -52
q-1 -5 -1 -17t2.5 -18.5t9.5 -4.5q15 2 26.5 22.5t15.5 45.5z" />
    <glyph glyph-name="acircumflex" unicode="&#x432;" horiz-adv-x="295" 
d="M416 691q0 -39 -34 -112q-28 -61 -85 -153q-43 -69 -108 -165q15 -8 22.5 -31.5t7.5 -47.5q0 -12 -2 -24q19 0 40 4t41 13q11 5 39 24q22 15 36 15q15 0 22.5 -9.5t7.5 -21.5q0 -27 -77 -73q-20 -11 -64 -20q-28 -5 -69 -11q-23 -72 -37 -96q-29 -51 -72 -51
q-31 0 -51 11q-27 15 -27 44q0 53 23 128q18 59 56 149q16 38 38 96q57 151 61 161q43 106 82 157q47 62 98 62q29 0 40.5 -13t11.5 -36zM313 572q0 15 -15 15q-14 0 -53 -85q-34 -74 -54 -137q33 46 74 112q48 78 48 95zM131 98q4 13 0 19t-11 5q-36 -7 -42 -52
q-1 -5 -1 -17t2.5 -18.5t9.5 -4.5q15 2 26.5 22.5t15.5 45.5z" />
    <glyph glyph-name="atilde" unicode="&#xe3;" horiz-adv-x="312" 
d="M371 102q0 -20 -82 -68q-89 -52 -150 -52q-60 0 -88 27q-22 21 -22 53q0 38 50 66q36 17 73 34q28 15 35 21q17 14 17 32q0 22 -21 22q-16 0 -28.5 -4.5t-15.5 -17.5q-10 -29 -11 -31q-10 -16 -36 -16q-18 0 -23 8.5t-5 28.5v10q0 25 39 57q44 36 92 36q46 0 69.5 -24.5
t23.5 -68.5q0 -38 -50 -65q-28 -14 -55 -28q-18 -9 -35 -17q-19 -11 -19 -28q0 -16 19 -16q16 1 25 1q15 0 68 18l116 42q14 0 14 -10v-10z" />
    <glyph glyph-name="atilde" unicode="&#x433;" horiz-adv-x="312" 
d="M371 102q0 -20 -82 -68q-89 -52 -150 -52q-60 0 -88 27q-22 21 -22 53q0 38 50 66q36 17 73 34q28 15 35 21q17 14 17 32q0 22 -21 22q-16 0 -28.5 -4.5t-15.5 -17.5q-10 -29 -11 -31q-10 -16 -36 -16q-18 0 -23 8.5t-5 28.5v10q0 25 39 57q44 36 92 36q46 0 69.5 -24.5
t23.5 -68.5q0 -38 -50 -65q-28 -14 -55 -28q-18 -9 -35 -17q-19 -11 -19 -28q0 -16 19 -16q16 1 25 1q15 0 68 18l116 42q14 0 14 -10v-10z" />
    <glyph glyph-name="adieresis" unicode="&#xe4;" horiz-adv-x="305" 
d="M329 279q-10 -1 -15 -1t-13 3q0 -28 -1 -40t-8 -45q-23 -106 -79 -160.5t-132 -54.5q-28 0 -54 21q-30 25 -30 61q0 77 65 145q58 61 103 61q46 0 71 -27q3 11 4 26t1 31q-25 11 -50.5 24t-46.5 27q-69 49 -98 100q-25 44 -25 97q0 52 35 90.5t88 38.5q85 0 128 -121
q33 -93 33 -220q45 -12 45 -33q0 -23 -21 -23zM241 360q0 74 -28 150q-32 86 -73 86q-18 0 -27 -19t-9 -36q0 -34 37 -87q15 -21 43.5 -48.5t56.5 -45.5zM203 139q0 16 -11.5 25.5t-26.5 9.5q-27 0 -50.5 -36.5t-23.5 -55.5q0 -8 4.5 -16.5t12.5 -8.5q30 0 62.5 26t32.5 56z
" />
    <glyph glyph-name="adieresis" unicode="&#x434;" horiz-adv-x="305" 
d="M329 279q-10 -1 -15 -1t-13 3q0 -28 -1 -40t-8 -45q-23 -106 -79 -160.5t-132 -54.5q-28 0 -54 21q-30 25 -30 61q0 77 65 145q58 61 103 61q46 0 71 -27q3 11 4 26t1 31q-25 11 -50.5 24t-46.5 27q-69 49 -98 100q-25 44 -25 97q0 52 35 90.5t88 38.5q85 0 128 -121
q33 -93 33 -220q45 -12 45 -33q0 -23 -21 -23zM241 360q0 74 -28 150q-32 86 -73 86q-18 0 -27 -19t-9 -36q0 -34 37 -87q15 -21 43.5 -48.5t56.5 -45.5zM203 139q0 16 -11.5 25.5t-26.5 9.5q-27 0 -50.5 -36.5t-23.5 -55.5q0 -8 4.5 -16.5t12.5 -8.5q30 0 62.5 26t32.5 56z
" />
    <glyph glyph-name="aring" unicode="&#xe5;" horiz-adv-x="283" 
d="M342 102q0 -23 -75 -60q-85 -42 -162 -42q-33 0 -55 16q-12 8 -31 33q-10 12 -12.5 23.5t-2.5 33.5q0 53 44 123q55 88 129 88q46 0 68.5 -19.5t22.5 -54.5q0 -44 -59 -90q-54 -42 -104 -47q0 -16 11 -24t29 -8q46 0 109 25l60 26q16 0 22 -3.5t6 -19.5zM200 214
q0 17 -13 17q-22 2 -47 -20q-19 -17 -35 -43q31 0 63 16.5t32 29.5z" />
    <glyph glyph-name="aring" unicode="&#x435;" horiz-adv-x="283" 
d="M342 102q0 -23 -75 -60q-85 -42 -162 -42q-33 0 -55 16q-12 8 -31 33q-10 12 -12.5 23.5t-2.5 33.5q0 53 44 123q55 88 129 88q46 0 68.5 -19.5t22.5 -54.5q0 -44 -59 -90q-54 -42 -104 -47q0 -16 11 -24t29 -8q46 0 109 25l60 26q16 0 22 -3.5t6 -19.5zM200 214
q0 17 -13 17q-22 2 -47 -20q-19 -17 -35 -43q31 0 63 16.5t32 29.5z" />
    <glyph glyph-name="ae" unicode="&#xe6;" horiz-adv-x="620" 
d="M712 181q0 -29 -75 -97q-84 -76 -151 -76q-43 0 -65 27q-18 22 -18 55q0 8 1.5 18.5t2.5 16.5q-16 -10 -39.5 -28t-68.5 -55q-26 -89 -47 -149q-40 -115 -77 -115q-19 0 -32.5 16.5t-13.5 41.5q0 22 54 117q45 79 75 122l24 64q-6 -4 -38 -26q-25 -17 -42 -26
q-47 -54 -60 -65q-37 -31 -81 -31q-27 0 -38 9t-11 35q0 18 14 29t35 11q37 0 78 40t41 75q0 19 -5.5 23t-20.5 4q-7 0 -33 -18q-13 -9 -30 -9t-23.5 6.5t-6.5 20.5q0 27 33 61q38 39 86 39q43 0 67 -28q20 -24 20 -56q0 -12 -11 -38q-5 -12 -11 -27q11 6 30.5 23.5
t34.5 25.5l56 162q46 120 74 120q38 0 38 -42q0 -39 -28.5 -105.5t-67.5 -107.5q-9 -19 -22 -52.5t-23 -52.5q20 11 46.5 29.5t54.5 38.5q33 46 72.5 78t71.5 32q23 0 33.5 -12t10.5 -29q0 -25 -11 -34t-33 -9q-31 0 -61 -29q-35 -34 -35 -83q0 -13 7 -23.5t20 -10.5
q44 0 90 35l88 78q21 0 21 -19z" />
    <glyph glyph-name="ae" unicode="&#x436;" horiz-adv-x="620" 
d="M712 181q0 -29 -75 -97q-84 -76 -151 -76q-43 0 -65 27q-18 22 -18 55q0 8 1.5 18.5t2.5 16.5q-16 -10 -39.5 -28t-68.5 -55q-26 -89 -47 -149q-40 -115 -77 -115q-19 0 -32.5 16.5t-13.5 41.5q0 22 54 117q45 79 75 122l24 64q-6 -4 -38 -26q-25 -17 -42 -26
q-47 -54 -60 -65q-37 -31 -81 -31q-27 0 -38 9t-11 35q0 18 14 29t35 11q37 0 78 40t41 75q0 19 -5.5 23t-20.5 4q-7 0 -33 -18q-13 -9 -30 -9t-23.5 6.5t-6.5 20.5q0 27 33 61q38 39 86 39q43 0 67 -28q20 -24 20 -56q0 -12 -11 -38q-5 -12 -11 -27q11 6 30.5 23.5
t34.5 25.5l56 162q46 120 74 120q38 0 38 -42q0 -39 -28.5 -105.5t-67.5 -107.5q-9 -19 -22 -52.5t-23 -52.5q20 11 46.5 29.5t54.5 38.5q33 46 72.5 78t71.5 32q23 0 33.5 -12t10.5 -29q0 -25 -11 -34t-33 -9q-31 0 -61 -29q-35 -34 -35 -83q0 -13 7 -23.5t20 -10.5
q44 0 90 35l88 78q21 0 21 -19z" />
    <glyph glyph-name="ccedilla" unicode="&#xe7;" horiz-adv-x="335" 
d="M433 179q0 -7 -7 -15t-27 -23l-197 -152q4 -14 9 -48.5t5 -57.5q0 -85 -70 -163.5t-134 -78.5q-39 0 -75 34t-36 79q0 74 88 156q39 36 128 95q-7 14 -13 22l-18 24q-8 8 -15 17.5t-7 22.5q0 19 44 39q22 9 44 19q29 16 43.5 29t17.5 33q0 24 -21 24q-23 0 -36 -6.5
t-16 -17.5q-8 -27 -13 -34q-12 -18 -40 -18q-18 0 -23.5 7t-5.5 23v22q0 28 47 63q53 39 106 39q48 0 68 -28q17 -24 17 -74q0 -48 -57 -87q-49 -34 -99 -39q9 -9 16 -18q17 -21 22 -27q89 63 138 96q90 62 99 62q6 0 12 -6t6 -13zM137 -117v12q0 10 -1 26t-4 30
q-29 -17 -71 -63q-49 -54 -49 -83q0 -18 10 -34.5t24 -16.5q27 0 59 44.5t32 84.5z" />
    <glyph glyph-name="ccedilla" unicode="&#x437;" horiz-adv-x="335" 
d="M433 179q0 -7 -7 -15t-27 -23l-197 -152q4 -14 9 -48.5t5 -57.5q0 -85 -70 -163.5t-134 -78.5q-39 0 -75 34t-36 79q0 74 88 156q39 36 128 95q-7 14 -13 22l-18 24q-8 8 -15 17.5t-7 22.5q0 19 44 39q22 9 44 19q29 16 43.5 29t17.5 33q0 24 -21 24q-23 0 -36 -6.5
t-16 -17.5q-8 -27 -13 -34q-12 -18 -40 -18q-18 0 -23.5 7t-5.5 23v22q0 28 47 63q53 39 106 39q48 0 68 -28q17 -24 17 -74q0 -48 -57 -87q-49 -34 -99 -39q9 -9 16 -18q17 -21 22 -27q89 63 138 96q90 62 99 62q6 0 12 -6t6 -13zM137 -117v12q0 10 -1 26t-4 30
q-29 -17 -71 -63q-49 -54 -49 -83q0 -18 10 -34.5t24 -16.5q27 0 59 44.5t32 84.5z" />
    <glyph glyph-name="egrave" unicode="&#xe8;" horiz-adv-x="452" 
d="M505 90q0 -20 -70 -58t-105 -38q-42 0 -59.5 24.5t-17.5 63.5q0 16 1 24q-48 -48 -93 -75q-52 -31 -94 -31q-29 0 -46.5 17.5t-17.5 44.5q0 4 2 16q10 45 28 86q3 6 32 67q11 23 32.5 33.5t35.5 6.5q13 -4 13 -24v-13q0 -12 -22 -61t-22 -63q0 -11 12 -11q21 0 54 16
t70 43q13 9 42 45q24 30 35 30q23 0 32.5 -8.5t9.5 -23.5q0 -9 -3.5 -18.5t-9 -18.5t-10 -36t-4.5 -46q0 -14 11 -14q31 0 71.5 13t83.5 28q9 -2 9 -19z" />
    <glyph glyph-name="egrave" unicode="&#x438;" horiz-adv-x="452" 
d="M505 90q0 -20 -70 -58t-105 -38q-42 0 -59.5 24.5t-17.5 63.5q0 16 1 24q-48 -48 -93 -75q-52 -31 -94 -31q-29 0 -46.5 17.5t-17.5 44.5q0 4 2 16q10 45 28 86q3 6 32 67q11 23 32.5 33.5t35.5 6.5q13 -4 13 -24v-13q0 -12 -22 -61t-22 -63q0 -11 12 -11q21 0 54 16
t70 43q13 9 42 45q24 30 35 30q23 0 32.5 -8.5t9.5 -23.5q0 -9 -3.5 -18.5t-9 -18.5t-10 -36t-4.5 -46q0 -14 11 -14q31 0 71.5 13t83.5 28q9 -2 9 -19z" />
    <glyph glyph-name="eacute" unicode="&#xe9;" horiz-adv-x="452" 
d="M529 471q0 -13 -26 -36.5t-68 -42t-72.5 -26.5t-49.5 -8q-50 0 -80 20q-34 26 -34 62q0 8 1 12q5 23 23 33.5t45 10.5q19 0 30.5 -9t20.5 -24q6 -10 13 -26.5t14 -17.5q28 0 45.5 5.5t46.5 18.5q42 23 55 29.5t22 6.5q14 0 14 -8zM515 90q0 -20 -70 -58t-105 -38
q-41 0 -57.5 21t-16.5 60v15q2 11 2 16q-54 -47 -94 -72q-56 -34 -97 -34q-29 0 -46.5 17.5t-17.5 44.5q0 4 2 16q8 39 31 85q13 25 55 98q9 14 26.5 29t28.5 12q13 -5 13 -20q-1 -12 -1 -19q0 -12 -28 -75t-28 -78q0 -11 12 -11q21 0 54 16t70 43q4 3 65 72q23 26 33 26
q16 0 22 -13t6 -29q-13 -37 -23.5 -67.5t-10.5 -51.5q0 -27 11 -27q31 0 71.5 13t83.5 28q9 -2 9 -19z" />
    <glyph glyph-name="eacute" unicode="&#x439;" horiz-adv-x="452" 
d="M529 471q0 -13 -26 -36.5t-68 -42t-72.5 -26.5t-49.5 -8q-50 0 -80 20q-34 26 -34 62q0 8 1 12q5 23 23 33.5t45 10.5q19 0 30.5 -9t20.5 -24q6 -10 13 -26.5t14 -17.5q28 0 45.5 5.5t46.5 18.5q42 23 55 29.5t22 6.5q14 0 14 -8zM515 90q0 -20 -70 -58t-105 -38
q-41 0 -57.5 21t-16.5 60v15q2 11 2 16q-54 -47 -94 -72q-56 -34 -97 -34q-29 0 -46.5 17.5t-17.5 44.5q0 4 2 16q8 39 31 85q13 25 55 98q9 14 26.5 29t28.5 12q13 -5 13 -20q-1 -12 -1 -19q0 -12 -28 -75t-28 -78q0 -11 12 -11q21 0 54 16t70 43q4 3 65 72q23 26 33 26
q16 0 22 -13t6 -29q-13 -37 -23.5 -67.5t-10.5 -51.5q0 -27 11 -27q31 0 71.5 13t83.5 28q9 -2 9 -19z" />
    <glyph glyph-name="ecircumflex" unicode="&#xea;" horiz-adv-x="403" 
d="M503 180q0 -26 -83 -96q-93 -78 -160 -78q-50 0 -76 34q-16 21 -24 61q-39 -37 -61 -57q-42 -38 -61 -38q-21 0 -27.5 12.5t-6.5 35.5v13q0 25 46.5 144t69.5 119q26 0 33 -9t7 -29q0 -13 -38 -100l-30 -68q94 91 154 146q66 60 98 60q26 0 34 -13.5t8 -41.5
q0 -35 -84 -74q-59 -27 -88 -52q12 -28 25 -43q20 -24 47 -24q40 0 93 38q50 41 100 83q9 0 16.5 -7.5t7.5 -15.5z" />
    <glyph glyph-name="ecircumflex" unicode="&#x43a;" horiz-adv-x="403" 
d="M503 180q0 -26 -83 -96q-93 -78 -160 -78q-50 0 -76 34q-16 21 -24 61q-39 -37 -61 -57q-42 -38 -61 -38q-21 0 -27.5 12.5t-6.5 35.5v13q0 25 46.5 144t69.5 119q26 0 33 -9t7 -29q0 -13 -38 -100l-30 -68q94 91 154 146q66 60 98 60q26 0 34 -13.5t8 -41.5
q0 -35 -84 -74q-59 -27 -88 -52q12 -28 25 -43q20 -24 47 -24q40 0 93 38q50 41 100 83q9 0 16.5 -7.5t7.5 -15.5z" />
    <glyph glyph-name="edieresis" unicode="&#xeb;" horiz-adv-x="484" 
d="M586 172q0 -23 -98 -93q-107 -76 -170 -76q-43 0 -61 20q-14 16 -14 44q0 9 9 36q1 3 13 36l-58 -74q-60 -62 -120 -62q-35 0 -59 23t-24 58q0 51 16 74t55 23q29 0 39 -23q6 -14 6 -40q0 -17 3.5 -19t17.5 -2q28 0 105.5 102.5t97.5 102.5q19 0 33 -10.5t14 -28.5
t-31 -77t-31 -68q0 -14 2.5 -21.5t12.5 -7.5q47 0 108 32l114 70q20 0 20 -19z" />
    <glyph glyph-name="edieresis" unicode="&#x43b;" horiz-adv-x="484" 
d="M586 172q0 -23 -98 -93q-107 -76 -170 -76q-43 0 -61 20q-14 16 -14 44q0 9 9 36q1 3 13 36l-58 -74q-60 -62 -120 -62q-35 0 -59 23t-24 58q0 51 16 74t55 23q29 0 39 -23q6 -14 6 -40q0 -17 3.5 -19t17.5 -2q28 0 105.5 102.5t97.5 102.5q19 0 33 -10.5t14 -28.5
t-31 -77t-31 -68q0 -14 2.5 -21.5t12.5 -7.5q47 0 108 32l114 70q20 0 20 -19z" />
    <glyph glyph-name="igrave" unicode="&#xec;" horiz-adv-x="760" 
d="M843 174q-8 -30 -97 -97q-100 -76 -163 -76q-43 0 -65 30q-17 23 -17 54q0 9 6 28l15 42q-46 -44 -91 -88q-63 -53 -122 -53q-26 0 -35 16t-9 41q0 21 6.5 49t13.5 54q-91 -100 -94 -103q-65 -63 -105 -63q-6 -1 -8 -1q-37 0 -54.5 25t-17.5 63q0 52 15.5 74t55.5 22
q29 0 39 -23q6 -14 6 -40q0 -19 4 -20.5t12 -1.5q11 0 94 93t120 93q18 0 26.5 -13.5t8.5 -32.5q0 -17 -17.5 -62.5t-17.5 -55.5q0 -17 5 -25.5t12 -7.5q24 2 108.5 92t105.5 90q15 0 30.5 -7.5t15.5 -23.5q0 -18 -10 -48q-13 -36 -25 -72q0 -17 2 -24t12 -7q54 0 111 30
l104 68q10 0 16 -5t4 -14z" />
    <glyph glyph-name="igrave" unicode="&#x43c;" horiz-adv-x="760" 
d="M843 174q-8 -30 -97 -97q-100 -76 -163 -76q-43 0 -65 30q-17 23 -17 54q0 9 6 28l15 42q-46 -44 -91 -88q-63 -53 -122 -53q-26 0 -35 16t-9 41q0 21 6.5 49t13.5 54q-91 -100 -94 -103q-65 -63 -105 -63q-6 -1 -8 -1q-37 0 -54.5 25t-17.5 63q0 52 15.5 74t55.5 22
q29 0 39 -23q6 -14 6 -40q0 -19 4 -20.5t12 -1.5q11 0 94 93t120 93q18 0 26.5 -13.5t8.5 -32.5q0 -17 -17.5 -62.5t-17.5 -55.5q0 -17 5 -25.5t12 -7.5q24 2 108.5 92t105.5 90q15 0 30.5 -7.5t15.5 -23.5q0 -18 -10 -48q-13 -36 -25 -72q0 -17 2 -24t12 -7q54 0 111 30
l104 68q10 0 16 -5t4 -14z" />
    <glyph glyph-name="iacute" unicode="&#xed;" horiz-adv-x="465" 
d="M555 174q0 -22 -96.5 -96t-137.5 -74q-48 0 -68 20q-16 16 -16 45q0 9 5 25.5t14 33.5q-21 -10 -51 -14.5t-53 -4.5h-18q-4 -10 -9 -25t-6 -23q-4 -20 -7 -39q-7 -22 -34 -22q-26 0 -35.5 20t-9.5 49q0 15 11 39q5 10 17 32q-28 22 -28 39q0 13 6.5 20t11.5 7
q14 0 34 -17q8 13 22 42t19 37q7 15 20 24.5t27 9.5q20 0 25 -12q2 -5 2 -27q-1 -13 -21 -53q-6 -12 -20 -42q28 0 43 2.5t46 13.5q15 5 25 11q17 10 18 11q14 33 33.5 50t35.5 17q12 0 15.5 -10.5t3.5 -27.5q0 -15 -29 -73t-29 -70t10 -12q41 0 95 35q55 39 111 78
q18 0 18 -19z" />
    <glyph glyph-name="iacute" unicode="&#x43d;" horiz-adv-x="465" 
d="M555 174q0 -22 -96.5 -96t-137.5 -74q-48 0 -68 20q-16 16 -16 45q0 9 5 25.5t14 33.5q-21 -10 -51 -14.5t-53 -4.5h-18q-4 -10 -9 -25t-6 -23q-4 -20 -7 -39q-7 -22 -34 -22q-26 0 -35.5 20t-9.5 49q0 15 11 39q5 10 17 32q-28 22 -28 39q0 13 6.5 20t11.5 7
q14 0 34 -17q8 13 22 42t19 37q7 15 20 24.5t27 9.5q20 0 25 -12q2 -5 2 -27q-1 -13 -21 -53q-6 -12 -20 -42q28 0 43 2.5t46 13.5q15 5 25 11q17 10 18 11q14 33 33.5 50t35.5 17q12 0 15.5 -10.5t3.5 -27.5q0 -15 -29 -73t-29 -70t10 -12q41 0 95 35q55 39 111 78
q18 0 18 -19z" />
    <glyph glyph-name="icircumflex" unicode="&#xee;" horiz-adv-x="339" 
d="M407 168q0 -20 -25 -35t-52 -15q-18 0 -35 5.5t-32 17.5q-42 -56 -83 -111q-51 -49 -99 -49q-28 0 -54 21q-30 25 -30 61q0 73 84 147q72 63 111 63q59 0 81 -24q16 -17 16 -52q10 -8 25.5 -13t26.5 -5q10 0 29.5 5.5t22.5 5.5q14 0 14 -22zM194 139q0 26 -10 29
q-20 5 -56.5 -32.5t-36.5 -53.5q0 -8 4.5 -16.5t12.5 -8.5q27 0 56.5 30.5t29.5 51.5z" />
    <glyph glyph-name="icircumflex" unicode="&#x43e;" horiz-adv-x="339" 
d="M407 168q0 -20 -25 -35t-52 -15q-18 0 -35 5.5t-32 17.5q-42 -56 -83 -111q-51 -49 -99 -49q-28 0 -54 21q-30 25 -30 61q0 73 84 147q72 63 111 63q59 0 81 -24q16 -17 16 -52q10 -8 25.5 -13t26.5 -5q10 0 29.5 5.5t22.5 5.5q14 0 14 -22zM194 139q0 26 -10 29
q-20 5 -56.5 -32.5t-36.5 -53.5q0 -8 4.5 -16.5t12.5 -8.5q27 0 56.5 30.5t29.5 51.5z" />
    <glyph glyph-name="idieresis" unicode="&#xef;" horiz-adv-x="494" 
d="M552 89q0 -8 -37 -33q-84 -57 -151 -57q-35 0 -52.5 23t-17.5 49q0 14 9.5 38t9.5 30q0 13 -7 13q-8 0 -61 -50q-22 -20 -47 -41t-49 -33q-33 -17 -63 -17q-29 0 -44 16t-15 40q0 20 17 72.5t30 79.5q9 21 26.5 35.5t36.5 14.5q23 0 29 -11t6 -39q0 -9 -28 -86
q-4 -16 -7 -31q18 0 35 9t36 28q31 31 62 63q37 33 70 33q30 0 45.5 -13.5t15.5 -34.5q0 -8 -11.5 -47t-11.5 -43q0 -30 23 -30q29 0 65 14q33 15 67 31q19 0 19 -23z" />
    <glyph glyph-name="idieresis" unicode="&#x43f;" horiz-adv-x="494" 
d="M552 89q0 -8 -37 -33q-84 -57 -151 -57q-35 0 -52.5 23t-17.5 49q0 14 9.5 38t9.5 30q0 13 -7 13q-8 0 -61 -50q-22 -20 -47 -41t-49 -33q-33 -17 -63 -17q-29 0 -44 16t-15 40q0 20 17 72.5t30 79.5q9 21 26.5 35.5t36.5 14.5q23 0 29 -11t6 -39q0 -9 -28 -86
q-4 -16 -7 -31q18 0 35 9t36 28q31 31 62 63q37 33 70 33q30 0 45.5 -13.5t15.5 -34.5q0 -8 -11.5 -47t-11.5 -43q0 -30 23 -30q29 0 65 14q33 15 67 31q19 0 19 -23z" />
    <glyph glyph-name="eth" unicode="&#xf0;" horiz-adv-x="383" 
d="M438 72q0 -17 -14 -25q-6 -4 -38 -12q-20 -7 -72 -13t-77 -6q-18 -10 -41 -13.5t-47 -3.5q-20 0 -36.5 3.5t-29.5 13.5q-22 -56 -42 -126q-25 -92 -49 -184q-7 -21 -31 -38.5t-39 -17.5t-20 15.5t-5 34.5q0 35 32.5 111.5t66.5 153.5q45 103 64 168q7 25 9.5 58t2.5 41
q0 15 -0.5 30t-0.5 29q0 16 14.5 36t38.5 20q18 0 26 -16t8 -43q0 -9 -1.5 -19.5t-2.5 -15.5q32 37 45 49q36 31 68 31q33 0 51 -31.5t18 -70.5q0 -43 -17 -91q-13 -35 -31 -63q4 -1 13 -1q19 0 53 6t70 13q14 0 14 -23zM251 214q0 26 -24 26q-17 0 -38 -19.5t-30 -37.5
q20 0 40.5 -11t34.5 -31q3 13 7 26q10 34 10 47zM195 80q-6 14 -14 24t-13 10q-26 0 -26 -19q0 -9 7.5 -16t20.5 -7q6 -1 10.5 0.5t14.5 7.5z" />
    <glyph glyph-name="eth" unicode="&#x440;" horiz-adv-x="383" 
d="M438 72q0 -17 -14 -25q-6 -4 -38 -12q-20 -7 -72 -13t-77 -6q-18 -10 -41 -13.5t-47 -3.5q-20 0 -36.5 3.5t-29.5 13.5q-22 -56 -42 -126q-25 -92 -49 -184q-7 -21 -31 -38.5t-39 -17.5t-20 15.5t-5 34.5q0 35 32.5 111.5t66.5 153.5q45 103 64 168q7 25 9.5 58t2.5 41
q0 15 -0.5 30t-0.5 29q0 16 14.5 36t38.5 20q18 0 26 -16t8 -43q0 -9 -1.5 -19.5t-2.5 -15.5q32 37 45 49q36 31 68 31q33 0 51 -31.5t18 -70.5q0 -43 -17 -91q-13 -35 -31 -63q4 -1 13 -1q19 0 53 6t70 13q14 0 14 -23zM251 214q0 26 -24 26q-17 0 -38 -19.5t-30 -37.5
q20 0 40.5 -11t34.5 -31q3 13 7 26q10 34 10 47zM195 80q-6 14 -14 24t-13 10q-26 0 -26 -19q0 -9 7.5 -16t20.5 -7q6 -1 10.5 0.5t14.5 7.5z" />
    <glyph glyph-name="ntilde" unicode="&#xf1;" horiz-adv-x="268" 
d="M341 170q0 -26 -97 -98q-106 -79 -172 -79q-42 0 -63.5 21.5t-21.5 51.5q0 71 72.5 145.5t126.5 74.5q38 0 49.5 -7.5t11.5 -29.5q0 -23 -13.5 -29.5t-43.5 -6.5q-38 0 -72.5 -37.5t-34.5 -74.5q0 -27 28 -27q48 0 130 60q40 30 81 60q15 0 17 -5.5t2 -18.5z" />
    <glyph glyph-name="ntilde" unicode="&#x441;" horiz-adv-x="268" 
d="M341 170q0 -26 -97 -98q-106 -79 -172 -79q-42 0 -63.5 21.5t-21.5 51.5q0 71 72.5 145.5t126.5 74.5q38 0 49.5 -7.5t11.5 -29.5q0 -23 -13.5 -29.5t-43.5 -6.5q-38 0 -72.5 -37.5t-34.5 -74.5q0 -27 28 -27q48 0 130 60q40 30 81 60q15 0 17 -5.5t2 -18.5z" />
    <glyph glyph-name="ograve" unicode="&#xf2;" horiz-adv-x="776" 
d="M852 175q0 -22 -77 -90q-87 -77 -149 -77q-36 0 -58 16.5t-22 40.5q0 15 1.5 31t6.5 26q-41 -35 -77 -59q-70 -47 -128 -47q-29 0 -38.5 18t-9.5 48q0 21 3 39.5t6 36.5q-10 -6 -110 -89q-74 -61 -106 -61q-26 0 -36 13t-10 44q0 29 9 69t20 71t26 51q20 26 43 26
q10 0 17.5 -12.5t7.5 -27.5q0 -20 -8 -48q-13 -44 -25 -87q45 32 117 90q83 67 119 67q19 0 28 -13.5t9 -31.5q-8 -31 -13.5 -54.5t-5.5 -34.5q0 -13 2.5 -21.5t11.5 -8.5q24 0 111 83t108 83q12 0 22 -6.5t10 -17.5q0 -9 -21 -76q-11 -35 -11 -44q0 -12 6 -22.5t16 -10.5
q33 0 84 33q50 36 101 72q20 0 20 -19z" />
    <glyph glyph-name="ograve" unicode="&#x442;" horiz-adv-x="776" 
d="M852 175q0 -22 -77 -90q-87 -77 -149 -77q-36 0 -58 16.5t-22 40.5q0 15 1.5 31t6.5 26q-41 -35 -77 -59q-70 -47 -128 -47q-29 0 -38.5 18t-9.5 48q0 21 3 39.5t6 36.5q-10 -6 -110 -89q-74 -61 -106 -61q-26 0 -36 13t-10 44q0 29 9 69t20 71t26 51q20 26 43 26
q10 0 17.5 -12.5t7.5 -27.5q0 -20 -8 -48q-13 -44 -25 -87q45 32 117 90q83 67 119 67q19 0 28 -13.5t9 -31.5q-8 -31 -13.5 -54.5t-5.5 -34.5q0 -13 2.5 -21.5t11.5 -8.5q24 0 111 83t108 83q12 0 22 -6.5t10 -17.5q0 -9 -21 -76q-11 -35 -11 -44q0 -12 6 -22.5t16 -10.5
q33 0 84 33q50 36 101 72q20 0 20 -19z" />
    <glyph glyph-name="oacute" unicode="&#xf3;" horiz-adv-x="439" 
d="M520 171q0 -12 -80 -75q-73 -58 -121 -89q-36 -132 -73 -214q-71 -157 -146 -157q-45 0 -72 25q-31 29 -31 88q0 47 100 152q92 96 159 137q9 24 14.5 39.5t18.5 44.5q-70 -61 -121 -94.5t-85 -33.5q-41 0 -56 20q-10 13 -10 37q0 56 46 147t74 91q34 0 34 -18
q0 -16 -35.5 -87t-35.5 -103q0 -17 24 -17q22 0 71 51.5t97 101.5q56 54 85 54q24 0 24 -21q0 -27 -14 -68q-19 -51 -37 -101q7 5 84 65q54 42 67 42q19 0 19 -17zM244 -24q-48 -45 -95 -91q-66 -70 -66 -112q0 -11 11 -21t26 -10q20 0 55.5 69.5t68.5 164.5z" />
    <glyph glyph-name="oacute" unicode="&#x443;" horiz-adv-x="439" 
d="M520 171q0 -12 -80 -75q-73 -58 -121 -89q-36 -132 -73 -214q-71 -157 -146 -157q-45 0 -72 25q-31 29 -31 88q0 47 100 152q92 96 159 137q9 24 14.5 39.5t18.5 44.5q-70 -61 -121 -94.5t-85 -33.5q-41 0 -56 20q-10 13 -10 37q0 56 46 147t74 91q34 0 34 -18
q0 -16 -35.5 -87t-35.5 -103q0 -17 24 -17q22 0 71 51.5t97 101.5q56 54 85 54q24 0 24 -21q0 -27 -14 -68q-19 -51 -37 -101q7 5 84 65q54 42 67 42q19 0 19 -17zM244 -24q-48 -45 -95 -91q-66 -70 -66 -112q0 -11 11 -21t26 -10q20 0 55.5 69.5t68.5 164.5z" />
    <glyph glyph-name="ocircumflex" unicode="&#xf4;" horiz-adv-x="525" 
d="M545 586l-179 -312q22 25 48.5 39t42.5 14q36 0 60 -26t24 -63q0 -97 -79 -173q-68 -65 -123 -65q-19 0 -46 13q-32 16 -37 35q-35 -93 -62.5 -174t-49.5 -153q-8 -27 -13 -37q-12 -28 -40 -28q-31 0 -40.5 10t-9.5 25q0 14 19 60q10 25 31 68q59 121 119 242
q-20 -20 -48 -37q-39 -24 -67 -24q-54 0 -76.5 18.5t-22.5 65.5q0 67 90 164q94 101 170 101q21 0 40 -26t19 -47q8 15 19 46q28 75 39 102q27 76 55 153q43 99 96 99q14 0 24.5 -12.5t10.5 -31.5q0 -22 -14 -46zM457 214q0 21 -5.5 31.5t-22.5 10.5q-23 0 -67 -51
q-40 -46 -62 -92q0 -20 16.5 -31t31.5 -11q53 0 83 45q26 40 26 98zM256 198q0 5 2 20t2 23q0 25 -18 25q-44 0 -95 -46q-56 -51 -56 -103v-20q3 -17 20 -17q28 0 78 47q6 6 67 71z" />
    <glyph glyph-name="ocircumflex" unicode="&#x444;" horiz-adv-x="525" 
d="M545 586l-179 -312q22 25 48.5 39t42.5 14q36 0 60 -26t24 -63q0 -97 -79 -173q-68 -65 -123 -65q-19 0 -46 13q-32 16 -37 35q-35 -93 -62.5 -174t-49.5 -153q-8 -27 -13 -37q-12 -28 -40 -28q-31 0 -40.5 10t-9.5 25q0 14 19 60q10 25 31 68q59 121 119 242
q-20 -20 -48 -37q-39 -24 -67 -24q-54 0 -76.5 18.5t-22.5 65.5q0 67 90 164q94 101 170 101q21 0 40 -26t19 -47q8 15 19 46q28 75 39 102q27 76 55 153q43 99 96 99q14 0 24.5 -12.5t10.5 -31.5q0 -22 -14 -46zM457 214q0 21 -5.5 31.5t-22.5 10.5q-23 0 -67 -51
q-40 -46 -62 -92q0 -20 16.5 -31t31.5 -11q53 0 83 45q26 40 26 98zM256 198q0 5 2 20t2 23q0 25 -18 25q-44 0 -95 -46q-56 -51 -56 -103v-20q3 -17 20 -17q28 0 78 47q6 6 67 71z" />
    <glyph glyph-name="otilde" unicode="&#xf5;" horiz-adv-x="301" 
d="M374 302q0 -14 -16 -27q-46 -27 -76 -45q-30 -21 -62.5 -53.5t-48.5 -56.5q24 -34 42 -49q23 -19 55 -27q9 -2 24.5 1.5t17.5 3.5q10 0 13 -9q7 -21 -17.5 -36t-68.5 -15q-36 0 -70.5 17.5t-54.5 41.5q-15 -18 -30 -35q-22 -23 -36 -23q-18 0 -26.5 9.5t-8.5 24.5
q0 9 4 23t16.5 32.5t29.5 35.5q-12 35 -16 46q-10 31 -10 47q0 29 10 43q17 24 60 24q12 0 23 -27t17 -54q52 60 82 87q60 54 100 54q23 0 35 -10.5t12 -22.5z" />
    <glyph glyph-name="otilde" unicode="&#x445;" horiz-adv-x="301" 
d="M374 302q0 -14 -16 -27q-46 -27 -76 -45q-30 -21 -62.5 -53.5t-48.5 -56.5q24 -34 42 -49q23 -19 55 -27q9 -2 24.5 1.5t17.5 3.5q10 0 13 -9q7 -21 -17.5 -36t-68.5 -15q-36 0 -70.5 17.5t-54.5 41.5q-15 -18 -30 -35q-22 -23 -36 -23q-18 0 -26.5 9.5t-8.5 24.5
q0 9 4 23t16.5 32.5t29.5 35.5q-12 35 -16 46q-10 31 -10 47q0 29 10 43q17 24 60 24q12 0 23 -27t17 -54q52 60 82 87q60 54 100 54q23 0 35 -10.5t12 -22.5z" />
    <glyph glyph-name="odieresis" unicode="&#xf6;" horiz-adv-x="498" 
d="M593 64q0 -5 -7.5 -11t-37.5 -23q-18 -10 -46 -23q-43 -20 -69 -34l-44 -110q-38 -76 -81 -76q-36 0 -55 16t-19 37q0 51 50 95q31 28 86 54q4 8 8 20q5 10 8 20q-24 -15 -42.5 -24t-31.5 -9q-57 0 -57 77q0 22 2 34q-54 -50 -94 -74q-54 -33 -97 -33q-29 0 -46 18
t-17 44q0 4 2 16q8 38 31 88q19 42 53 101q9 16 26.5 27.5t30.5 7.5q11 -4 13 -11.5t2 -28.5q0 -13 -29.5 -76t-29.5 -76q0 -11 12 -11q21 0 54 16t70 43q14 9 39 40q48 58 60 58q28 0 28 -31q0 -13 -6 -33l-27 -105q-4 -20 9 -22q10 -2 53 28q25 18 40 22q30 8 30 -21
q0 -15 -3 -25t-13 -30q14 9 60 28t59 22q11 3 18.5 -4.5t7.5 -20.5zM363 -61q-18 -14 -38 -35q-25 -26 -25 -37q0 -10 3 -12t11 -2q11 0 32 47q8 17 17 39z" />
    <glyph glyph-name="odieresis" unicode="&#x446;" horiz-adv-x="498" 
d="M593 64q0 -5 -7.5 -11t-37.5 -23q-18 -10 -46 -23q-43 -20 -69 -34l-44 -110q-38 -76 -81 -76q-36 0 -55 16t-19 37q0 51 50 95q31 28 86 54q4 8 8 20q5 10 8 20q-24 -15 -42.5 -24t-31.5 -9q-57 0 -57 77q0 22 2 34q-54 -50 -94 -74q-54 -33 -97 -33q-29 0 -46 18
t-17 44q0 4 2 16q8 38 31 88q19 42 53 101q9 16 26.5 27.5t30.5 7.5q11 -4 13 -11.5t2 -28.5q0 -13 -29.5 -76t-29.5 -76q0 -11 12 -11q21 0 54 16t70 43q14 9 39 40q48 58 60 58q28 0 28 -31q0 -13 -6 -33l-27 -105q-4 -20 9 -22q10 -2 53 28q25 18 40 22q30 8 30 -21
q0 -15 -3 -25t-13 -30q14 9 60 28t59 22q11 3 18.5 -4.5t7.5 -20.5zM363 -61q-18 -14 -38 -35q-25 -26 -25 -37q0 -10 3 -12t11 -2q11 0 32 47q8 17 17 39z" />
    <glyph glyph-name="divide" unicode="&#xf7;" horiz-adv-x="319" 
d="M245 298q17 0 22 -13t5 -33q0 -15 -45 -77t-45 -73q0 -17 17 -17q32 0 84 39q56 43 113 87q18 0 18 -19q0 -23 -98 -108q-103 -89 -143 -89q-48 0 -68 20q-16 16 -16 45q0 35 50 99q35 45 43 59q-52 -36 -119 -36q-19 0 -30 8t-22 23.5t-11 34.5q0 14 2 22q12 48 61 48
q36 0 50 -36q7 -16 11.5 -20.5t13.5 -4.5q20 0 48 13t59 28z" />
    <glyph glyph-name="divide" unicode="&#x447;" horiz-adv-x="319" 
d="M245 298q17 0 22 -13t5 -33q0 -15 -45 -77t-45 -73q0 -17 17 -17q32 0 84 39q56 43 113 87q18 0 18 -19q0 -23 -98 -108q-103 -89 -143 -89q-48 0 -68 20q-16 16 -16 45q0 35 50 99q35 45 43 59q-52 -36 -119 -36q-19 0 -30 8t-22 23.5t-11 34.5q0 14 2 22q12 48 61 48
q36 0 50 -36q7 -16 11.5 -20.5t13.5 -4.5q20 0 48 13t59 28z" />
    <glyph glyph-name="oslash" unicode="&#xf8;" horiz-adv-x="700" 
d="M795 168q-9 -29 -98 -97q-100 -76 -163 -76q-42 0 -64 30q-17 23 -17 54q0 8 5 23q1 3 7 18q-59 -66 -70 -75q-48 -40 -109 -40q-26 0 -40 16.5t-14 33.5q0 19 2.5 32t8.5 25q-74 -63 -97 -76q-38 -22 -68 -22t-47 17t-17 43q0 5 2 17q9 49 40 108q26 47 38.5 70.5
t31 36.5t30.5 10q28 -10 28 -39q0 -22 -36 -86t-36 -77q0 -11 13 -11q12 0 68 43q42 33 85 66q19 30 40 53q26 28 43 28q19 0 27.5 -13.5t8.5 -32.5q0 -11 -36.5 -66t-36.5 -67q0 -16 14 -16q24 0 108 86t106 86q12 0 21 -3q26 -8 26 -29q0 -16 -17.5 -49.5t-35.5 -68.5v-11
q0 -12 3 -17.5t14 -5.5q55 0 111 31q50 35 101 70q10 0 16 -5t4 -14z" />
    <glyph glyph-name="oslash" unicode="&#x448;" horiz-adv-x="700" 
d="M795 168q-9 -29 -98 -97q-100 -76 -163 -76q-42 0 -64 30q-17 23 -17 54q0 8 5 23q1 3 7 18q-59 -66 -70 -75q-48 -40 -109 -40q-26 0 -40 16.5t-14 33.5q0 19 2.5 32t8.5 25q-74 -63 -97 -76q-38 -22 -68 -22t-47 17t-17 43q0 5 2 17q9 49 40 108q26 47 38.5 70.5
t31 36.5t30.5 10q28 -10 28 -39q0 -22 -36 -86t-36 -77q0 -11 13 -11q12 0 68 43q42 33 85 66q19 30 40 53q26 28 43 28q19 0 27.5 -13.5t8.5 -32.5q0 -11 -36.5 -66t-36.5 -67q0 -16 14 -16q24 0 108 86t106 86q12 0 21 -3q26 -8 26 -29q0 -16 -17.5 -49.5t-35.5 -68.5v-11
q0 -12 3 -17.5t14 -5.5q55 0 111 31q50 35 101 70q10 0 16 -5t4 -14z" />
    <glyph glyph-name="ugrave" unicode="&#xf9;" horiz-adv-x="721" 
d="M667 111q17 0 23.5 -4t6.5 -19q0 -14 -4 -23q-9 -14 -15 -27q14 9 60 28t59 22q14 3 20 -7t6 -18q0 -5 -7.5 -11t-37.5 -23q-18 -10 -46 -23q-43 -20 -69 -34l-44 -110q-38 -76 -81 -76q-36 0 -55 16t-19 37q0 51 50 95q31 28 86 54l4 10q0 6 5 19q-27 -18 -64 -18
q-35 0 -53 22t-18 58q0 12 4.5 23t7.5 18q-62 -69 -90 -85q-38 -21 -87 -21q-56 0 -56 41q0 19 2.5 32t8.5 25q-74 -63 -97 -76q-38 -22 -68 -22t-47 17t-17 43q0 5 2 17q8 41 44 109q20 38 41 76q7 14 25.5 28.5t29.5 11.5q28 -10 28 -39q0 -21 -36 -81t-36 -72t13 -12
q18 0 70 38q41 31 83 62q16 38 28 56q17 24 36 24t27.5 -13.5t8.5 -32.5q0 -11 -23.5 -59t-23.5 -59q0 -17 5 -25.5t12 -7.5q24 2 94.5 89t91.5 87q12 0 21 -3q26 -8 26 -29q0 -18 -24.5 -80t-24.5 -69q0 -13 12 -13q32 0 59 17t43 17zM593 -62q-18 -14 -38 -35
q-25 -26 -25 -37q0 -10 3 -12t11 -2q11 0 32 47q8 17 17 39z" />
    <glyph glyph-name="ugrave" unicode="&#x449;" horiz-adv-x="721" 
d="M667 111q17 0 23.5 -4t6.5 -19q0 -14 -4 -23q-9 -14 -15 -27q14 9 60 28t59 22q14 3 20 -7t6 -18q0 -5 -7.5 -11t-37.5 -23q-18 -10 -46 -23q-43 -20 -69 -34l-44 -110q-38 -76 -81 -76q-36 0 -55 16t-19 37q0 51 50 95q31 28 86 54l4 10q0 6 5 19q-27 -18 -64 -18
q-35 0 -53 22t-18 58q0 12 4.5 23t7.5 18q-62 -69 -90 -85q-38 -21 -87 -21q-56 0 -56 41q0 19 2.5 32t8.5 25q-74 -63 -97 -76q-38 -22 -68 -22t-47 17t-17 43q0 5 2 17q8 41 44 109q20 38 41 76q7 14 25.5 28.5t29.5 11.5q28 -10 28 -39q0 -21 -36 -81t-36 -72t13 -12
q18 0 70 38q41 31 83 62q16 38 28 56q17 24 36 24t27.5 -13.5t8.5 -32.5q0 -11 -23.5 -59t-23.5 -59q0 -17 5 -25.5t12 -7.5q24 2 94.5 89t91.5 87q12 0 21 -3q26 -8 26 -29q0 -18 -24.5 -80t-24.5 -69q0 -13 12 -13q32 0 59 17t43 17zM593 -62q-18 -14 -38 -35
q-25 -26 -25 -37q0 -10 3 -12t11 -2q11 0 32 47q8 17 17 39z" />
    <glyph glyph-name="uacute" unicode="&#xfa;" horiz-adv-x="378" 
d="M223 73q4 6 9 23q-18 0 -29 5.5t-18 14.5l-10 19q-14 -12 -20 -37q-2 -12 -2 -18q0 -23 9 -27.5t19 -4.5q12 0 22 5.5t20 19.5zM87 198q-5 -1 -13 -1q-24 0 -47 15q-12 9 -19.5 22t-7.5 27q0 7 1 10q5 20 19.5 32t35.5 12q31 0 45 -32q9 -25 24 -23q22 0 39 12
q49 35 54 36q17 4 27.5 -6.5t10.5 -26.5v-6q-2 -4 -2 -5q-9 -21 -31 -45l-36 -38q7 3 18.5 6t21.5 3q30 0 54 -15t31 -48q23 0 61 19q19 9 41 27q16 13 26 13q11 0 12.5 -4t1.5 -17q0 -18 -50 -47q-26 -15 -47.5 -23t-49.5 -12q-18 -47 -62 -72.5t-103 -25.5
q-26 0 -42.5 18.5t-16.5 49.5q0 24 6.5 46.5t22.5 53.5q8 15 31 45q20 26 22 29q-22 -14 -45 -22q-15 -5 -33 -7z" />
    <glyph glyph-name="uacute" unicode="&#x44a;" horiz-adv-x="378" 
d="M223 73q4 6 9 23q-18 0 -29 5.5t-18 14.5l-10 19q-14 -12 -20 -37q-2 -12 -2 -18q0 -23 9 -27.5t19 -4.5q12 0 22 5.5t20 19.5zM87 198q-5 -1 -13 -1q-24 0 -47 15q-12 9 -19.5 22t-7.5 27q0 7 1 10q5 20 19.5 32t35.5 12q31 0 45 -32q9 -25 24 -23q22 0 39 12
q49 35 54 36q17 4 27.5 -6.5t10.5 -26.5v-6q-2 -4 -2 -5q-9 -21 -31 -45l-36 -38q7 3 18.5 6t21.5 3q30 0 54 -15t31 -48q23 0 61 19q19 9 41 27q16 13 26 13q11 0 12.5 -4t1.5 -17q0 -18 -50 -47q-26 -15 -47.5 -23t-49.5 -12q-18 -47 -62 -72.5t-103 -25.5
q-26 0 -42.5 18.5t-16.5 49.5q0 24 6.5 46.5t22.5 53.5q8 15 31 45q20 26 22 29q-22 -14 -45 -22q-15 -5 -33 -7z" />
    <glyph glyph-name="ucircumflex" unicode="&#xfb;" horiz-adv-x="527" 
d="M133 76q4 6 9 23q-18 0 -29 5.5t-18.5 14.5t-15.5 19q-5 -7 -8 -15.5t-5.5 -21t-2.5 -18.5q0 -23 9 -27.5t19 -4.5q12 0 22 5.5t20 19.5zM352 203q13 32 31.5 51.5t33.5 19.5q18 0 28 -3.5t10 -19.5q0 -6 -32 -70t-32 -78q0 -16 6 -19.5t20 -3.5q20 0 89 66t85 66
q20 0 20 -19q0 -22 -95 -112q-101 -96 -145 -96q-28 0 -45.5 18.5t-17.5 42.5q0 15 8 40t15 40q-23 -13 -55.5 -24.5t-58.5 -15.5q-18 -47 -62 -72.5t-103 -25.5q-26 0 -42.5 18.5t-16.5 49.5q0 49 23 104q13 32 39 80q21 40 28 49q18 23 41 23q18 0 29 -9t11 -23
q0 -3 -2 -9q-10 -25 -34 -56q-17 -21 -24 -30q16 8 38 8q28 0 50.5 -15t29.5 -48q13 0 31.5 9.5t27.5 13.5q29 14 48.5 28.5t22.5 21.5z" />
    <glyph glyph-name="ucircumflex" unicode="&#x44b;" horiz-adv-x="527" 
d="M133 76q4 6 9 23q-18 0 -29 5.5t-18.5 14.5t-15.5 19q-5 -7 -8 -15.5t-5.5 -21t-2.5 -18.5q0 -23 9 -27.5t19 -4.5q12 0 22 5.5t20 19.5zM352 203q13 32 31.5 51.5t33.5 19.5q18 0 28 -3.5t10 -19.5q0 -6 -32 -70t-32 -78q0 -16 6 -19.5t20 -3.5q20 0 89 66t85 66
q20 0 20 -19q0 -22 -95 -112q-101 -96 -145 -96q-28 0 -45.5 18.5t-17.5 42.5q0 15 8 40t15 40q-23 -13 -55.5 -24.5t-58.5 -15.5q-18 -47 -62 -72.5t-103 -25.5q-26 0 -42.5 18.5t-16.5 49.5q0 49 23 104q13 32 39 80q21 40 28 49q18 23 41 23q18 0 29 -9t11 -23
q0 -3 -2 -9q-10 -25 -34 -56q-17 -21 -24 -30q16 8 38 8q28 0 50.5 -15t29.5 -48q13 0 31.5 9.5t27.5 13.5q29 14 48.5 28.5t22.5 21.5z" />
    <glyph glyph-name="udieresis" unicode="&#xfc;" horiz-adv-x="343" 
d="M175 70q4 6 9 23q-18 0 -29 5.5t-18.5 14.5t-15.5 19q-5 -7 -8 -15.5t-5.5 -21t-2.5 -18.5q0 -23 9 -27.5t19 -4.5q12 0 22 5.5t20 19.5zM166 306q18 0 29 -9t11 -23q0 -3 -2 -9q-10 -25 -34 -56q-17 -21 -24 -30q16 8 38 8q28 0 50.5 -15t29.5 -48q13 0 31.5 9.5
t27.5 13.5q19 9 40 26q15 12 25 12q12 0 15 -5.5t3 -17.5q0 -18 -50 -47q-26 -15 -47.5 -23t-49.5 -12q-18 -47 -62 -72.5t-103 -25.5q-26 0 -42.5 18.5t-16.5 49.5q0 49 23 104q13 32 39 80q21 40 28 49q18 23 41 23z" />
    <glyph glyph-name="udieresis" unicode="&#x44c;" horiz-adv-x="343" 
d="M175 70q4 6 9 23q-18 0 -29 5.5t-18.5 14.5t-15.5 19q-5 -7 -8 -15.5t-5.5 -21t-2.5 -18.5q0 -23 9 -27.5t19 -4.5q12 0 22 5.5t20 19.5zM166 306q18 0 29 -9t11 -23q0 -3 -2 -9q-10 -25 -34 -56q-17 -21 -24 -30q16 8 38 8q28 0 50.5 -15t29.5 -48q13 0 31.5 9.5
t27.5 13.5q19 9 40 26q15 12 25 12q12 0 15 -5.5t3 -17.5q0 -18 -50 -47q-26 -15 -47.5 -23t-49.5 -12q-18 -47 -62 -72.5t-103 -25.5q-26 0 -42.5 18.5t-16.5 49.5q0 49 23 104q13 32 39 80q21 40 28 49q18 23 41 23z" />
    <glyph glyph-name="yacute" unicode="&#xfd;" horiz-adv-x="355" 
d="M352 244q0 -82 -62 -159q-68 -84 -160 -84q-34 0 -60 9q-43 15 -43 47q0 27 32 27q10 0 25 -3q36 -7 42 -7q53 0 82 25q16 14 26 39q-13 -12 -21 -16.5t-22 -4.5q-15 0 -23.5 7.5t-12.5 7.5q-7 0 -17 -2t-16 -2q-16 0 -16 19q0 10 19.5 28.5t41.5 18.5q6 0 20 -7
q8 -4 18 -4q16 0 28 5t22 10l1 11q0 14 -6 24.5t-20 10.5q-46 0 -86.5 -30.5t-48.5 -30.5q-18 0 -18.5 10t-0.5 14q0 31 58 69q63 41 133 41q44 0 66 -23q19 -19 19 -50z" />
    <glyph glyph-name="yacute" unicode="&#x44d;" horiz-adv-x="355" 
d="M352 244q0 -82 -62 -159q-68 -84 -160 -84q-34 0 -60 9q-43 15 -43 47q0 27 32 27q10 0 25 -3q36 -7 42 -7q53 0 82 25q16 14 26 39q-13 -12 -21 -16.5t-22 -4.5q-15 0 -23.5 7.5t-12.5 7.5q-7 0 -17 -2t-16 -2q-16 0 -16 19q0 10 19.5 28.5t41.5 18.5q6 0 20 -7
q8 -4 18 -4q16 0 28 5t22 10l1 11q0 14 -6 24.5t-20 10.5q-46 0 -86.5 -30.5t-48.5 -30.5q-18 0 -18.5 10t-0.5 14q0 31 58 69q63 41 133 41q44 0 66 -23q19 -19 19 -50z" />
    <glyph glyph-name="thorn" unicode="&#xfe;" horiz-adv-x="507" 
d="M599 174q0 -20 -21.5 -33t-49.5 -13q-35 0 -74 22q-20 -67 -65.5 -114.5t-93.5 -47.5q-28 0 -61 21q-39 25 -39 60v22.5t5 27.5q-58 -71 -75 -85q-34 -28 -64 -28q-21 0 -31.5 12.5t-10.5 33.5q0 12 3 26q9 42 44 108q20 38 41 77q10 17 26 30q23 18 47 18q9 0 13 -7.5
t4 -33.5q0 -12 -36.5 -80t-38.5 -84q8 9 27 28q27 25 51 62q16 26 38 43q27 20 53 20q35 0 35 -31q0 -13 -16 -27q-23 -20 -25 -22q-17 -22 -17 -80q0 -16 13 -26t26 -10q37 0 61 38q17 27 27 73q-24 9 -46.5 29t-22.5 39q0 24 17.5 40.5t41.5 16.5q51 0 70 -33
q7 -13 15 -60q12 -10 23 -15q18 -9 35 -9q9 0 29 7t25 7q13 0 17 -22z" />
    <glyph glyph-name="thorn" unicode="&#x44e;" horiz-adv-x="507" 
d="M599 174q0 -20 -21.5 -33t-49.5 -13q-35 0 -74 22q-20 -67 -65.5 -114.5t-93.5 -47.5q-28 0 -61 21q-39 25 -39 60v22.5t5 27.5q-58 -71 -75 -85q-34 -28 -64 -28q-21 0 -31.5 12.5t-10.5 33.5q0 12 3 26q9 42 44 108q20 38 41 77q10 17 26 30q23 18 47 18q9 0 13 -7.5
t4 -33.5q0 -12 -36.5 -80t-38.5 -84q8 9 27 28q27 25 51 62q16 26 38 43q27 20 53 20q35 0 35 -31q0 -13 -16 -27q-23 -20 -25 -22q-17 -22 -17 -80q0 -16 13 -26t26 -10q37 0 61 38q17 27 27 73q-24 9 -46.5 29t-22.5 39q0 24 17.5 40.5t41.5 16.5q51 0 70 -33
q7 -13 15 -60q12 -10 23 -15q18 -9 35 -9q9 0 29 7t25 7q13 0 17 -22z" />
    <glyph glyph-name="ydieresis" unicode="&#xff;" horiz-adv-x="507" 
d="M627 174q0 -31 -93 -101q-99 -74 -161 -74q-41 0 -59 19q-14 15 -14 42q0 6 13 43l8 24q-36 -49 -98 -91q-55 -37 -99 -37q-35 0 -59 22t-24 56q0 44 20 63q15 15 42 15q24 0 36 -14t12 -34q0 -14 5.5 -17t17.5 -3q14 0 37 12t39 28q-32 0 -60 15q-44 23 -44 70
q0 45 40 75t94 30q42 0 72 -11.5t30 -24.5q22 0 40.5 -10t18.5 -26q0 -17 -25 -73t-25 -65q0 -20 19 -20q28 0 83 35.5t111 73.5q12 0 17.5 -4.5t5.5 -17.5zM336 229q-4 8 -23.5 19t-32.5 11q-15 0 -29 -10.5t-14 -27.5q0 -29 34 -36q15 -3 29 -3z" />
    <glyph glyph-name="ydieresis" unicode="&#x44f;" horiz-adv-x="507" 
d="M627 174q0 -31 -93 -101q-99 -74 -161 -74q-41 0 -59 19q-14 15 -14 42q0 6 13 43l8 24q-36 -49 -98 -91q-55 -37 -99 -37q-35 0 -59 22t-24 56q0 44 20 63q15 15 42 15q24 0 36 -14t12 -34q0 -14 5.5 -17t17.5 -3q14 0 37 12t39 28q-32 0 -60 15q-44 23 -44 70
q0 45 40 75t94 30q42 0 72 -11.5t30 -24.5q22 0 40.5 -10t18.5 -26q0 -17 -25 -73t-25 -65q0 -20 19 -20q28 0 83 35.5t111 73.5q12 0 17.5 -4.5t5.5 -17.5zM336 229q-4 8 -23.5 19t-32.5 11q-15 0 -29 -10.5t-14 -27.5q0 -29 34 -36q15 -3 29 -3z" />
    <glyph glyph-name="dotlessi" unicode="&#x131;" horiz-adv-x="195" 
d="M2 54q0 45 18 106q23 79 56 79q16 0 22.5 -7.5t6.5 -19.5q0 -11 -4 -27q-12 -48 -12 -57q0 -21 2.5 -28.5t14.5 -7.5q19 0 56.5 27.5t75.5 55.5q11 -3 18 -8.5t7 -14.5q0 -19 -65 -80q-75 -70 -131 -70q-26 0 -45.5 14t-19.5 38z" />
    <glyph glyph-name="OE" unicode="&#x152;" horiz-adv-x="623" 
d="M564 234q0 25 -11 38t-28 13h-23t-21 1q-26 0 -37 -2t-36 -11l-32 -92q-19 -59 -19 -88q0 -20 -4.5 -30t-18.5 -15q39 0 80 22q32 17 60 44q48 47 56 55q34 36 34 65zM327 264q-15 -4 -58 -10.5t-61 -9.5q-10 -59 -50 -148q-45 -100 -73 -100q-45 0 -45 60q0 11 22 53
q63 119 63 120q-46 -8 -91 -15q-19 0 -31.5 10.5t-12.5 33.5q0 29 11.5 47t26.5 18q27 0 65 -3t65 -3q17 44 68 192q14 40 34 85.5t25 52.5q17 25 46 25q18 0 22.5 -11t4.5 -41q0 -13 -26 -60q-43 -79 -62 -118q-14 -29 -23 -63q-13 -49 -17 -62q30 0 61 4t63 9
q27 61 65.5 152t49.5 124q5 15 18 26t22 9q14 -3 21 -14.5t7 -44.5q0 -41 -43 -122q-35 -62 -69 -123q54 20 62 23q31 10 53 10q8 0 12 -1q40 -5 65 -23.5t25 -51.5q0 -58 -38 -126q-34 -60 -79 -98q-51 -42 -113 -69q-72 -31 -139 -31q-35 0 -46 2q-26 5 -26 35q0 38 33 41
q17 -1 29 -1.5t17 0.5q-12 19 -13 21q-4 9 -3 19q0 27 26 89q18 44 37 88z" />
    <glyph glyph-name="OE" unicode="&#x40a;" horiz-adv-x="623" 
d="M564 234q0 25 -11 38t-28 13h-23t-21 1q-26 0 -37 -2t-36 -11l-32 -92q-19 -59 -19 -88q0 -20 -4.5 -30t-18.5 -15q39 0 80 22q32 17 60 44q48 47 56 55q34 36 34 65zM327 264q-15 -4 -58 -10.5t-61 -9.5q-10 -59 -50 -148q-45 -100 -73 -100q-45 0 -45 60q0 11 22 53
q63 119 63 120q-46 -8 -91 -15q-19 0 -31.5 10.5t-12.5 33.5q0 29 11.5 47t26.5 18q27 0 65 -3t65 -3q17 44 68 192q14 40 34 85.5t25 52.5q17 25 46 25q18 0 22.5 -11t4.5 -41q0 -13 -26 -60q-43 -79 -62 -118q-14 -29 -23 -63q-13 -49 -17 -62q30 0 61 4t63 9
q27 61 65.5 152t49.5 124q5 15 18 26t22 9q14 -3 21 -14.5t7 -44.5q0 -41 -43 -122q-35 -62 -69 -123q54 20 62 23q31 10 53 10q8 0 12 -1q40 -5 65 -23.5t25 -51.5q0 -58 -38 -126q-34 -60 -79 -98q-51 -42 -113 -69q-72 -31 -139 -31q-35 0 -46 2q-26 5 -26 35q0 38 33 41
q17 -1 29 -1.5t17 0.5q-12 19 -13 21q-4 9 -3 19q0 27 26 89q18 44 37 88z" />
    <glyph glyph-name="oe" unicode="&#x153;" horiz-adv-x="529" 
d="M382 52q4 6 9 23q-18 0 -29 5.5t-18.5 14.5t-15.5 19q-5 -7 -8 -15.5t-5.5 -21t-2.5 -18.5q0 -23 9 -27.5t19 -4.5q12 0 22 5.5t20 19.5zM353 161q16 8 38 8q28 0 50.5 -15t29.5 -48q13 0 31.5 9.5t27.5 13.5q19 9 40 26q15 12 25 12q12 0 15 -5.5t3 -17.5q0 -18 -50 -47
q-26 -15 -47.5 -23t-49.5 -12q-18 -47 -62 -72.5t-103 -25.5q-26 0 -42.5 18.5t-16.5 49.5q0 49 23 104q-27 -14 -58.5 -20.5t-54.5 -6.5h-18q-4 -10 -9 -25t-6 -23q-4 -20 -7 -39q-7 -22 -34 -22q-26 0 -35.5 20t-9.5 49q0 15 11 39q5 10 17 32q-28 22 -28 39q0 13 6.5 20
t11.5 7q14 0 34 -17q8 13 22 42t19 37q7 15 20 24.5t27 9.5q20 0 25 -12q2 -5 2 -27q-1 -13 -21 -53q-6 -12 -20 -42q28 0 43 2.5t46 13.5q15 5 25 11q17 10 18 11q14 33 41 54.5t43 21.5q13 0 18.5 -9t5.5 -22q0 -16 -13.5 -41t-32.5 -49z" />
    <glyph glyph-name="oe" unicode="&#x45a;" horiz-adv-x="529" 
d="M382 52q4 6 9 23q-18 0 -29 5.5t-18.5 14.5t-15.5 19q-5 -7 -8 -15.5t-5.5 -21t-2.5 -18.5q0 -23 9 -27.5t19 -4.5q12 0 22 5.5t20 19.5zM353 161q16 8 38 8q28 0 50.5 -15t29.5 -48q13 0 31.5 9.5t27.5 13.5q19 9 40 26q15 12 25 12q12 0 15 -5.5t3 -17.5q0 -18 -50 -47
q-26 -15 -47.5 -23t-49.5 -12q-18 -47 -62 -72.5t-103 -25.5q-26 0 -42.5 18.5t-16.5 49.5q0 49 23 104q-27 -14 -58.5 -20.5t-54.5 -6.5h-18q-4 -10 -9 -25t-6 -23q-4 -20 -7 -39q-7 -22 -34 -22q-26 0 -35.5 20t-9.5 49q0 15 11 39q5 10 17 32q-28 22 -28 39q0 13 6.5 20
t11.5 7q14 0 34 -17q8 13 22 42t19 37q7 15 20 24.5t27 9.5q20 0 25 -12q2 -5 2 -27q-1 -13 -21 -53q-6 -12 -20 -42q28 0 43 2.5t46 13.5q15 5 25 11q17 10 18 11q14 33 41 54.5t43 21.5q13 0 18.5 -9t5.5 -22q0 -16 -13.5 -41t-32.5 -49z" />
    <glyph glyph-name="Scaron" unicode="&#x160;" horiz-adv-x="724" 
d="M480 72q37 0 71 24q13 9 52 48q28 28 39.5 53t11.5 51q2 13 -14.5 16.5t-46.5 3.5q-27 0 -58.5 -26.5t-44.5 -26.5q-15 0 -25 14t-8 31q0 40 64 70q56 26 117 26q34 0 59 -26q29 -30 29 -82q0 -40 -19.5 -74.5t-55.5 -69.5q-81 -82 -86 -86q-44 -33 -109 -33
q-50 0 -76 30q-20 23 -26 63q-1 5 -2 16t-1 20q0 27 4 60.5t18 114.5q21 121 23 134q13 69 26 118h-6q-33 -76 -65 -151q-21 -48 -50 -103q-43 -84 -88 -157t-71 -104q-20 -24 -35 -29t-44 -5q-18 0 -26 12.5t-8 33.5q0 23 7 33t32.5 30t39.5 37q25 28 50 62q29 40 58 85
q22 34 54 95l52 100q34 68 49 93q24 45 49 91q24 39 54 39q22 0 31.5 -13.5t9.5 -40.5q0 -19 -2 -33.5t-42 -198.5q-20 -94 -25.5 -143t-5.5 -88q0 -53 9 -83.5t31 -30.5z" />
    <glyph glyph-name="Scaron" unicode="&#x409;" horiz-adv-x="724" 
d="M480 72q37 0 71 24q13 9 52 48q28 28 39.5 53t11.5 51q2 13 -14.5 16.5t-46.5 3.5q-27 0 -58.5 -26.5t-44.5 -26.5q-15 0 -25 14t-8 31q0 40 64 70q56 26 117 26q34 0 59 -26q29 -30 29 -82q0 -40 -19.5 -74.5t-55.5 -69.5q-81 -82 -86 -86q-44 -33 -109 -33
q-50 0 -76 30q-20 23 -26 63q-1 5 -2 16t-1 20q0 27 4 60.5t18 114.5q21 121 23 134q13 69 26 118h-6q-33 -76 -65 -151q-21 -48 -50 -103q-43 -84 -88 -157t-71 -104q-20 -24 -35 -29t-44 -5q-18 0 -26 12.5t-8 33.5q0 23 7 33t32.5 30t39.5 37q25 28 50 62q29 40 58 85
q22 34 54 95l52 100q34 68 49 93q24 45 49 91q24 39 54 39q22 0 31.5 -13.5t9.5 -40.5q0 -19 -2 -33.5t-42 -198.5q-20 -94 -25.5 -143t-5.5 -88q0 -53 9 -83.5t31 -30.5z" />
    <glyph glyph-name="scaron" unicode="&#x161;" horiz-adv-x="534" 
d="M415 85q4 6 9 23q-18 0 -29 5.5t-18.5 14.5t-15.5 19q-5 -7 -8 -15.5t-5.5 -21t-2.5 -18.5q0 -23 9 -27.5t19 -4.5q12 0 22 5.5t20 19.5zM429 300q0 -25 -13 -55t-30 -51q16 8 38 8q28 0 50.5 -15t29.5 -48q13 0 31.5 9.5t27.5 13.5q19 9 40 26q15 12 25 12q12 0 15 -5.5
t3 -17.5q0 -18 -50 -47q-26 -15 -47.5 -23t-49.5 -12q-18 -47 -62 -72.5t-103 -25.5q-26 0 -42.5 18.5t-16.5 49.5q0 54 31 127q-39 -49 -77 -97q-80 -86 -139 -86q-35 0 -59 23t-24 58q0 51 16 74t55 23q29 0 39 -23q6 -14 6 -40q0 -17 3.5 -19t17.5 -2q22 0 72 60l86 112
q47 60 66 60q33 0 39 -2q22 -7 22 -33z" />
    <glyph glyph-name="scaron" unicode="&#x459;" horiz-adv-x="534" 
d="M415 85q4 6 9 23q-18 0 -29 5.5t-18.5 14.5t-15.5 19q-5 -7 -8 -15.5t-5.5 -21t-2.5 -18.5q0 -23 9 -27.5t19 -4.5q12 0 22 5.5t20 19.5zM429 300q0 -25 -13 -55t-30 -51q16 8 38 8q28 0 50.5 -15t29.5 -48q13 0 31.5 9.5t27.5 13.5q19 9 40 26q15 12 25 12q12 0 15 -5.5
t3 -17.5q0 -18 -50 -47q-26 -15 -47.5 -23t-49.5 -12q-18 -47 -62 -72.5t-103 -25.5q-26 0 -42.5 18.5t-16.5 49.5q0 54 31 127q-39 -49 -77 -97q-80 -86 -139 -86q-35 0 -59 23t-24 58q0 51 16 74t55 23q29 0 39 -23q6 -14 6 -40q0 -17 3.5 -19t17.5 -2q22 0 72 60l86 112
q47 60 66 60q33 0 39 -2q22 -7 22 -33z" />
    <glyph glyph-name="Ydieresis" unicode="&#x178;" horiz-adv-x="452" 
d="M505 90q0 -20 -70 -58t-105 -38q-42 0 -59.5 24.5t-17.5 63.5q0 16 1 24q-48 -48 -93 -75q-52 -31 -94 -31q-29 0 -46.5 17.5t-17.5 44.5q0 4 2 16q10 45 28 86q3 6 32 67q11 23 32.5 33.5t35.5 6.5q13 -4 13 -24v-13q0 -12 -22 -61t-22 -63q0 -11 12 -11q21 0 54 16
t70 43q13 9 42 45q24 30 35 30q23 0 32.5 -8.5t9.5 -23.5q0 -9 -3.5 -18.5t-9 -18.5t-10 -36t-4.5 -46q0 -14 11 -14q31 0 71.5 13t83.5 28q9 -2 9 -19zM258 -5q0 -32 -33 -75q-22 -29 -77 -84q-34 -35 -77.5 -67.5t-51.5 -32.5q-19 0 -19 13q0 19 19.5 30t47 44.5
t51.5 77.5q28 48 38 96q11 42 39 42q24 0 43.5 -12t19.5 -32z" />
    <glyph glyph-name="Ydieresis" unicode="&#x45f;" horiz-adv-x="452" 
d="M505 90q0 -20 -70 -58t-105 -38q-42 0 -59.5 24.5t-17.5 63.5q0 16 1 24q-48 -48 -93 -75q-52 -31 -94 -31q-29 0 -46.5 17.5t-17.5 44.5q0 4 2 16q10 45 28 86q3 6 32 67q11 23 32.5 33.5t35.5 6.5q13 -4 13 -24v-13q0 -12 -22 -61t-22 -63q0 -11 12 -11q21 0 54 16
t70 43q13 9 42 45q24 30 35 30q23 0 32.5 -8.5t9.5 -23.5q0 -9 -3.5 -18.5t-9 -18.5t-10 -36t-4.5 -46q0 -14 11 -14q31 0 71.5 13t83.5 28q9 -2 9 -19zM258 -5q0 -32 -33 -75q-22 -29 -77 -84q-34 -35 -77.5 -67.5t-51.5 -32.5q-19 0 -19 13q0 19 19.5 30t47 44.5
t51.5 77.5q28 48 38 96q11 42 39 42q24 0 43.5 -12t19.5 -32z" />
    <glyph glyph-name="florin" unicode="&#x192;" horiz-adv-x="312" 
d="M371 102q0 -20 -82 -68q-89 -52 -150 -52q-60 0 -88 27q-22 21 -22 53q0 38 50 66q36 17 73 34q28 15 35 21q17 14 17 32q0 22 -21 22q-16 0 -28.5 -4.5t-15.5 -17.5q-10 -29 -11 -31q-10 -16 -36 -16q-18 0 -23 8.5t-5 28.5v10q0 25 39 57q44 36 92 36q46 0 69.5 -24.5
t23.5 -68.5q0 -38 -50 -65q-28 -14 -55 -28q-18 -9 -35 -17q-19 -11 -19 -28q0 -16 19 -16q16 1 25 1q15 0 68 18l116 42q14 0 14 -10v-10zM410 548q-47 -18 -93 -52q-41 -31 -54.5 -53t-30 -34t-40.5 -12q-15 0 -26.5 12.5t-11.5 26.5q0 15 20 36q15 15 44 36
q49 34 104.5 57t97.5 23q13 0 26.5 -5t13.5 -14q0 -7 -19 -11.5t-31 -9.5z" />
    <glyph glyph-name="florin" unicode="&#x453;" horiz-adv-x="312" 
d="M371 102q0 -20 -82 -68q-89 -52 -150 -52q-60 0 -88 27q-22 21 -22 53q0 38 50 66q36 17 73 34q28 15 35 21q17 14 17 32q0 22 -21 22q-16 0 -28.5 -4.5t-15.5 -17.5q-10 -29 -11 -31q-10 -16 -36 -16q-18 0 -23 8.5t-5 28.5v10q0 25 39 57q44 36 92 36q46 0 69.5 -24.5
t23.5 -68.5q0 -38 -50 -65q-28 -14 -55 -28q-18 -9 -35 -17q-19 -11 -19 -28q0 -16 19 -16q16 1 25 1q15 0 68 18l116 42q14 0 14 -10v-10zM410 548q-47 -18 -93 -52q-41 -31 -54.5 -53t-30 -34t-40.5 -12q-15 0 -26.5 12.5t-11.5 26.5q0 15 20 36q15 15 44 36
q49 34 104.5 57t97.5 23q13 0 26.5 -5t13.5 -14q0 -7 -19 -11.5t-31 -9.5z" />
    <glyph glyph-name="circumflex" unicode="&#x2c6;" horiz-adv-x="635" 
d="M671 715q0 -8 -17 -17q-9 -3 -16.5 -4t-23.5 -1q-79 0 -120 53q-12 15 -19 46q-3 13 -9 53q-27 -32 -31 -36q-21 -22 -47.5 -44t-36.5 -30q-32 -24 -57 -24q-12 0 -21 11t-9 26q0 29 59 65q37 21 88.5 59t75.5 54q12 8 33.5 14.5t32.5 6.5q27 0 27 -21q0 -12 -6 -23
q-10 -18 -11.5 -25t-4.5 -24t-3 -28q0 -27 15 -51.5t41 -31.5q60 -15 60 -28z" />
    <glyph glyph-name="tilde" unicode="&#x2dc;" horiz-adv-x="635" 
d="M681 600q0 -12 -36.5 -35t-90.5 -44q-49 -22 -82.5 -31.5t-53.5 -9.5q-56 0 -59.5 31.5t-4.5 50.5q-2 12 -13 12q-12 0 -23.5 -15t-25.5 -42q-7 -16 -15.5 -33.5t-24.5 -17.5q-31 0 -45.5 12t-14.5 30q0 14 12.5 35t40.5 44q74 58 121 58q44 0 62 -43q14 -42 27 -42
q21 0 107 26q28 9 61.5 21.5t38.5 12.5q19 0 19 -20z" />
    <glyph glyph-name="endash" unicode="&#x2013;" horiz-adv-x="869" 
d="M769 265q0 -25 -17.5 -39t-35.5 -14h-176q-74 0 -126 -4t-109 -8q-41 0 -54.5 5.5t-13.5 29.5q0 27 14 38t49 11h173q32 0 123 6t112 6q28 0 44.5 -6t16.5 -25z" />
    <glyph glyph-name="emdash" unicode="&#x2014;" horiz-adv-x="1098" 
d="M945 273q0 -25 -21 -35.5t-59 -10.5q-79 5 -172 8.5t-214 3.5q-72 0 -113 -4t-85 -8q-43 0 -59 5t-16 28q0 22 7 27t34 5h16q3 0 88 5t124 5q70 0 173 1.5t236 3.5q28 0 44.5 -7t16.5 -27z" />
    <glyph glyph-name="quoteleft" unicode="&#x2018;" horiz-adv-x="380" 
d="M216 551q0 37 50 95q20 23 61 64q33 35 76.5 67.5t52.5 32.5q19 0 19 -13q0 -9 -5 -16.5t-14 -12.5q-18 -10 -48 -47t-52 -76q-28 -48 -38 -93t-39 -45q-24 0 -43.5 12t-19.5 32z" />
    <glyph glyph-name="quoteright" unicode="&#x2019;" horiz-adv-x="413" 
d="M506 784q0 -37 -50 -95q-19 -22 -60 -63q-33 -35 -79 -69q-42 -31 -50 -31q-19 0 -19 13q0 19 19.5 30t47 44.5t51.5 77.5q12 20 22.5 46t15.5 49q11 42 39 42q22 2 42.5 -10.5t20.5 -33.5z" />
    <glyph glyph-name="quotesinglbase" unicode="&#x201a;" horiz-adv-x="413" 
d="M254 97q0 -32 -33 -75q-22 -29 -77 -84q-34 -35 -77.5 -67.5t-51.5 -32.5q-19 0 -19 13q0 19 19.5 30t47 44.5t51.5 77.5q28 48 38 96q11 42 39 42q24 0 43.5 -12t19.5 -32z" />
    <glyph glyph-name="quotedblleft" unicode="&#x201c;" horiz-adv-x="509" 
d="M322 589q0 37 50 95q20 23 61 64q34 36 76.5 67.5t52.5 31.5q19 0 19 -12q0 -9 -5 -16.5t-14 -13.5q-18 -10 -46.5 -45t-53.5 -77q-13 -22 -22.5 -46t-15.5 -50q-10 -42 -39 -42q-24 0 -43.5 12t-19.5 32zM149 605q0 37 50 95q18 21 60 63q33 34 80 69q42 31 50 31
q18 0 18 -12q0 -20 -18.5 -30.5t-47.5 -46t-52 -76.5q-12 -20 -22.5 -46t-15 -47.5t-15.5 -32.5t-24 -11q-23 0 -43 11.5t-20 32.5z" />
    <glyph glyph-name="quotedblright" unicode="&#x201d;" horiz-adv-x="509" 
d="M454 784q0 -38 -50 -95q-14 -16 -61 -63q-32 -34 -79 -69q-42 -31 -50 -31q-19 0 -19 13q0 19 19 29.5t47 44.5t53 78q11 19 18 34q11 26 20 61q4 20 15 31t24 11q22 2 42.5 -10.5t20.5 -33.5zM627 769q0 -31 -34 -75q-23 -31 -76 -84q-34 -35 -80 -69q-42 -31 -50 -31
q-18 0 -18 13q0 19 18 29t48 47.5t52 75.5q28 48 38 93t39 45q24 0 43.5 -12t19.5 -32z" />
    <glyph glyph-name="quotedblbase" unicode="&#x201e;" horiz-adv-x="524" 
d="M254 97q0 -32 -33 -75q-22 -29 -77 -84q-34 -35 -77.5 -67.5t-51.5 -32.5q-19 0 -19 13q0 19 19.5 30t47 44.5t51.5 77.5q28 48 38 96q11 42 39 42q24 0 43.5 -12t19.5 -32zM427 81q0 -36 -50 -95q-23 -28 -59 -64t-78.5 -67.5t-51.5 -31.5q-19 0 -19 12q0 19 18.5 29.5
t47 45.5t53.5 77q13 22 22.5 46t15.5 50q10 42 38 42q24 0 43.5 -12t19.5 -32z" />
    <glyph glyph-name="dagger" unicode="&#x2020;" horiz-adv-x="371" 
d="M149 185q-5 -15 -8.5 -33.5t-7 -52t-4.5 -52.5t-1 -49q0 -33 -17 -49t-46 -16t-37.5 13.5t-8.5 38.5v11q0 37 31 126q6 17 37 97q20 52 45 104q30 58 39 77q-45 5 -61 16q-26 18 -26 67q0 21 13 33t32 12q18 2 31 -2q23 -8 47 -16l18 -3l18 33q32 57 51 90q29 50 36 51
t17 -6.5t7 -20.5q-5 -28 -11.5 -46.5t-24.5 -52.5l-26 -54q39 0 94 8.5t110 17.5q15 0 17.5 -9.5t1.5 -19.5q0 -20 -90.5 -49t-177.5 -43q-29 -58 -47 -97q-33 -72 -51 -124z" />
    <glyph glyph-name="daggerdbl" unicode="&#x2021;" horiz-adv-x="392" 
d="M262 475l-55 -112q23 -4 30 -4q11 1 21 1q28 0 68.5 7.5t82.5 15.5q15 0 17.5 -9.5t1.5 -19.5q0 -27 -81.5 -58t-182.5 -42q-13 -40 -19 -92l-14 -149q0 -33 -17 -49t-46 -16t-37.5 13.5t-8.5 38.5v11q0 31 30.5 124.5t50.5 129.5q-42 7 -56 16q-32 20 -32 67q0 21 13 33
t32 12q22 2 44.5 -5t39.5 -13q18 44 22 53t20 41q-45 5 -61 16q-26 18 -26 67q0 21 13 33t32 12q18 2 31 -2q23 -8 47 -16l18 -3l18 33q32 57 51 90q29 50 36 51t17 -6.5t7 -20.5q-5 -28 -11.5 -46.5t-24.5 -52.5l-26 -54q39 0 94 8.5t110 17.5q15 0 17.5 -9.5t1.5 -19.5
q0 -20 -90.5 -49t-177.5 -43z" />
    <glyph glyph-name="bullet" unicode="&#x2022;" horiz-adv-x="753" 
d="M412 403q47 0 82 -33t35 -80q0 -48 -33 -83t-80 -35q-48 0 -83 33t-35 81t33.5 82.5t80.5 34.5z" />
    <glyph glyph-name="ellipsis" unicode="&#x2026;" horiz-adv-x="839" 
d="M245 61q0 -24 -17.5 -38.5t-44.5 -14.5t-45 12.5t-18 35.5q0 29 16.5 52t43.5 23q65 0 65 -70zM481 61q0 -24 -17.5 -38.5t-44.5 -14.5t-45 12.5t-18 35.5q0 29 16.5 52t43.5 23q65 0 65 -70zM717 61q0 -24 -17.5 -38.5t-44.5 -14.5q-26 0 -44.5 13t-18.5 35
q0 29 16.5 52t43.5 23q65 0 65 -70z" />
    <glyph glyph-name="guilsinglleft" unicode="&#x2039;" horiz-adv-x="469" 
d="M148 130q60 -22 120 -43q65 -25 65 -41q0 -21 -8 -27t-40 -6q-37 0 -62 20q-35 28 -45 31.5t-75 12.5q-33 4 -33 32t36 57q32 24 65 48q46 45 93 91q24 21 39 21q20 0 26 -7t6 -27q0 -27 -62 -72t-125 -90z" />
    <glyph glyph-name="guilsinglright" unicode="&#x203a;" horiz-adv-x="455" 
d="M362 143q-12 10 -27.5 20.5t-56.5 32t-84 44.5q-19 12 -19 23q0 20 6.5 27.5t35.5 7.5t78 -36q35 -25 46 -31q44 -22 66 -41q27 -24 27 -47q0 -22 -50 -52l-60 -36q-21 -15 -42 -29q-34 -22 -71 -22q-24 0 -35 6t-11 26q0 21 50 43q40 17 63 26z" />
    <glyph glyph-name="trademark" unicode="&#x2122;" horiz-adv-x="672" 
d="M723 665q0 -23 -43 -110q-17 -34 -34 -67q-6 -15 -12 -39q-10 -42 -10 -62q-1 -11 2.5 -29t3.5 -21q0 -20 -8 -32.5t-30 -12.5q-28 0 -36 28q-4 13 -4 44q0 12 14.5 58.5t33.5 96.5q-37 -50 -69 -81q-43 -42 -71 -42q-17 0 -32.5 21.5t-23.5 47.5q-27 -72 -48 -111
q-34 -62 -60 -62q-15 0 -25.5 9.5t-10.5 25.5q0 7 18 40q66 119 73 134q11 22 27 64q11 28 15 40q-15 6 -19.5 8t-10.5 2q-18 0 -33 -0.5t-33 -3.5q-34 -80 -43 -106q-13 -37 -18 -69q-8 -47 -9 -56q-4 -27 -4 -49q0 -18 -12 -29t-33 -11q-20 0 -27 10.5t-7 28.5v11
q0 29 21 88q9 25 72 173q-17 -4 -35 -9t-38 -13q-28 -12 -29 -12q-13 -4 -23 -3q-16 2 -22 10.5t-6 24.5q3 16 54 33.5t115 28.5t93.5 14t55.5 3q14 0 23 -4q16 22 30 22q18 0 26.5 -10.5t8.5 -27.5q0 -11 -11 -39q-25 -63 -25 -71t-0.5 -17.5t-0.5 -20.5q0 -16 2 -31
t14 -15q20 0 61 49l102 128q12 18 26 33q23 26 33 26q18 0 25 -9t7 -27z" />
    </font>
</defs>
</svg>
